<svg width="159" height="106" viewBox="0 0 159 106" fill="none" xmlns="http://www.w3.org/2000/svg">
<path fill-rule="evenodd" clip-rule="evenodd" d="M94.0764 73.5578C87.006 78.7557 76.7578 81.529 67.9342 81.529C55.5621 81.529 44.4241 76.9649 35.9977 69.3742C35.3358 68.7772 35.929 67.9638 36.7234 68.4287C45.817 73.7058 57.061 76.8805 68.6757 76.8805C76.5088 76.8805 85.1258 75.2641 93.049 71.9098C94.2459 71.4026 95.2468 72.6915 94.0764 73.5578Z" fill="#FF9900"/>
<path fill-rule="evenodd" clip-rule="evenodd" d="M97.0164 70.2036C96.116 69.052 91.0421 69.6594 88.7647 69.9288C88.0709 70.0134 87.9651 69.4112 88.59 68.978C92.631 66.1414 99.2619 66.9602 100.035 67.911C100.808 68.8671 99.8339 75.4965 96.0364 78.6606C95.4539 79.1466 94.8977 78.8878 95.1572 78.2433C96.01 76.1199 97.9219 71.3604 97.0164 70.2036Z" fill="#FF9900"/>
<path fill-rule="evenodd" clip-rule="evenodd" d="M88.9231 48.9524V46.1951C88.9231 45.7777 89.2409 45.4978 89.6222 45.4978H101.999C102.397 45.4978 102.715 45.783 102.715 46.1951V48.5562C102.709 48.9524 102.376 49.4701 101.782 50.2889L95.3687 59.4221C97.752 59.3641 100.268 59.718 102.428 60.9329C102.916 61.2076 103.048 61.6091 103.085 62.0052V64.9475C103.085 65.349 102.64 65.8191 102.174 65.5761C98.3663 63.5847 93.3084 63.3681 89.0979 65.5972C88.6689 65.8298 88.2187 65.3649 88.2187 64.9634V62.169C88.2187 61.72 88.2239 60.9541 88.6741 60.2727L96.1048 49.6445H89.638C89.2409 49.6445 88.9231 49.3646 88.9231 48.9524ZM43.7726 66.1572H40.0069C39.6468 66.1308 39.3609 65.8614 39.3343 65.518V46.2426C39.3343 45.857 39.6574 45.5506 40.0599 45.5506H43.5713C43.9368 45.5664 44.2281 45.8464 44.2546 46.195V48.7148H44.3235C45.2396 46.2797 46.9609 45.144 49.2807 45.144C51.6374 45.144 53.1099 46.2797 54.1692 48.7148C55.0801 46.2797 57.1509 45.144 59.3701 45.144C60.9483 45.144 62.6749 45.7938 63.7288 47.2517C64.9205 48.8733 64.6769 51.2293 64.6769 53.2947L64.6715 65.46C64.6715 65.8456 64.3485 66.1573 63.946 66.1573H60.1857C59.8097 66.1309 59.5077 65.8299 59.5077 65.46V55.2438C59.5077 54.4303 59.5819 52.4018 59.4019 51.6307C59.1212 50.3365 58.2791 49.9719 57.1879 49.9719C56.277 49.9719 55.3237 50.5794 54.937 51.5514C54.5505 52.5235 54.5876 54.1503 54.5876 55.2438V65.4599C54.5876 65.8455 54.2644 66.1572 53.8619 66.1572H50.1016C49.7203 66.1308 49.4236 65.8298 49.4236 65.4599L49.4184 55.2438C49.4184 53.0938 49.7732 49.9298 47.0986 49.9298C44.3923 49.9298 44.4982 53.0146 44.4982 55.2438V65.4599C44.4982 65.8455 44.1751 66.1572 43.7726 66.1572ZM113.371 45.1439C118.958 45.1439 121.982 49.9297 121.982 56.015C121.982 61.8943 118.64 66.5587 113.37 66.5587C107.884 66.5587 104.897 61.7728 104.897 55.809C104.897 49.8082 107.921 45.1439 113.371 45.1439ZM113.402 49.0793C110.627 49.0793 110.452 52.8509 110.452 55.2015C110.452 57.5575 110.415 62.5863 113.371 62.5863C116.289 62.5863 116.426 58.5294 116.426 56.0573C116.426 54.4303 116.358 52.4863 115.865 50.944C115.441 49.6022 114.599 49.0793 113.402 49.0793H113.402ZM129.228 66.1572H125.478C125.102 66.1308 124.8 65.8298 124.8 65.4599L124.795 46.1792C124.826 45.8253 125.139 45.5506 125.52 45.5506H129.01C129.339 45.5664 129.609 45.7884 129.683 46.0894V49.037H129.752C130.806 46.4011 132.283 45.1439 134.884 45.1439C136.573 45.1439 138.221 45.7513 139.28 47.4153C140.265 48.9577 140.265 51.5514 140.265 53.4161V65.5497C140.223 65.8878 139.91 66.1572 139.539 66.1572H135.763C135.419 66.1308 135.133 65.8772 135.096 65.5497V55.08C135.096 52.9724 135.339 49.8873 132.739 49.8873C131.823 49.8873 130.981 50.5002 130.562 51.4299C130.033 52.6079 129.964 53.7806 129.964 55.0801V65.4599C129.958 65.8455 129.63 66.1572 129.228 66.1572ZM79.0562 56.95C79.0562 58.4132 79.0933 59.6335 78.3517 60.9328C77.7533 61.9894 76.8 62.639 75.746 62.639C74.3002 62.639 73.4528 61.5404 73.4528 59.9187C73.4528 56.7175 76.3287 56.1365 79.0562 56.1365V56.95ZM82.8535 66.1044C82.6047 66.3262 82.2445 66.3421 81.9639 66.1942C80.7139 65.1588 80.4862 64.6781 79.803 63.6903C77.7374 65.7927 76.2704 66.4213 73.5957 66.4213C70.4233 66.4213 67.9605 64.4721 67.9605 60.5685C67.9605 57.5205 69.6129 55.4445 71.9751 54.4303C74.0195 53.5323 76.8741 53.3738 79.0563 53.1255V52.6396C79.0563 51.7468 79.125 50.6903 78.5954 49.9191C78.14 49.2272 77.2607 48.9419 76.4822 48.9419C75.0469 48.9419 73.7705 49.6761 73.4581 51.1975C73.3945 51.5355 73.1455 51.8683 72.8013 51.8842L69.1522 51.4933C68.8451 51.4246 68.5008 51.1763 68.5908 50.7062C69.4276 46.2902 73.4316 44.959 77.012 44.959C78.8445 44.959 81.2383 45.445 82.6843 46.829C84.5166 48.5352 84.3419 50.8118 84.3419 53.2893V59.1422C84.3419 60.9013 85.0729 61.6723 85.7613 62.6233C85.9998 62.9613 86.0526 63.3681 85.7455 63.6216C84.9775 64.2608 83.611 65.4493 82.859 66.1149L82.8538 66.1044H82.8535ZM29.6899 56.95C29.6899 58.4132 29.727 59.6335 28.9854 60.9328C28.387 61.9894 27.439 62.639 26.3797 62.639C24.9339 62.639 24.0917 61.5404 24.0917 59.9187C24.0917 56.7175 26.9676 56.1365 29.6899 56.1365V56.95ZM33.4872 66.1044C33.2384 66.3262 32.8783 66.3421 32.5976 66.1942C31.3476 65.1588 31.1251 64.6781 30.4367 63.6903C28.3711 65.7927 26.9095 66.4213 24.2294 66.4213C21.0623 66.4213 18.5942 64.4721 18.5942 60.5685C18.5942 57.5205 20.252 55.4445 22.6088 54.4303C24.6532 53.5323 27.5078 53.3738 29.6899 53.1255V52.6396C29.6899 51.7468 29.7587 50.6903 29.2343 49.9191C28.7736 49.2272 27.8945 48.9419 27.1212 48.9419C25.6859 48.9419 24.4043 49.6761 24.0917 51.1975C24.0282 51.5355 23.7792 51.8683 23.4403 51.8842L19.7859 51.4933C19.4787 51.4246 19.1398 51.1763 19.2245 50.7062C20.0666 46.2902 24.0653 44.959 27.6456 44.959C29.4779 44.959 31.8719 45.445 33.3179 46.829C35.1502 48.5352 34.9755 50.8118 34.9755 53.2893V59.1422C34.9755 60.9013 35.7064 61.6723 36.3949 62.6233C36.6386 62.9613 36.6915 63.3681 36.3843 63.6216C35.6163 64.2608 34.25 65.4493 33.4979 66.1149L33.4873 66.1044" fill="black"/>
</svg>
