<svg width="159" height="106" viewBox="0 0 159 106" fill="none" xmlns="http://www.w3.org/2000/svg">
<path d="M26.1307 63.9674H21.546V52.5683H18.4229V48.857H21.5459V46.2161C21.5459 43.0867 22.9272 40.8423 27.4995 40.8423C28.4665 40.8423 29.9847 41.0367 29.9847 41.0367V44.4828H28.3901C26.7653 44.4828 26.1309 44.9758 26.1309 46.3386V48.857H29.9239L29.5861 52.5683H26.1308L26.1307 63.9674ZM36.6503 48.5604C36.5835 48.5604 36.5148 48.5628 36.4468 48.5645C32.1956 48.5645 30.2506 51.7539 30.2506 56.2813C30.2506 61.9846 32.7735 64.2672 36.48 64.2672C38.6006 64.2672 39.9938 63.377 40.8407 61.7157V63.9689H45.2014V48.8586H40.8407V51.1823C40.1492 49.6873 38.717 48.5781 36.6503 48.5604ZM37.7591 52.1309C39.5446 52.1309 40.6163 53.3731 40.6163 55.486L40.6205 57.644C40.6205 59.068 39.7353 60.7341 37.7591 60.7341C34.721 60.7341 34.8022 57.4622 34.8022 56.3724C34.8022 52.7068 36.4209 52.1309 37.7591 52.1309ZM46.9624 56.4145C46.9624 54.5784 46.8743 48.5702 54.7226 48.5702C57.873 48.5702 59.1885 49.5693 59.1885 49.5693L58.1312 52.8401C58.1312 52.8401 56.8174 52.1186 55.1055 52.1186C52.9128 52.1186 51.5137 53.3863 51.5137 55.6169L51.5162 57.2163C51.5162 59.3596 52.8661 60.7904 55.11 60.7904C56.6695 60.7904 58.107 60.062 58.107 60.062L59.1616 63.2645C59.1616 63.2645 57.9588 64.2699 54.7446 64.2699C47.2718 64.2699 46.9625 58.8794 46.9625 56.4145H46.9624ZM84.7567 48.5645C89.008 48.5645 90.9837 51.7539 90.9837 56.2813C90.9837 61.9846 88.4606 64.2672 84.7542 64.2672C82.6336 64.2672 81.066 63.3771 80.2191 61.7157V63.9689L75.9133 63.9672V41.3017L80.485 40.9041V50.9776C81.1448 49.2152 83.3132 48.5645 84.7569 48.5645H84.7567ZM83.4751 52.1309C81.6895 52.1309 80.485 53.3731 80.485 55.486L80.4807 57.644C80.4781 59.068 81.3149 60.7341 83.4751 60.7341C86.5132 60.7341 86.432 57.4622 86.432 56.3724C86.432 52.7068 84.8134 52.1309 83.4751 52.1309ZM67.1207 48.577C62.2989 48.577 59.7533 51.1991 59.7533 55.8587V56.7245C59.7533 62.7723 63.3281 64.3294 67.59 64.3294C71.7325 64.3294 73.6076 63.1737 73.6076 63.1737L72.7521 60.0962C72.7521 60.0962 70.5465 61.0322 68.1381 61.0322C65.6414 61.0322 64.5677 60.3976 64.2925 58.0045H73.9731V55.5356C73.9731 50.481 71.1161 48.5769 67.1206 48.5769L67.1207 48.577ZM67.2369 51.6586C68.906 51.6586 69.9875 52.6794 69.9281 55.0469H64.3008C64.3984 52.5552 65.5648 51.6588 67.2369 51.6588V51.6586ZM100.099 48.5563C95.1478 48.5563 92.541 51.3394 92.541 56.3268C92.541 63.1698 97.0345 64.2714 100.108 64.2714C104.607 64.2714 107.6 61.8556 107.6 56.3889C107.6 50.6991 104.234 48.5563 100.099 48.5563ZM100.037 52.1433C102.214 52.1433 103.077 53.7686 103.077 55.6186V57.2092C103.077 59.4503 101.87 60.7466 100.029 60.7466C98.3069 60.7466 97.0968 59.534 97.0968 57.2092V55.6186C97.0968 53.1391 98.5368 52.1433 100.037 52.1433ZM116.707 48.5563C111.756 48.5563 109.149 51.3394 109.149 56.3268C109.149 63.1698 113.642 64.2714 116.715 64.2714C121.214 64.2714 124.207 61.8556 124.207 56.3889C124.207 50.6991 120.842 48.5563 116.707 48.5563ZM116.645 52.1433C118.822 52.1433 119.685 53.7686 119.685 55.6186V57.2092C119.685 59.4503 118.478 60.7466 116.637 60.7466C114.915 60.7466 113.705 59.534 113.705 57.2092V55.6186C113.705 53.1391 115.145 52.1433 116.645 52.1433ZM125.935 63.9674V41.3017L130.52 40.9042V56.0961L135.069 48.8571H139.911L135.166 56.3546L140.094 63.9674H135.238L130.52 56.5753V63.9674H125.935Z" fill="#1877F2"/>
</svg>
