<svg width="159" height="106" viewBox="0 0 159 106" fill="none" xmlns="http://www.w3.org/2000/svg">
<path d="M70.3182 53.6345C70.3182 59.3817 65.8104 63.6167 60.2783 63.6167C54.7461 63.6167 50.2383 59.3817 50.2383 53.6345C50.2383 47.8468 54.7461 43.6523 60.2783 43.6523C65.8104 43.6523 70.3182 47.8468 70.3182 53.6345ZM65.9232 53.6345C65.9232 50.0431 63.3105 47.5858 60.2783 47.5858C57.246 47.5858 54.6333 50.0431 54.6333 53.6345C54.6333 57.1899 57.246 59.6832 60.2783 59.6832C63.3105 59.6832 65.9232 57.1854 65.9232 53.6345Z" fill="#EA4335"/>
<path d="M91.9784 53.6345C91.9784 59.3817 87.4705 63.6167 81.9384 63.6167C76.4063 63.6167 71.8984 59.3817 71.8984 53.6345C71.8984 47.8513 76.4063 43.6523 81.9384 43.6523C87.4705 43.6523 91.9784 47.8468 91.9784 53.6345ZM87.5833 53.6345C87.5833 50.0431 84.9707 47.5858 81.9384 47.5858C78.9061 47.5858 76.2935 50.0431 76.2935 53.6345C76.2935 57.1899 78.9061 59.6832 81.9384 59.6832C84.9707 59.6832 87.5833 57.1854 87.5833 53.6345Z" fill="#FBBC05"/>
<path d="M112.734 44.2554V62.1765C112.734 69.5484 108.375 72.5592 103.222 72.5592C98.3716 72.5592 95.4521 69.3233 94.351 66.677L98.1775 65.0883C98.8589 66.713 100.528 68.6303 103.218 68.6303C106.516 68.6303 108.56 66.6005 108.56 62.7796V61.3439H108.407C107.423 62.5545 105.528 63.6122 103.137 63.6122C98.1324 63.6122 93.5479 59.2647 93.5479 53.6705C93.5479 48.0359 98.1324 43.6523 103.137 43.6523C105.524 43.6523 107.419 44.71 108.407 45.8846H108.56V44.2599H112.734V44.2554ZM108.872 53.6705C108.872 50.1556 106.521 47.5858 103.529 47.5858C100.497 47.5858 97.9564 50.1556 97.9564 53.6705C97.9564 57.1494 100.497 59.6832 103.529 59.6832C106.521 59.6832 108.872 57.1494 108.872 53.6705Z" fill="#4285F4"/>
<path d="M119.616 33.7512V63.0046H115.329V33.7512H119.616Z" fill="#34A853"/>
<path d="M136.32 56.92L139.731 59.1883C138.63 60.813 135.977 63.6123 131.393 63.6123C125.707 63.6123 121.461 59.2288 121.461 53.6301C121.461 47.6939 125.743 43.6479 130.901 43.6479C136.094 43.6479 138.635 47.7704 139.465 49.9982L139.921 51.1323L126.542 56.659C127.566 58.6617 129.159 59.6833 131.393 59.6833C133.631 59.6833 135.183 58.5852 136.32 56.92ZM125.82 53.3286L134.763 49.6246C134.271 48.378 132.791 47.5094 131.05 47.5094C128.816 47.5094 125.707 49.4761 125.82 53.3286Z" fill="#EA4335"/>
<path d="M34.0121 51.0379V46.803H48.3207C48.4606 47.541 48.5328 48.4141 48.5328 49.3592C48.5328 52.5366 47.6619 56.4656 44.8552 59.2649C42.1253 62.1002 38.6372 63.6124 34.0166 63.6124C25.4522 63.6124 18.2505 56.6546 18.2505 48.1126C18.2505 39.5706 25.4522 32.6128 34.0166 32.6128C38.7545 32.6128 42.1298 34.467 44.6657 36.8838L41.6695 39.8721C39.851 38.1709 37.3873 36.8478 34.0121 36.8478C27.758 36.8478 22.8666 41.8749 22.8666 48.1126C22.8666 54.3503 27.758 59.3774 34.0121 59.3774C38.0687 59.3774 40.379 57.7527 41.859 56.2766C43.0593 55.0794 43.849 53.3692 44.1603 51.0334L34.0121 51.0379Z" fill="#4285F4"/>
</svg>
