<svg width="158" height="106" viewBox="0 0 158 106" fill="none" xmlns="http://www.w3.org/2000/svg">
<path d="M31.5394 38.7856C28.2302 38.7856 25.569 41.4607 25.5459 44.787V51.4396C24.9211 51.4861 24.2962 51.5094 23.6483 51.5094C23.0004 51.5094 22.3755 51.5327 21.7507 51.5792V44.787C21.7045 41.5072 19.0432 38.8554 15.7572 38.8554C12.4712 38.8554 9.80995 41.4839 9.76367 44.787V60.6975C9.80995 63.9773 12.4712 66.629 15.7572 66.629C19.0432 66.629 21.7045 64.0006 21.7507 60.6975V54.0449C22.3755 53.9983 23.0004 53.9751 23.6483 53.9751C24.2962 53.9751 24.9211 53.9518 25.5459 53.9053V60.6975C25.5921 63.9773 28.2534 66.629 31.5394 66.629C34.8254 66.629 37.4866 64.0006 37.5329 60.6975V44.787C37.5098 41.4839 34.8254 38.7856 31.5394 38.7856ZM15.7572 41.2513C17.7011 41.2513 19.2978 42.8331 19.2978 44.787V51.8351C17.5391 52.0909 15.8266 52.5794 14.2068 53.2772C13.5125 53.5796 12.8414 53.9751 12.2398 54.4635V44.787C12.2166 42.8331 13.8134 41.2513 15.7572 41.2513ZM19.2746 60.6975C19.2746 62.6514 17.7011 64.2564 15.7341 64.2564C13.7671 64.2564 12.1935 62.6747 12.1935 60.6975V59.0925C12.1935 57.6736 13.3043 56.3477 15.1555 55.5103C16.4746 54.952 17.8399 54.5333 19.2515 54.3007L19.2746 60.6975ZM31.5394 64.2332C29.5955 64.2332 27.9988 62.6514 27.9988 60.6975V53.6494C29.7575 53.3935 31.47 52.9051 33.0898 52.2072C33.7841 51.9048 34.4552 51.5094 35.0568 51.0209V60.6975C35.0568 62.6514 33.4832 64.2332 31.5394 64.2332ZM32.0948 49.9509C30.7757 50.5092 29.4104 50.9279 27.9988 51.1605V44.787C27.9988 42.8331 29.5724 41.228 31.5394 41.228C33.5064 41.228 35.08 42.8098 35.08 44.787V46.392C35.0568 47.7876 33.9461 49.1368 32.0948 49.9509Z" fill="url(#paint0_linear_3801_20537)"/>
<path d="M115.914 48.9274C113.276 48.9274 110.869 50.5325 109.874 52.9981C108.856 55.4638 109.411 58.2784 111.286 60.1625C113.16 62.0466 115.983 62.6049 118.413 61.5814C120.843 60.5579 122.463 58.1621 122.463 55.5103C122.463 51.8816 119.524 48.9274 115.914 48.9274ZM115.914 59.9532C114.132 59.9532 112.512 58.8831 111.818 57.2084C111.124 55.5568 111.517 53.6262 112.767 52.3701C114.039 51.0907 115.937 50.7185 117.58 51.3931C119.223 52.0909 120.311 53.6959 120.311 55.5103C120.334 57.976 118.344 59.9532 115.914 59.9532ZM76.0881 48.974C75.8104 48.974 75.5327 49.0903 75.3476 49.2764C75.1393 49.4857 75.0467 49.7416 75.0467 50.0207V50.6488C72.4318 48.2296 68.3821 48.3459 65.9291 50.9046C63.4531 53.4633 63.4531 57.534 65.9291 60.0927C68.4052 62.6514 72.4549 62.7677 75.0467 60.3486V60.9766C75.0467 61.5582 75.5327 62.0466 76.1112 62.0466C76.6897 62.0466 77.1757 61.5582 77.1757 60.9766V50.044C77.1757 49.7648 77.06 49.4857 76.8749 49.2996C76.6435 49.0903 76.3889 48.974 76.0881 48.974ZM70.6036 59.9532C68.8218 59.9532 67.2019 58.8599 66.5077 57.2084C65.8134 55.5568 66.2068 53.6262 67.4565 52.3701C68.7292 51.0907 70.6268 50.7185 72.2698 51.4164C73.9128 52.1142 75.0004 53.7192 75.0004 55.5336C75.0004 56.7199 74.5376 57.8364 73.7045 58.6738C72.8715 59.5112 71.7838 59.9532 70.6036 59.9532ZM87.3346 49.9975C87.3346 50.579 86.8487 51.0675 86.2701 51.0675C86.247 51.0675 86.2238 51.0675 86.2007 51.0675C86.1776 51.0675 86.1544 51.0675 86.1313 51.0675C84.9511 51.0675 83.8403 51.5327 83.0072 52.3701C82.1742 53.2075 81.7113 54.324 81.7113 55.5103C81.6651 55.7197 81.6882 59.1158 81.6882 61.1162C81.6419 61.3953 81.5031 61.6512 81.2717 61.814C81.0403 61.9769 80.7626 62.0466 80.4849 62.0234C79.9526 61.9303 79.5824 61.4651 79.5824 60.9069V50.0207C79.5824 49.7183 79.6981 49.4392 79.9063 49.2531C80.1146 49.0438 80.3923 48.9507 80.6931 48.9507C81.2717 48.9972 81.7113 49.4857 81.6882 50.0672V50.6255C82.8915 49.509 84.4651 48.8809 86.1081 48.8809H86.247C86.5247 48.8809 86.8024 48.9972 86.9875 49.1833C87.2421 49.4392 87.3346 49.7183 87.3346 49.9975ZM135.237 54.4403V60.9766C135.237 61.5582 134.751 62.0466 134.172 62.0466C133.594 62.0466 133.108 61.5582 133.108 60.9766V59.9066V54.4403C133.108 53.5099 132.714 52.6259 132.043 51.9979C131.372 51.3698 130.47 51.0442 129.544 51.114C127.785 51.2303 126.466 52.7888 126.466 54.5566V55.8592V59.9066V60.9766C126.466 61.5582 125.98 62.0466 125.402 62.0466C124.823 62.0466 124.337 61.5582 124.337 60.9766V50.044C124.337 49.4624 124.823 48.974 125.402 48.974C125.98 48.974 126.466 49.4624 126.466 50.044V50.137C127.345 49.4392 128.41 49.0205 129.521 48.974C131.002 48.9042 132.46 49.4392 133.547 50.4627C134.635 51.4862 135.237 52.9516 135.237 54.4403ZM61.8795 44.5079V60.9999C61.8563 61.5582 61.3935 62.0234 60.8381 62.0234C60.2827 62.0234 59.8199 61.5814 59.7968 60.9999V53.5331H48.8742V61.0232C48.8511 61.5814 48.3882 62.0466 47.8329 62.0466C47.2775 62.0466 46.8146 61.6047 46.7915 61.0232V44.5079C46.8146 43.9496 47.2775 43.4844 47.8329 43.4844C48.3882 43.4844 48.8511 43.9263 48.8742 44.5079V51.6955H59.7968V44.5079C59.8199 43.9496 60.2827 43.4844 60.8381 43.4844C61.3935 43.4844 61.8563 43.9263 61.8795 44.5079ZM107.444 54.952V60.9766C107.444 61.5582 106.958 62.0466 106.38 62.0466C105.801 62.0466 105.315 61.5582 105.315 60.9766V55.487V54.0449C105.338 52.9749 104.783 51.9514 103.857 51.4164C102.932 50.8581 101.775 50.8581 100.849 51.4164C99.9233 51.9746 99.368 52.9749 99.3911 54.0449V60.9766C99.3911 61.5582 98.9051 62.0466 98.3266 62.0466C97.7481 62.0466 97.2621 61.5582 97.2621 60.9766V55.487V54.0449C97.2853 52.9749 96.7299 51.9514 95.8042 51.4164C94.8786 50.8581 93.7215 50.8581 92.7959 51.4164C91.8703 51.9746 91.3149 52.9749 91.338 54.0449V60.9766C91.338 61.5582 90.8521 62.0466 90.2735 62.0466C89.695 62.0466 89.209 61.5582 89.209 60.9766V50.0672C89.209 49.509 89.6256 49.0205 90.181 48.9972C90.7364 48.9507 91.2455 49.3694 91.3149 49.9277C93.5364 48.2994 96.6373 48.7646 98.3035 50.9512C99.6225 49.2066 101.913 48.532 103.973 49.2298C106.033 49.9277 107.421 51.8816 107.421 54.0681L107.444 54.952ZM148.45 50.5325L141.3 66.0941C141.022 66.5825 140.42 66.7686 139.911 66.536C139.402 66.3034 139.171 65.7219 139.356 65.1869L141.276 60.9999L136.463 50.5325C136.255 50.1835 136.255 49.7416 136.486 49.3927C136.718 49.0437 137.111 48.8577 137.528 48.9042C137.944 48.9507 138.291 49.2298 138.407 49.6253L142.457 58.4179L146.506 49.6253C146.645 49.2298 146.992 48.9507 147.386 48.9042C147.802 48.8577 148.196 49.0437 148.427 49.3927C148.658 49.7183 148.658 50.1603 148.45 50.5325Z" fill="#555B68"/>
<defs>
<linearGradient id="paint0_linear_3801_20537" x1="11.5184" y1="64.9356" x2="35.8283" y2="40.618" gradientUnits="userSpaceOnUse">
<stop stop-color="#00AEE9"/>
<stop offset="1" stop-color="#69FABD"/>
</linearGradient>
</defs>
</svg>
