<svg width="159" height="106" viewBox="0 0 159 106" fill="none" xmlns="http://www.w3.org/2000/svg">
<path d="M123.607 49.7761C123.051 49.7761 122.593 49.9657 122.225 50.3437C121.857 50.722 121.677 51.1484 121.677 51.631C121.677 52.2433 121.947 52.9238 122.485 53.6796C121.591 54.2832 120.981 54.7921 120.665 55.1884C120.35 55.5856 120.2 56.0714 120.2 56.6556C120.2 57.1668 120.33 57.6088 120.583 57.9983C120.836 58.3883 121.152 58.6963 121.554 58.9119C121.957 59.1275 122.385 59.2441 122.827 59.2441C123.728 59.2441 124.589 58.7836 125.399 57.8737C126.08 58.7836 126.869 59.2441 127.766 59.2441C128.18 59.2441 128.546 59.1187 128.861 58.8842C129.175 58.6502 129.379 58.3376 129.476 57.9568H129.148C128.914 58.3749 128.581 58.5935 128.149 58.5935C127.832 58.5935 127.541 58.4942 127.26 58.3028C126.98 58.1119 126.589 57.659 126.097 56.9463C126.303 56.6687 126.534 56.2377 126.781 55.6452C127.075 54.9277 127.365 54.4371 127.643 54.1779C127.921 53.9182 128.242 53.7398 128.614 53.638V53.3058H125.659V53.638C126.383 53.7214 126.74 54.0192 126.74 54.5517C126.74 54.7735 126.659 55.0837 126.507 55.479C126.356 55.8749 126.153 56.2573 125.892 56.628C125.133 55.5392 124.362 54.4595 123.579 53.3889C124.9 52.7169 125.55 52.0272 125.55 51.3126C125.55 50.8533 125.361 50.4743 124.961 50.1914C124.561 49.9084 124.103 49.7761 123.607 49.7761H123.607ZM136.167 49.8177C135.363 49.8177 134.623 50.0034 133.951 50.3852C133.278 50.7669 132.753 51.3549 132.377 52.1431C132.002 52.9309 131.816 53.77 131.816 54.6623C131.816 56.0213 132.219 57.1169 133.034 57.9429C133.848 58.7689 134.91 59.1749 136.195 59.1749C137.41 59.1749 138.409 58.7251 139.191 57.8322C139.398 58.1078 139.535 58.4264 139.615 58.7873H139.916V55.6175H139.615C139.562 56.1412 139.386 56.6898 139.095 57.2508C138.805 57.8124 138.416 58.2063 137.919 58.4412C137.419 58.6762 136.931 58.7873 136.454 58.7873C135.563 58.7873 134.81 58.43 134.211 57.7076C133.612 56.9848 133.321 55.9487 133.321 54.5932C133.321 53.1616 133.594 52.0537 134.142 51.2849C134.691 50.515 135.427 50.136 136.359 50.136C137.119 50.136 137.805 50.3772 138.411 50.8558C139.017 51.3345 139.418 52.1758 139.615 53.3889H139.916L139.834 49.9699H139.533C139.492 50.3734 139.384 50.77 139.191 51.1465C138.925 50.8108 138.512 50.5091 137.973 50.2329C137.433 49.9568 136.831 49.8177 136.167 49.8177H136.167ZM83.6268 49.8454C82.8228 49.8454 82.0831 50.0311 81.4103 50.4129C80.7369 50.7946 80.2127 51.3826 79.8368 52.1708C79.4609 52.9586 79.2758 53.7972 79.2758 54.69C79.2758 56.0485 79.6785 57.1441 80.4936 57.9706C81.3077 58.7966 82.3552 59.2025 83.6405 59.2026C84.855 59.2026 85.8554 58.7671 86.637 57.8737C86.8448 58.1504 86.9958 58.4674 87.0748 58.8288H87.3758V55.6452H87.0748C87.0221 56.1693 86.846 56.7175 86.5549 57.2785C86.2646 57.84 85.8767 58.2339 85.3782 58.4689C84.8792 58.7039 84.3906 58.8288 83.9141 58.8288C83.0225 58.8288 82.2693 58.4572 81.6702 57.7353C81.0711 57.0125 80.7809 55.9769 80.7809 54.6208C80.7809 53.1892 81.053 52.0953 81.6018 51.3264C82.1506 50.5571 82.8874 50.1637 83.8184 50.1637C84.5798 50.1637 85.2654 50.4048 85.8707 50.8835C86.4765 51.3621 86.8775 52.2035 87.0748 53.4166H87.3758L87.2937 50.0114H86.9927C86.9524 50.415 86.8299 50.7977 86.6369 51.1741C86.3707 50.8384 85.9731 50.5363 85.4329 50.2606C84.8942 49.9844 84.291 49.8453 83.6268 49.8453L83.6268 49.8454ZM18.5398 49.873C18.0365 49.873 17.332 49.893 16.4327 49.9284L15.3107 49.9699V50.2744H15.4749C15.9304 50.2744 16.2273 50.3191 16.3643 50.399C16.5017 50.4794 16.5845 50.6188 16.6242 50.8281C16.664 51.0374 16.6926 51.5063 16.6927 52.2262V56.6556C16.6927 57.4119 16.664 57.9022 16.6242 58.109C16.5845 58.3159 16.4986 58.468 16.3506 58.5658C16.2026 58.6637 15.9279 58.7042 15.5433 58.7042H15.3107V59.0088H19.4291V58.7042H19.1281C18.7259 58.7042 18.4532 58.6595 18.3072 58.552C18.1611 58.4449 18.0666 58.2746 18.0335 58.0537C18 57.8327 17.9925 57.3698 17.9925 56.6556V54.7454H18.9776C20.0034 54.7454 20.7187 54.65 21.1258 54.4547C21.5333 54.259 21.8378 53.9744 22.0562 53.5965C22.274 53.2182 22.3845 52.7752 22.3845 52.2815C22.3845 51.7128 22.2255 51.2432 21.9056 50.8697C21.5858 50.4961 21.1747 50.2413 20.6742 50.0945C20.1738 49.9477 19.4654 49.873 18.5398 49.873ZM10.0704 49.9699V50.2744H10.2756C10.7291 50.2744 11.0172 50.3191 11.1513 50.399C11.2858 50.4789 11.3833 50.6198 11.4249 50.8281C11.4666 51.0369 11.4797 51.5072 11.4797 52.2262V55.2991C11.4797 56.3063 11.4543 57.0353 11.3839 57.4723C11.3145 57.9103 11.096 58.2856 10.7545 58.6074C10.4131 58.929 9.99471 59.0918 9.49575 59.0918C9.25056 59.0918 9.04666 59.0467 8.88002 58.9672C8.71434 58.8878 8.63374 58.7765 8.63374 58.635C8.63374 58.5817 8.65379 58.5058 8.70217 58.3997C8.75532 58.2801 8.78422 58.1646 8.78422 58.0537C8.78422 57.8676 8.7234 57.7114 8.59271 57.583C8.46241 57.4541 8.29454 57.3893 8.10015 57.3893C7.90999 57.3893 7.75198 57.4673 7.62124 57.6107C7.49098 57.7541 7.42969 57.927 7.42969 58.1367C7.42969 58.4846 7.61349 58.784 7.97698 59.0365C8.34139 59.2884 8.84836 59.4102 9.52311 59.4102C10.1236 59.4102 10.6568 59.3101 11.1103 59.1057C11.5637 58.9007 11.9333 58.613 12.2049 58.2336C12.4764 57.8538 12.6375 57.4572 12.6974 57.057C12.7563 56.6574 12.7795 56.0779 12.7795 55.3129V52.2261C12.7795 51.4752 12.8039 51.0005 12.8479 50.8004C12.8915 50.6004 12.9856 50.4579 13.1216 50.3852C13.2571 50.3111 13.5449 50.2744 13.9836 50.2744H14.2025V49.9699H10.0704ZM23.5885 49.9699V50.2744H23.8349C24.2903 50.2744 24.5755 50.3191 24.7105 50.399C24.8456 50.4794 24.9425 50.6188 24.9842 50.8281C25.0263 51.0374 25.0389 51.5057 25.0389 52.2262V56.1573C25.0389 56.9044 25.0236 57.4176 24.9705 57.6938C24.9178 57.9694 24.7603 58.2118 24.5189 58.3997C24.2781 58.5887 23.9736 58.6824 23.5885 58.7042V59.0088H26.8039V58.7042C26.3906 58.6776 26.0746 58.5697 25.8462 58.372C25.6167 58.1744 25.4793 57.9425 25.4357 57.68C25.3916 57.4173 25.3673 56.9236 25.3673 56.1988V50.9112L28.9247 59.0088H29.2394L32.7558 50.9112V56.6695C32.7558 57.4257 32.7427 57.9022 32.7011 58.109C32.6594 58.3159 32.5617 58.4675 32.4137 58.5658C32.2653 58.6637 32.0008 58.7042 31.6201 58.7042H31.3054V59.0088H35.6017V58.7042H35.2049C34.7998 58.7042 34.5267 58.659 34.384 58.552C34.2403 58.4454 34.1453 58.2875 34.1103 58.0675C34.0748 57.8476 34.0556 57.3673 34.0556 56.6556V52.2262C34.0556 51.4747 34.077 51.001 34.124 50.8004C34.1695 50.6004 34.2611 50.4583 34.3977 50.3852C34.5341 50.312 34.8332 50.2744 35.2733 50.2744H35.6017V49.9699H32.8378L29.5951 57.4585L26.3114 49.9699L23.5885 49.9699ZM123.634 50.1222C123.97 50.1222 124.235 50.2371 124.441 50.4682C124.646 50.6998 124.756 50.993 124.756 51.368C124.756 51.9968 124.29 52.5848 123.374 53.1259C122.811 52.3445 122.539 51.7246 122.539 51.2711C122.539 50.9426 122.639 50.6763 122.84 50.4544C123.041 50.233 123.301 50.1222 123.634 50.1222V50.1222ZM18.6766 50.1914C19.4917 50.1914 20.0786 50.3671 20.4416 50.7174C20.8046 51.0672 20.9889 51.6156 20.9889 52.3646C20.9889 52.8554 20.8854 53.2761 20.6742 53.6103C20.4626 53.9446 20.1972 54.1553 19.8806 54.2609C19.5637 54.3656 19.1503 54.4271 18.6355 54.4271H17.9925V50.2191C18.151 50.2011 18.3778 50.1914 18.6766 50.1914ZM107.147 51.9078C106.624 51.9078 106.202 52.0624 105.861 52.3923C105.52 52.7222 105.341 53.1424 105.341 53.638C105.341 53.9632 105.43 54.2648 105.587 54.5517C105.744 54.8389 105.95 55.0788 106.23 55.2576C106.51 55.4373 106.938 55.6416 107.489 55.8805C108.107 56.1474 108.529 56.3959 108.761 56.6279C108.994 56.8634 109.103 57.1517 109.103 57.5C109.103 57.845 108.971 58.1626 108.707 58.4412C108.441 58.7199 108.068 58.8565 107.585 58.8565C106.511 58.8565 105.833 58.1258 105.546 56.6695H105.286V58.9119H105.546C105.6 58.6207 105.68 58.394 105.792 58.2336C106.297 58.8179 106.926 59.1057 107.68 59.1057C108.337 59.1057 108.861 58.9241 109.254 58.552C109.647 58.1789 109.842 57.6935 109.842 57.0985C109.842 56.7226 109.758 56.3892 109.596 56.1019C109.433 55.8152 109.223 55.5998 108.953 55.4375C108.684 55.2752 108.245 55.0548 107.653 54.7869C107.034 54.5045 106.618 54.2495 106.381 54.0256C106.139 53.8057 106.011 53.5411 106.011 53.2228C106.011 52.9593 106.106 52.7115 106.299 52.4892C106.491 52.2678 106.79 52.157 107.202 52.157C107.634 52.157 108.023 52.3129 108.351 52.6138C108.68 52.9156 108.906 53.3205 109.035 53.8457H109.254V52.0324H109.035C109.015 52.2509 108.931 52.454 108.775 52.6414C108.504 52.3411 108.239 52.1417 107.981 52.0462C107.723 51.9503 107.439 51.9078 107.147 51.9078ZM39.8158 51.9217C38.7566 51.9217 37.8835 52.2409 37.1752 52.8906C36.4669 53.5398 36.1079 54.4059 36.1079 55.479C36.1079 56.5798 36.4633 57.4567 37.1615 58.1229C37.8597 58.79 38.7533 59.1333 39.8433 59.1333C40.9624 59.1333 41.8656 58.79 42.5523 58.1229C43.2386 57.4567 43.5785 56.5971 43.5785 55.5206C43.5785 54.4096 43.214 53.5335 42.4976 52.8906C41.7807 52.2482 40.8847 51.9216 39.8158 51.9216V51.9217ZM55.7011 51.9217C54.6313 51.9217 53.7929 52.2944 53.1698 53.0428C52.5468 53.7908 52.2258 54.6649 52.2258 55.659C52.2258 56.6638 52.5596 57.496 53.2109 58.1506C53.8617 58.8051 54.6779 59.1333 55.6601 59.1333C56.149 59.1333 56.673 59.0187 57.2472 58.8011C57.6686 58.6412 58.0138 58.5658 58.2734 58.5658C58.3376 58.5658 58.4123 58.5656 58.4923 58.5797V57.846C58.4923 57.2453 58.5097 56.867 58.547 56.711C58.5839 56.5555 58.6628 56.4318 58.7796 56.3649C58.896 56.2981 59.1225 56.268 59.4501 56.268V56.0327H56.481V56.2681H56.6452C56.9177 56.2681 57.1041 56.2942 57.2062 56.3373C57.3082 56.3794 57.3757 56.4619 57.4251 56.5864C57.4744 56.7114 57.5072 56.9603 57.5072 57.3339C57.5072 57.6522 57.4478 57.9146 57.343 58.1229C57.2391 58.3317 57.0542 58.5035 56.7683 58.6489C56.482 58.7952 56.1602 58.8703 55.8106 58.8703C55.1277 58.8703 54.5473 58.6231 54.0866 58.109C53.6254 57.596 53.4025 56.7115 53.4025 55.479C53.4025 54.2431 53.6483 53.3894 54.1276 52.9044C54.607 52.4199 55.165 52.1708 55.8106 52.1708C56.435 52.1708 56.9605 52.379 57.3977 52.7937C57.8354 53.2089 58.1073 53.7717 58.205 54.4824H58.4376V52.157H58.2049C58.1743 52.4375 58.0991 52.7032 57.986 52.946C57.3827 52.2643 56.6215 51.9216 55.7011 51.9216V51.9217ZM145.307 51.9217C144.248 51.9217 143.375 52.2409 142.666 52.8906C141.958 53.5398 141.599 54.4059 141.599 55.479C141.599 56.5798 141.941 57.4567 142.639 58.1229C143.337 58.79 144.231 59.1333 145.321 59.1333C146.441 59.1333 147.343 58.79 148.03 58.1229C148.716 57.4567 149.07 56.5971 149.07 55.5206C149.07 54.4096 148.705 53.5335 147.989 52.8906C147.272 52.2482 146.375 51.9216 145.307 51.9216L145.307 51.9217ZM100.785 51.9355L98.7869 56.7525C98.6432 57.0989 98.548 57.2969 98.5269 57.3477C98.3148 57.8927 98.1427 58.2445 97.9933 58.4136C97.8439 58.5831 97.6152 58.6978 97.3092 58.7458V58.9811H99.3752V58.7458C99.1525 58.7458 98.9687 58.6877 98.8279 58.5797C98.6886 58.4721 98.6227 58.3179 98.6227 58.109C98.6227 57.9138 98.7561 57.5032 99.0195 56.8633L99.1974 56.4203H101.797L102.331 57.7076C102.486 58.0806 102.563 58.2969 102.563 58.3721C102.563 58.5189 102.501 58.6272 102.385 58.6765C102.268 58.726 102.045 58.7458 101.715 58.7458V58.9811H104.41V58.7458C104.169 58.722 103.996 58.6603 103.877 58.5658C103.757 58.4723 103.66 58.342 103.589 58.1782L103.275 57.4584L100.99 51.9355H100.785ZM47.0402 51.9632C46.6556 51.9632 46.1345 51.9756 45.4803 52.0047L44.5089 52.0462V52.2816H44.6184C44.9723 52.2816 45.2094 52.3169 45.3162 52.3784C45.422 52.44 45.4908 52.5503 45.5214 52.7106C45.5525 52.871 45.5624 53.2232 45.5624 53.7765V57.1955C45.5624 57.7763 45.552 58.1435 45.5214 58.3028C45.4912 58.4618 45.416 58.5743 45.3025 58.6489C45.1895 58.724 44.9813 58.7596 44.6868 58.7596H44.4678V58.9949H47.7653V58.7596H47.4369C47.1252 58.7596 46.9035 58.7169 46.7938 58.635C46.6833 58.5537 46.6135 58.4299 46.5886 58.2613C46.5632 58.0942 46.5613 57.7386 46.5613 57.1955V55.6728H46.8349C47.0193 55.6728 47.144 55.7073 47.2317 55.7698C47.3184 55.8327 47.4788 55.9941 47.7106 56.2819C47.9419 56.5682 48.1655 56.8691 48.3811 57.1816C49.0519 58.1593 49.5604 58.7619 49.8861 58.9949H51.7195V58.7596C51.3177 58.746 50.9747 58.632 50.6797 58.4136C50.3856 58.1941 49.9801 57.7328 49.4619 57.0294C48.826 56.1602 48.3527 55.6596 48.0663 55.5206C48.7023 55.4421 49.1891 55.2471 49.5167 54.9254C49.8452 54.6037 50.0092 54.2042 50.0092 53.7488C50.0092 53.3588 49.879 53.0327 49.6261 52.7521C49.3733 52.4707 49.0499 52.2667 48.641 52.1431C48.231 52.02 47.6938 51.9632 47.0401 51.9632H47.0402ZM63.418 51.9632L61.4066 56.7664C61.2625 57.1123 61.1829 57.3107 61.1603 57.3616C60.9497 57.9066 60.763 58.2722 60.613 58.4412C60.4632 58.6108 60.2482 58.7117 59.9426 58.7596V58.9949H62.0087V58.7596C61.785 58.7596 61.6012 58.7154 61.4614 58.6074C61.3211 58.4993 61.2561 58.3317 61.2561 58.1229C61.2561 57.9277 61.3891 57.5171 61.6529 56.8771L61.8308 56.4342H64.4305L64.9504 57.7215C65.1055 58.0945 65.1967 58.3246 65.1967 58.3997C65.1967 58.5465 65.1356 58.641 65.0188 58.6904C64.9024 58.7398 64.6788 58.7596 64.3484 58.7596V58.9949H67.0438V58.7596C66.8039 58.7354 66.6299 58.688 66.5102 58.5935C66.3905 58.5 66.2932 58.3697 66.2228 58.2059L65.9081 57.4723L63.6232 51.9632H63.418ZM88.9766 52.0324V52.2677H89.1134C89.464 52.2677 89.68 52.3036 89.7839 52.3646C89.8873 52.4261 89.958 52.5359 89.9891 52.6968C90.0217 52.8572 90.0438 53.2098 90.0438 53.7626V57.1678C90.0438 57.7491 90.0217 58.1296 89.9891 58.289C89.958 58.4479 89.8837 58.5604 89.7702 58.635C89.6562 58.7101 89.4505 58.7458 89.1545 58.7458H88.9766V58.9811H92.0962V58.7458H91.9183C91.6071 58.7458 91.3863 58.7031 91.2753 58.6212C91.1642 58.5388 91.0968 58.4165 91.07 58.2475C91.0427 58.0779 91.029 57.7162 91.029 57.1678V55.4929H94.6138V57.1678C94.6138 57.7501 94.6033 58.1158 94.5727 58.2751C94.5426 58.4345 94.4654 58.5595 94.3538 58.635C94.2413 58.7101 94.0401 58.7458 93.7518 58.7458H93.5192V58.9811H96.6251V58.7458H96.4746C96.1681 58.7458 95.9568 58.7031 95.8452 58.6212C95.7341 58.5393 95.6653 58.4165 95.6399 58.2475C95.6141 58.0784 95.5989 57.7147 95.5989 57.1678V53.7626C95.5989 53.1861 95.6187 52.8227 95.6536 52.6691C95.6895 52.5155 95.7549 52.4064 95.8589 52.3507C95.9637 52.294 96.1922 52.2677 96.5293 52.2677H96.6251V52.0324H93.5192V52.2677H93.6971C94.0423 52.2677 94.265 52.3036 94.3675 52.3646C94.4699 52.4261 94.5425 52.5359 94.5727 52.6968C94.6034 52.8572 94.6138 53.2098 94.6138 53.7626V55.1468H91.029V53.7626C91.029 53.1861 91.0478 52.8227 91.0837 52.6691C91.1196 52.5155 91.1963 52.4064 91.3026 52.3507C91.4085 52.294 91.6208 52.2677 91.9594 52.2677H92.0962V52.0324L88.9766 52.0324ZM111.142 52.0324V52.2677C111.476 52.2677 111.694 52.2977 111.799 52.3646C111.903 52.4305 111.975 52.5435 112.004 52.7106C112.034 52.8778 112.045 53.2336 112.045 53.7626V57.1678C112.045 57.7487 112.031 58.1194 112.004 58.2613C111.977 58.4028 111.912 58.5148 111.813 58.6074C111.713 58.6994 111.508 58.7458 111.169 58.7458H111.019V58.9811H116.683L116.834 56.8217H116.601C116.48 57.342 116.305 57.7482 116.095 58.0398C115.885 58.3325 115.67 58.5226 115.438 58.6074C115.205 58.6921 114.91 58.732 114.549 58.732H114.043C113.584 58.732 113.299 58.6553 113.194 58.5105C113.09 58.3656 113.044 57.8797 113.044 57.057V55.4098H113.783C114.075 55.4098 114.289 55.4393 114.412 55.479C114.535 55.5183 114.622 55.5969 114.686 55.7282C114.749 55.8605 114.782 56.1177 114.782 56.5034H115.014V54.1363H114.782C114.782 54.477 114.755 54.7112 114.713 54.8285C114.671 54.9462 114.585 55.0334 114.453 55.0915C114.321 55.1496 114.087 55.1745 113.755 55.1745H113.044V52.2677H113.988C114.464 52.2677 114.799 52.2979 115.014 52.3507C115.229 52.404 115.419 52.522 115.575 52.7245C115.73 52.9275 115.865 53.2786 115.972 53.7626H116.205L116.04 52.0324L111.142 52.0324ZM67.9331 52.0462V52.2816C68.3038 52.2816 68.5373 52.3132 68.6446 52.3646C68.7519 52.4159 68.8279 52.5299 68.8772 52.7106C68.9265 52.8914 68.9593 53.2431 68.9593 53.7765V57.4723C68.9593 57.8923 68.9362 58.1484 68.9046 58.2613C68.8725 58.3737 68.775 58.4818 68.6036 58.5797C68.4326 58.6776 68.1899 58.7354 67.8647 58.7596V58.9949H70.4097V58.7596C70.0467 58.7596 69.7839 58.7134 69.6024 58.6074C69.4209 58.5018 69.2996 58.3882 69.2603 58.2613C69.2215 58.1349 69.2056 57.872 69.2056 57.4723V52.6414L74.0902 59.161H74.2955V53.4027C74.2955 53.1053 74.3188 52.9049 74.3639 52.7798C74.4089 52.6554 74.5138 52.5363 74.6786 52.4476C74.8442 52.359 75.0753 52.3057 75.3627 52.2815V52.0462H72.8862V52.2816C73.1563 52.2816 73.3783 52.3205 73.5703 52.3923C73.7628 52.464 73.8911 52.5604 73.9534 52.683C74.0156 52.8065 74.0492 53.0264 74.0492 53.3336V57.4862L69.9855 52.0462H67.9331ZM39.8295 52.1708C40.6662 52.1708 41.305 52.4668 41.7451 53.0428C42.1852 53.6189 42.4018 54.4397 42.4018 55.5206C42.4018 56.6319 42.1777 57.465 41.7314 58.026C41.2841 58.587 40.6812 58.8704 39.9116 58.8704C39.0339 58.8704 38.38 58.587 37.9414 58.026C37.5027 57.465 37.2846 56.6387 37.2846 55.5206C37.2846 54.4194 37.5027 53.5776 37.9414 53.0152C38.38 52.4527 39.0054 52.1708 39.8295 52.1708V52.1708ZM145.321 52.1708C146.157 52.1708 146.796 52.4668 147.236 53.0428C147.677 53.6189 147.893 54.4397 147.893 55.5206C147.893 56.6319 147.669 57.465 147.222 58.026C146.775 58.587 146.172 58.8704 145.403 58.8704C144.525 58.8704 143.857 58.587 143.419 58.026C142.98 57.465 142.762 56.6387 142.762 55.5206C142.762 54.4194 142.98 53.5776 143.419 53.0152C143.857 52.4527 144.496 52.1708 145.321 52.1708V52.1708ZM46.9854 52.2123C47.7847 52.2123 48.3067 52.3612 48.5452 52.6553C48.7832 52.9494 48.9009 53.343 48.9009 53.8319C48.9009 54.1128 48.8614 54.3459 48.7915 54.5378C48.7211 54.7291 48.6258 54.8907 48.5042 55.0084C48.3825 55.1266 48.2221 55.2104 48.0253 55.2714C47.8289 55.333 47.5942 55.3681 47.3275 55.3822C47.0608 55.3957 46.8113 55.4035 46.5613 55.4098V52.2262C46.7212 52.2121 46.8619 52.2123 46.9854 52.2123H46.9854ZM100.497 53.2228L101.701 56.1573H99.3068L100.497 53.2228ZM63.1306 53.2366L64.3347 56.185H61.9266L63.1306 53.2366ZM122.69 53.9703C123.389 54.8937 124.228 56.0938 125.194 57.583C124.649 58.224 124.056 58.552 123.415 58.552C122.838 58.552 122.312 58.2999 121.855 57.7906C121.399 57.282 121.171 56.7295 121.171 56.1573C121.171 55.7862 121.303 55.4062 121.568 55.0084C121.831 54.6107 122.208 54.2677 122.69 53.9702V53.9703ZM150.397 57.6661C150.19 57.6661 150.01 57.7383 149.863 57.8876C149.715 58.0368 149.644 58.2191 149.644 58.4274C149.644 58.6318 149.718 58.8132 149.863 58.9672C150.008 59.1213 150.187 59.1887 150.397 59.1887C150.603 59.1887 150.781 59.116 150.93 58.9672C151.08 58.8175 151.149 58.6406 151.149 58.4274C151.149 58.2191 151.077 58.0368 150.93 57.8876C150.782 57.7383 150.608 57.6661 150.397 57.6661H150.397Z" fill="black"/>
</svg>
