<svg width="160" height="106" viewBox="0 0 160 106" fill="none" xmlns="http://www.w3.org/2000/svg">
<g clip-path="url(#clip0_3801_20543)">
<path d="M60.6773 0.802734L45.8218 15.667V53.8166L58.7093 66.8308L89.5632 66.767V80.0364H73.7553V71.4241H45.8218V92.2851L58.5823 105.172H101.562L114.069 92.6041V53.6252L101.118 41.0575H72.803V26.8312H88.4204V36.6557H114.069V15.4756L99.7843 0.802734H60.6773Z" fill="#A90533"/>
<path d="M47.5347 16.4327V53.1788L59.4064 65.1723C59.4064 65.1723 88.1653 65.1723 91.2761 65.1723C91.2761 67.7879 91.2761 79.271 91.2761 81.8866C88.6097 81.8866 74.6429 81.8866 71.9765 81.8866C71.9765 79.6538 71.9765 73.2743 71.9765 73.2743H47.5347V91.6473L59.4699 103.768H100.608L112.48 91.8387V54.5822L100.354 42.8439C100.354 42.8439 74.135 42.8439 71.0242 42.8439C71.0242 40.1645 71.0242 27.852 71.0242 25.1726H90.1333V34.9333H112.48V16.4327L99.0848 2.58911H61.3745L47.5347 16.4327Z" fill="white"/>
<path d="M62.0731 4.43921L49.249 17.2621V52.5408L60.1685 63.5136H92.9904V83.6729H70.2627V75.0606H49.249V90.9456L60.1685 102.11H99.9103L110.766 91.137V55.4116L99.5929 44.694H69.3104V23.5778H91.8477V33.3385H110.766V17.2621L98.3867 4.43921H62.0731Z" fill="#A90533"/>
<path d="M86.6438 58.665C86.6438 58.665 86.6438 58.7292 86.5796 58.7934C86.6438 58.7292 86.6438 58.7292 86.6438 58.665Z" fill="#B30838"/>
<path d="M80.9921 2.65332C80.2938 2.71712 79.9129 2.9723 79.7224 3.22748C79.532 3.48266 79.4685 3.73784 79.4685 3.99302C79.4685 4.18441 79.532 4.37579 79.532 4.56718C79.278 5.07754 78.8971 5.90688 78.8336 5.90688H78.5162C77.3735 5.90688 77.183 6.41724 76.9926 6.86381C76.8656 7.11899 76.8021 7.37417 76.8021 7.62935C76.8021 8.3311 77.183 9.28803 77.31 9.47941C77.31 9.47941 77.5004 9.73459 77.5639 9.86218C75.7863 11.0743 75.8498 12.2226 75.8498 13.0519C75.8498 13.2433 75.9133 13.4347 76.0403 13.6899C76.1673 13.8813 76.2942 14.0727 76.4847 14.2003C76.4212 14.2641 76.3577 14.3279 76.2942 14.3916C74.8975 15.4762 73.3739 16.4331 73.3104 17.709C73.3104 17.8366 73.5009 18.5383 73.6278 18.7297C72.6756 19.1763 71.6598 20.0694 71.6598 21.1539C71.6598 21.2177 71.6598 21.2177 71.6598 21.2815C71.7868 22.6212 73.3739 23.1316 73.8818 23.2592L74.3262 23.3868L74.7071 23.1954C76.1038 22.3661 76.9926 22.1747 77.437 22.1109V22.1747C77.437 24.5989 74.0722 25.6834 73.8818 25.6834L74.0722 25.6196C69.5648 26.2576 67.8507 29.6387 67.4698 30.4043C66.7714 31.1698 66.5175 31.8715 66.5175 32.3819C66.5175 33.0837 66.9619 33.5302 66.9619 33.594L67.0888 33.7216L67.2158 33.7854C68.803 34.5509 71.9137 32.7647 73.6278 31.6802L73.6913 31.6164L73.7548 31.5526C74.0088 31.2974 74.3262 31.0422 74.6436 31.106C74.961 31.106 75.215 31.4888 75.215 31.4888L75.4054 31.744L75.6594 31.8715C76.0403 31.9991 76.2307 32.1267 76.4212 32.1905C75.7229 32.3819 74.1357 33.0199 70.1996 34.9337L69.8822 35.0613L69.7552 35.3803C69.3108 36.2734 67.5332 37.2941 66.454 37.7407C64.8034 38.4425 63.8511 39.3994 63.5972 40.5477C63.5337 40.8029 63.5337 40.9943 63.5337 41.1857C63.5337 42.2064 64.105 42.9081 64.1685 42.9719L64.4225 43.2909L64.8034 43.3547C65.8191 43.5461 70.7075 42.3978 73.5644 41.7598H73.6278H73.6913C74.8975 41.3132 75.2785 41.4408 75.3419 41.5046C75.3419 41.6322 75.3419 41.8236 75.3419 41.8236C75.3419 41.8236 75.4054 41.8874 75.5324 41.9512C75.4054 42.4616 74.5166 43.7375 73.5644 44.6944L73.6278 44.6306L73.5644 44.8858C73.3104 45.7789 72.2312 46.2893 71.8502 46.4169H71.9137C66.3905 47.8204 66.327 49.9894 66.3905 50.6274L66.581 51.5205L71.5963 51.0739L71.8502 50.8825C72.1677 50.6274 72.2312 50.6911 72.2946 50.8187L72.4851 51.0101L72.8025 51.1377C72.8025 51.1377 73.1834 51.2015 73.5009 51.3291C73.5009 51.3929 73.5009 51.3929 73.5009 51.3929C73.5009 51.8395 73.3739 52.5412 73.2469 53.1792H70.644C70.644 53.1792 70.5171 53.7533 70.5171 53.9447C70.3901 54.0723 70.0727 54.1361 69.7552 54.1361C68.549 53.6257 67.3428 54.9016 67.2158 55.093L67.0888 55.2206L66.9619 55.412C66.8349 55.6034 66.2635 55.9224 65.7557 56.1137L65.9461 56.05C64.9303 56.3051 64.6129 56.8793 64.5494 57.3259C64.5494 57.3897 64.5494 57.5172 64.5494 57.581C64.5494 58.0914 64.8669 58.4742 65.1843 58.7931C64.359 58.9845 63.1528 59.3035 63.1528 60.4518V60.5156C63.1528 60.8984 63.4067 61.2812 63.7241 61.4725C64.105 61.7277 65.1208 62.3657 73.2469 58.9845C73.2469 58.9845 73.3104 58.9845 73.3104 58.9207C73.12 59.1121 72.866 59.3673 72.6121 59.5587L72.4851 59.6225L72.2946 59.6863C71.5963 60.5156 70.2631 60.8984 70.2631 60.8984H70.3266C67.0254 61.4088 65.9461 62.876 65.5652 63.7054C65.2478 64.4709 65.2478 65.1727 65.6287 65.7468C66.0096 66.321 66.0731 66.321 69.7552 65.683C69.5648 66.1296 69.3743 66.8951 69.0569 67.4693C68.803 67.6607 66.2001 70.0849 66.0731 70.1487C62.5814 72.1264 60.4864 78.6335 60.2324 79.3352L60.1689 79.4628V79.5904C60.1689 79.6542 60.1689 79.7818 60.1689 79.8456C60.1689 80.7387 60.6768 81.1853 60.9308 81.3767C62.01 82.0784 63.5972 81.2491 64.1685 80.8663L64.4225 80.7387L64.9303 79.9094C65.4382 79.0162 66.9619 78.6973 67.5332 78.6973C69.1839 78.8887 70.8345 77.3576 71.1519 76.9748L71.2154 76.911L71.2789 76.7834C71.4059 76.5282 71.6598 76.4644 71.7233 76.4644C74.0722 76.7834 75.7863 74.2316 76.3577 73.1471C76.9291 73.0195 77.3735 73.1471 77.8179 74.0402C78.1353 74.6144 78.2623 76.4644 78.3258 77.6127V78.1869L78.1988 81.6319L78.0718 84.9492L78.1353 84.8216V84.9492L78.0718 86.7355C78.0718 88.2028 77.9448 89.4149 77.8814 89.9252C77.6274 91.9029 77.2465 92.0943 77.1195 92.2219C76.9926 92.2857 76.6117 92.4771 76.2942 92.5408C75.7863 92.6684 75.6594 92.796 75.0245 93.0512C73.1834 93.8167 72.6756 95.2202 72.1677 96.4324C71.9137 97.0703 71.5963 97.5807 71.3424 97.772C70.3901 98.41 70.3901 98.41 70.0092 98.4738L69.2474 98.6014C67.4698 98.9842 66.581 100.77 66.5175 100.962L65.8191 102.429H96.0382L95.9112 101.089C95.7842 99.6859 95.1494 98.729 92.1021 97.772C90.8324 97.3255 90.5149 97.0065 90.134 96.4961C89.5627 95.8582 88.8643 95.284 86.7058 94.1357C85.8805 93.6892 85.1187 91.8391 84.6108 89.5425C84.3569 88.2028 84.4838 87.6286 84.4838 87.6286V87.5648L84.2934 82.9716V79.2714C84.2934 79.2714 84.3569 75.6351 84.3569 74.1678C85.4361 74.8696 86.6423 74.9333 86.8328 74.9333L90.7054 75.0609H90.7689C91.5307 74.9971 93.8797 76.3368 95.5938 77.6765L95.6573 77.7403L95.7207 77.8041C96.927 78.5059 98.4506 79.2076 99.4029 78.3783C100.038 77.8679 100.038 77.0386 99.9108 76.4644L99.9743 76.592C99.022 69.5745 94.9589 68.4262 94.3241 68.2986C94.0701 68.2348 93.9431 68.1711 93.8797 68.1073C93.9431 68.0435 93.9431 67.9797 94.0066 67.9797L93.9431 68.0435C95.1494 67.0865 95.6573 66.1296 95.4033 65.2365C95.0859 63.833 93.3083 63.4502 92.9274 63.3864H92.7369H92.5465C90.8324 63.6416 88.9278 62.4933 88.7374 62.3657C86.8963 60.9622 86.3884 59.8777 86.3884 59.2397C86.3884 59.0483 86.4519 58.9207 86.4519 58.8569V58.9207L86.5788 58.7294C86.5788 58.7294 86.5788 58.6656 86.5788 58.6018C87.1502 58.6018 88.7374 59.3035 90.0705 60.1329V59.7501C91.5942 61.0898 93.2448 60.4518 93.8797 59.9415L94.1336 59.7501C94.1336 59.7501 94.1971 59.4949 94.2606 59.4311C94.3875 59.2397 94.9589 58.6018 95.5303 58.1552C96.3556 57.5172 96.6095 56.8793 96.546 56.4327C96.546 56.2413 96.546 56.1138 96.4826 55.9862C96.0382 54.5189 93.5622 54.0085 91.4037 53.8171C91.0863 53.6257 89.9436 52.924 89.9436 52.924C88.1025 51.8395 87.0232 51.1377 86.3884 49.798C87.6581 49.9256 88.9278 50.0532 89.6261 50.117C90.388 50.436 91.9116 50.1808 92.2925 49.9894C92.8639 49.7342 93.1178 49.2239 93.0544 48.7773V48.7135C92.9909 47.6928 91.7212 46.1617 89.5627 45.2048C87.6581 44.3116 86.1979 42.4616 86.071 42.015C85.944 41.6322 85.944 41.1857 85.8805 40.8029C85.8805 40.3563 85.944 39.9735 85.944 39.6546C86.8328 39.7184 87.7851 40.7391 87.7851 40.8029L88.1025 41.1857L88.6104 41.1219C88.9278 41.1219 89.5627 41.3132 89.8801 41.5046L90.261 41.696L90.7054 41.5684C91.2133 41.377 92.8639 41.6322 93.7527 41.7598C95.2763 42.015 95.8477 42.2702 96.3556 41.377L96.4826 41.1857L96.546 40.9305C96.8 36.6562 93.6892 35.0613 93.5622 34.9975L93.2448 34.8699H93.1813C92.9909 34.6785 92.8004 34.3596 92.61 34.0406C91.8481 32.6371 90.388 32.3819 89.2452 32.4457C88.8643 32.1267 88.4199 31.9991 87.912 31.9353C87.7851 31.8078 87.7216 31.744 87.5946 31.6164C87.5946 31.4888 87.5311 31.2974 87.4676 31.1698C87.6581 31.1698 87.8486 31.2336 87.9755 31.2336C92.8004 31.9353 93.4353 31.9353 93.9431 31.425C94.2606 31.106 94.3876 30.7232 94.3876 30.2767C94.3876 30.1491 94.3875 30.0853 94.3241 29.9577C93.9431 28.2352 90.0705 26.4489 86.8963 25.2368C84.5473 24.3437 83.976 23.3868 83.849 23.1954C83.849 23.1316 83.722 23.004 83.722 22.8764C83.722 22.685 83.7855 22.5574 83.849 22.4936C84.1029 22.3023 84.7378 22.3661 85.3091 22.5574L85.4361 22.6212H85.5631C87.5311 22.7488 88.4834 21.7281 88.7374 21.0901L88.8643 20.7712L88.7374 20.4522C88.293 19.1763 87.2772 18.2832 86.3884 17.8366C86.5154 17.709 87.0867 17.4538 87.0232 16.4969C87.0232 16.0503 86.5154 14.9658 84.9282 13.8813C86.071 13.4985 84.9282 11.4571 83.595 10.4363C83.595 10.4363 83.2141 10.1812 83.1506 10.1174C83.9759 9.86218 84.4203 8.96905 84.5473 8.3311C84.5473 8.2673 84.5473 8.13971 84.5473 8.07592C84.5473 7.43796 84.1664 6.9276 83.6585 6.80001C82.6428 6.54483 82.3253 6.35345 82.2618 6.22585C82.5158 6.16206 82.2618 4.82236 82.0714 4.56718C82.0714 4.43959 82.1984 4.12061 82.1984 3.99302C82.1984 3.54645 82.1349 3.29127 81.8174 2.9723C81.754 2.65332 81.2461 2.65332 80.9921 2.65332Z" fill="white"/>
<path d="M83.4674 73.2106L83.4039 78.9521V82.6523L83.5944 87.1817C83.5944 87.1817 83.4039 87.8835 83.7213 89.3508C84.1023 91.3284 84.8641 93.944 86.3242 94.7096C90.3873 96.751 88.8002 97.3252 91.9109 98.4097C95.1487 99.4942 94.9582 100.26 95.0217 101.089H67.5961C67.5961 101.089 68.2944 99.6218 69.6911 99.3028C71.0243 98.9838 70.6434 99.3028 72.1035 98.3459C73.3097 97.5803 73.1193 94.8372 75.6587 93.7526C76.6745 93.3061 77.4363 93.1785 77.8807 92.8595C78.1981 92.6681 78.7695 92.2853 79.0869 89.8611C79.2139 89.0318 79.2774 86.161 79.3409 84.8213L79.4678 81.3126L79.3409 81.5039L79.4678 78.059V77.4848C79.4678 77.4848 79.3409 74.5503 78.833 73.5295C78.3251 72.445 77.3728 71.5519 75.7857 72.2536C75.7857 72.2536 74.0081 75.89 71.7861 75.4434C71.7861 75.4434 71.0243 75.4434 70.5164 76.2089C70.5164 76.2089 68.8658 77.9314 67.5961 77.6124C67.5961 77.6124 65.0567 77.74 64.1044 79.3349C64.0409 79.4625 63.7235 79.9729 63.7235 79.9729C63.7235 79.9729 61.0571 81.5677 61.2475 79.6539C61.2475 79.6539 63.406 72.7002 66.7073 70.9777L69.8815 68.1069C69.8815 68.1069 71.6591 64.5344 70.5164 64.343L66.4533 65.1724C66.4533 65.1724 66.5803 62.7481 70.5799 62.1102C70.5799 62.1102 72.1035 61.4722 73.0558 60.3877C73.0558 60.3877 75.4048 58.7928 74.6429 57.5169C74.6429 57.5169 73.8811 57.0704 72.7384 57.9635C72.7384 57.9635 64.1044 61.536 64.0409 60.3239C63.9774 59.6222 66.5803 59.686 66.8977 58.9204C66.8977 58.9204 66.8977 57.198 65.8185 57.9635C65.8185 57.9635 64.8662 57.3255 66.1359 57.0066C66.1359 57.0066 67.5326 56.3686 67.85 55.7307C67.85 55.7307 68.8023 54.7737 69.5641 55.0927C69.5641 55.0927 71.2782 55.0927 71.4687 54.1358H74.0081C74.0081 54.1358 74.9604 51.3288 74.3255 50.3719L73.0558 50.0529C73.0558 50.0529 72.294 49.096 71.1512 50.0529L67.3421 50.3719C67.3421 50.3719 67.0247 48.6494 72.1035 47.3735C72.1035 47.3735 74.0081 46.7355 74.4525 45.1407C74.4525 45.1407 77.6267 41.9509 76.484 40.994C76.484 40.994 76.357 39.3991 73.5002 40.5474C73.5002 40.5474 66.0724 42.2699 65.1201 42.1423C65.1201 42.1423 63.406 40.1008 67.0247 38.5059C67.0247 38.5059 70.0085 37.23 70.8338 35.6352C70.8338 35.6352 76.5475 32.892 77.1824 32.892C77.1824 32.892 79.2139 31.8074 76.2301 30.6591C76.2301 30.6591 74.9604 28.9367 73.2463 30.6591C73.2463 30.6591 69.1197 33.3385 67.85 32.7006C67.85 32.7006 67.2152 32.0626 68.4849 30.7867C68.4849 30.7867 69.8815 27.1504 74.3255 26.5124C74.3255 26.5124 79.4043 24.9814 78.4521 21.026C78.4521 21.026 77.3093 20.3243 74.262 22.1106C74.262 22.1106 70.8973 21.026 74.7064 19.3036L75.8492 17.7725C75.8492 17.7725 74.7064 18.6018 74.516 17.7087C74.4525 17.2621 74.389 16.688 75.5952 16.05C77.1189 15.2845 76.8014 14.5827 78.579 14.5189C78.579 14.5189 78.833 14.1362 78.6425 13.7534C76.8649 13.562 76.0396 11.3292 79.1504 9.98947L79.4678 8.71356L78.1346 8.84115C78.1346 8.84115 76.9919 6.79971 79.1504 6.8635C79.1504 6.8635 80.1662 5.84278 80.4836 4.43928C80.4836 4.43928 79.9122 3.60994 80.8645 3.60994C80.8645 3.60994 81.4994 3.35476 81.1819 4.75826C81.1819 4.75826 81.5628 5.5876 81.5628 6.35314C81.5628 6.35314 81.1819 7.24627 83.4674 7.82043C83.7213 7.88422 83.7213 9.5429 82.1342 9.35152C82.1342 9.35152 81.6263 10.3722 83.0865 11.5844C83.0865 11.5844 85.5624 13.881 83.3404 14.0086C83.3404 14.0086 86.7686 16.2414 85.8164 17.1983C85.372 17.6449 84.0388 17.0069 83.9118 17.2621C83.7213 17.6449 83.7848 17.7725 84.2927 18.0277C84.6736 18.2191 87.1495 18.857 87.8479 20.8347C87.8479 20.8347 87.467 21.8554 85.7529 21.664C85.7529 21.664 82.4516 20.4519 82.896 23.4503C82.896 23.4503 83.2769 24.9814 86.5782 26.2573C86.5782 26.2573 94.6408 29.3194 93.2441 30.7229C92.8632 31.1057 86.1338 29.8936 84.8641 29.8936L84.7371 30.8505C84.7371 30.8505 86.6417 30.4039 86.6417 32.1264L87.4035 32.9558C87.4035 32.9558 88.6732 32.9558 88.8002 33.5937C88.8002 33.5937 90.8317 33.1471 91.657 34.5506C91.657 34.5506 92.4188 36.1455 93.0537 35.9541C93.0537 35.9541 95.7201 37.23 95.4661 40.9302C95.2757 41.1853 91.5935 40.2284 90.3873 40.675C90.3873 40.675 89.3715 40.1008 88.5462 40.1646C88.5462 40.1646 86.7686 37.9956 85.0545 38.8887C85.0545 38.8887 84.6101 40.8026 85.0545 42.3975C85.3085 43.2268 87.0226 45.2682 89.1176 46.2252C91.0856 47.1183 91.9744 48.458 91.9744 48.9046C92.0379 49.5425 90.2603 49.3511 90.0064 49.2873C89.7524 49.2235 84.8641 48.777 84.8641 48.777C84.8641 48.777 84.8641 49.2235 85.118 49.9253C86.0068 52.3495 87.9114 52.9875 91.0222 54.9651C91.0222 54.9651 97.4977 55.4117 94.8313 57.5169C94.8313 57.5169 93.3711 58.6652 93.1807 59.3032C93.1807 59.3032 91.9109 60.2601 90.6412 59.1756C90.6412 59.1756 85.9433 56.1134 85.6259 58.1549C85.6259 58.1549 84.1657 60.0687 88.1653 63.1309C88.1653 63.1309 90.5143 64.662 92.7363 64.343C92.7363 64.343 96.101 64.981 93.2441 67.15C93.2441 67.15 91.657 68.5535 94.006 69.1915C94.006 69.1915 97.9421 69.8294 98.8943 76.6555C98.8943 76.6555 99.5292 78.697 96.2279 76.7831C96.2279 76.7831 92.4188 73.7847 90.7047 73.9123L86.8956 73.7847C86.8956 73.7847 85.372 73.7209 84.4832 72.8278C84.6101 72.7002 83.5309 71.8709 83.4674 73.2106Z" fill="#006F53"/>
<path d="M113.116 101.918C112.799 101.599 112.418 101.472 111.973 101.472C111.529 101.472 111.212 101.599 110.894 101.918C110.577 102.237 110.386 102.62 110.386 103.067C110.386 103.513 110.513 103.896 110.831 104.215C111.148 104.534 111.529 104.661 111.973 104.661C112.418 104.661 112.799 104.534 113.116 104.215C113.434 103.896 113.624 103.513 113.624 103.067C113.624 102.62 113.434 102.237 113.116 101.918Z" fill="#A90533"/>
<path d="M112.924 102.109C113.178 102.365 113.305 102.683 113.305 103.066C113.305 103.449 113.178 103.768 112.924 104.023C112.67 104.278 112.353 104.406 111.972 104.406C111.591 104.406 111.274 104.278 111.02 104.023C110.766 103.768 110.639 103.449 110.639 103.066C110.639 102.683 110.766 102.365 111.02 102.109C111.274 101.854 111.591 101.727 111.972 101.727C112.353 101.727 112.67 101.854 112.924 102.109Z" fill="white"/>
<path d="M112.226 102.939C112.162 103.003 112.099 103.003 111.972 103.003H111.781V102.492H111.908C112.035 102.492 112.099 102.492 112.162 102.556C112.289 102.62 112.289 102.684 112.289 102.747C112.289 102.811 112.289 102.875 112.226 102.939ZM111.781 103.322H111.908H112.035C112.099 103.322 112.162 103.322 112.226 103.322C112.289 103.322 112.353 103.385 112.353 103.449C112.353 103.513 112.353 103.577 112.353 103.641C112.353 103.768 112.353 103.832 112.353 103.896H112.797V103.832V103.768V103.704V103.513C112.797 103.322 112.734 103.194 112.67 103.13C112.607 103.066 112.543 103.066 112.416 103.003C112.543 103.003 112.67 102.939 112.734 102.875C112.797 102.811 112.861 102.684 112.861 102.556C112.861 102.365 112.797 102.237 112.607 102.109C112.543 102.046 112.416 102.046 112.226 102.046C112.226 102.046 112.099 102.046 111.845 102.046C111.654 102.046 111.464 102.046 111.337 102.046V103.832H111.781V103.322Z" fill="#A90533" stroke="white" stroke-width="0.11989"/>
</g>
<defs>
<clipPath id="clip0_3801_20543">
<rect x="0.859375" width="158.172" height="105.172" fill="white"/>
</clipPath>
</defs>
</svg>
