<svg width="80" height="80" viewBox="0 0 80 80" fill="none" xmlns="http://www.w3.org/2000/svg">
<path d="M55.4288 45.7143V21.1428H17.1431V45.7143" stroke="url(#paint0_linear_3111_16362)" stroke-width="5"/>
<path fill-rule="evenodd" clip-rule="evenodd" d="M48 45.7144H16V52.0001H48V45.7144ZM38.2857 49.1429C38.2857 50.0897 37.5182 50.8572 36.5714 50.8572C35.6247 50.8572 34.8571 50.0897 34.8571 49.1429C34.8571 48.1962 35.6247 47.4286 36.5714 47.4286C37.5182 47.4286 38.2857 48.1962 38.2857 49.1429Z" fill="#3873FF"/>
<path d="M31.9999 51.4285H41.1428C41.1428 53.1076 42.2856 54.5713 43.9146 54.9786L46.8571 55.7142V57.1428H26.2856V55.7142L29.2281 54.9786C30.8571 54.5713 31.9999 53.1076 31.9999 51.4285Z" fill="#3873FF"/>
<path fill-rule="evenodd" clip-rule="evenodd" d="M50.2856 39.4285H63.9999V59.9999H50.2856V39.4285ZM51.9999 41.1428H62.2856V55.7142H51.9999V41.1428ZM58.3895 57.8181C58.3895 58.5066 57.8313 59.0648 57.1427 59.0648C56.4542 59.0648 55.896 58.5066 55.896 57.8181C55.896 57.1295 56.4542 56.5713 57.1427 56.5713C57.8313 56.5713 58.3895 57.1295 58.3895 57.8181Z" fill="#3873FF"/>
<path d="M70.7144 32.2855C70.7144 31.7333 70.2666 31.2855 69.7144 31.2855C69.1621 31.2855 68.7144 31.7333 68.7144 32.2855H70.7144ZM69.7144 65.7141V66.7141C70.2666 66.7141 70.7144 66.2664 70.7144 65.7141H69.7144ZM50.2858 64.7141C49.7335 64.7141 49.2858 65.1618 49.2858 65.7141C49.2858 66.2664 49.7335 66.7141 50.2858 66.7141V64.7141ZM68.7144 32.2855V65.7141H70.7144V32.2855H68.7144ZM69.7144 64.7141H50.2858V66.7141H69.7144V64.7141Z" fill="#3A3E42"/>
<path fill-rule="evenodd" clip-rule="evenodd" d="M47.4284 68.5715C49.0064 68.5715 50.2856 67.2923 50.2856 65.7143C50.2856 64.1364 49.0064 62.8572 47.4284 62.8572C45.8505 62.8572 44.5713 64.1364 44.5713 65.7143C44.5713 67.2923 45.8505 68.5715 47.4284 68.5715Z" stroke="#3A3E42" stroke-width="2"/>
<path fill-rule="evenodd" clip-rule="evenodd" d="M69.7141 31.9999C71.292 31.9999 72.5712 30.7207 72.5712 29.1428C72.5712 27.5648 71.292 26.2856 69.7141 26.2856C68.1361 26.2856 66.8569 27.5648 66.8569 29.1428C66.8569 30.7207 68.1361 31.9999 69.7141 31.9999Z" stroke="#3A3E42" stroke-width="2"/>
<path d="M9.28564 47.1429C9.28564 47.6952 9.73336 48.1429 10.2856 48.1429C10.8379 48.1429 11.2856 47.6952 11.2856 47.1429H9.28564ZM10.2856 13.7144V12.7144C9.73336 12.7144 9.28564 13.1621 9.28564 13.7144H10.2856ZM29.7142 14.7144C30.2665 14.7144 30.7142 14.2666 30.7142 13.7144C30.7142 13.1621 30.2665 12.7144 29.7142 12.7144V14.7144ZM11.2856 47.1429V13.7144H9.28564V47.1429H11.2856ZM10.2856 14.7144H29.7142V12.7144H10.2856V14.7144Z" fill="#3A3E42"/>
<path fill-rule="evenodd" clip-rule="evenodd" d="M32.5716 10.857C30.9936 10.857 29.7144 12.1362 29.7144 13.7141C29.7144 15.2921 30.9936 16.5713 32.5716 16.5713C34.1495 16.5713 35.4287 15.2921 35.4287 13.7141C35.4287 12.1362 34.1495 10.857 32.5716 10.857Z" stroke="#3A3E42" stroke-width="2"/>
<path fill-rule="evenodd" clip-rule="evenodd" d="M10.2859 47.4285C8.70797 47.4285 7.42878 48.7077 7.42878 50.2857C7.42878 51.8636 8.70797 53.1428 10.2859 53.1428C11.8639 53.1428 13.1431 51.8636 13.1431 50.2857C13.1431 48.7077 11.8639 47.4285 10.2859 47.4285Z" stroke="#3A3E42" stroke-width="2"/>
<rect opacity="0.1" x="10.8574" y="41.072" width="5.93197" height="5.93197" transform="rotate(-90 10.8574 41.072)" fill="#3CE1CD"/>
<rect opacity="0.1" x="7.42871" y="32.2175" width="5.93197" height="5.93197" transform="rotate(-90 7.42871 32.2175)" fill="#3CE1CD"/>
<rect opacity="0.4" x="18.5688" y="41.072" width="5.93197" height="5.93197" transform="rotate(-90 18.5688 41.072)" fill="#3CE1CD"/>
<rect opacity="0.4" x="15.1401" y="32.2175" width="5.93197" height="5.93197" transform="rotate(-90 15.1401 32.2175)" fill="#3CE1CD"/>
<rect opacity="0.7" x="26.2803" y="41.072" width="5.93197" height="5.93197" transform="rotate(-90 26.2803 41.072)" fill="#3CE1CD"/>
<rect opacity="0.7" x="22.8521" y="32.2175" width="5.93197" height="5.93197" transform="rotate(-90 22.8521 32.2175)" fill="#3CE1CD"/>
<rect x="33.9922" y="41.072" width="5.93197" height="5.93197" transform="rotate(-90 33.9922 41.072)" fill="#3CE1CD"/>
<rect x="30.5635" y="32.2175" width="5.93197" height="5.93197" transform="rotate(-90 30.5635 32.2175)" fill="#3CE1CD"/>
<defs>
<linearGradient id="paint0_linear_3111_16362" x1="36.2859" y1="21.1428" x2="36.2859" y2="45.7143" gradientUnits="userSpaceOnUse">
<stop stop-color="#3873FF"/>
<stop offset="1" stop-color="#3873FF" stop-opacity="0"/>
</linearGradient>
</defs>
</svg>
