<svg width="80" height="80" viewBox="0 0 80 80" fill="none" xmlns="http://www.w3.org/2000/svg">
<path fill-rule="evenodd" clip-rule="evenodd" d="M57.7078 62.7952L62.8666 65.4636L62.8659 65.4367C63.3799 65.7014 63.5767 66.328 63.3088 66.8357C63.0409 67.3435 62.4066 67.5406 61.8927 67.276L56.6928 64.586L54.1722 63.2032C52.9365 62.4902 51.8511 61.553 50.9735 60.4376C50.055 59.2465 49.5629 57.7881 49.5738 56.2891V55.9786C46.9878 58.5146 43.5101 59.9649 39.8659 60.0298C36.331 59.9731 32.9492 58.6037 30.3903 56.1919V56.2891C30.4039 57.7881 29.9119 59.2465 28.9905 60.4376C28.113 61.553 27.0276 62.4902 25.7919 63.2032L23.3642 64.586L18.107 67.3111C17.593 67.5757 16.9588 67.3786 16.6908 66.8709C16.4229 66.3632 16.6198 65.7365 17.1365 65.4719L22.3363 62.7819L24.7148 61.3991C25.7236 60.8158 26.6121 60.046 27.3256 59.1305C27.9627 58.3175 28.3099 57.3182 28.3126 56.2892V53.9719C26.8773 52.1623 25.7291 50.1449 24.9116 47.9924C21.3631 46.0207 19.2634 43.3605 19.2634 40.3869V25.176C19.2362 24.1929 19.6271 23.2422 20.3406 22.5562C21.4314 21.4895 23.2659 20.925 25.7018 20.6333C28.6385 15.6423 34.0403 12.5715 39.8854 12.5715C45.7279 12.5715 51.1301 15.6422 54.069 20.6333H54.0663C56.699 20.9169 58.6592 21.4841 59.7992 22.6049C60.4991 23.2801 60.8846 24.2092 60.8627 25.1761V40.4084C60.8627 43.5034 58.5525 46.2636 54.7743 48.2406C54.0089 50.1879 52.9755 52.0217 51.7015 53.6881V56.289C51.7069 57.3261 52.0624 58.3308 52.7103 59.1437C53.4156 60.0566 54.2877 60.8263 55.2856 61.4124L57.7078 62.7952ZM58.7631 25.1757C58.7768 24.7652 58.61 24.3709 58.3093 24.09C57.4208 23.4174 56.3572 23.0042 55.2446 22.9016C55.8843 24.4032 56.3108 25.9859 56.5104 27.6037C57.9785 26.7934 58.7631 25.9373 58.7631 25.1757ZM39.8886 14.6724C44.4351 14.6994 48.7 16.8411 51.4008 20.4548C51.9285 21.1354 52.396 21.8592 52.8006 22.6182C53.5415 24.0361 54.0582 25.5593 54.3261 27.1312C54.4054 27.593 54.4628 28.0521 54.501 28.514C54.0008 28.703 53.4594 28.884 52.8771 29.0541C48.708 30.1858 44.3968 30.726 40.0716 30.6584C35.6372 30.734 31.2196 30.1642 26.9546 28.965C26.3613 28.7814 25.8145 28.5896 25.3087 28.3925C25.3443 27.9711 25.4071 27.5498 25.4755 27.1339L25.4782 27.1312C25.7462 25.5647 26.2601 24.0469 26.9983 22.6317C27.4002 21.8673 27.8677 21.1381 28.398 20.4549C31.0937 16.8466 35.3504 14.7048 39.8886 14.6724ZM24.5189 22.964C23.5347 23.0801 22.5997 23.4637 21.8178 24.0686C21.5143 24.3576 21.3503 24.76 21.3639 25.1759C21.3639 25.8673 22.0365 26.6776 23.3159 27.4311C23.5156 25.8944 23.9202 24.3927 24.5189 22.964ZM23.9175 44.8106C22.3017 43.4981 21.364 41.991 21.364 40.3921V28.6328C21.919 29.0406 22.5123 29.3971 23.1328 29.6969C23.5046 29.8778 23.8874 30.0507 24.303 30.2154C24.7158 30.3802 24.9263 30.4585 25.2544 30.5746C25.4425 30.6428 25.6451 30.7074 25.8445 30.771C25.9927 30.8183 26.1392 30.865 26.2768 30.9122V30.9149C30.7603 32.1708 35.4024 32.7812 40.0636 32.7326C44.6128 32.7758 49.1479 32.1978 53.5361 31.0122C53.7776 30.9423 54.0149 30.8656 54.2489 30.7898C54.3407 30.7601 54.4322 30.7305 54.5231 30.7016C54.8457 30.5989 55.223 30.4666 55.5182 30.3424C55.5973 30.3091 55.6893 30.2714 55.7886 30.2307C56.0602 30.1193 56.3866 29.9855 56.6528 29.8589L56.6501 29.8562C57.391 29.5159 58.0936 29.1054 58.7497 28.6247V40.3869C58.7497 42.1234 57.6452 43.7547 55.7616 45.1429C54.9305 45.7452 54.042 46.2665 53.1097 46.6986C48.9952 48.4838 44.5419 49.3724 40.0501 49.2995C35.4284 49.2995 29.4284 48.0001 26.5775 46.4906C25.8086 46.0835 24.2856 45.143 23.9175 44.8106ZM30.3991 53.2398C32.9611 56.1702 36.269 57.9473 39.8887 57.9473C44.8672 57.9473 48.9092 53.8721 49.7987 52.7834C50.5584 51.8536 51.3301 50.6568 51.9338 49.4722C48.123 50.7794 44.1125 51.4249 40.0773 51.379C35.8885 51.4303 31.7223 50.7281 27.7882 49.3048C28.3296 50.3797 28.9693 51.4033 29.6992 52.3621C29.7269 52.3985 29.7531 52.4328 29.7778 52.4654C30.0399 52.8099 30.1512 52.9563 30.3991 53.2398Z" fill="#3873FF"/>
<path d="M59.1196 58.4835C57.4837 62.2202 49.5458 65.0549 39.9999 65.0549C29.2698 65.0549 20.5713 61.4732 20.5713 57.0549C20.5713 54.6667 23.1127 52.523 27.1427 51.0571" stroke="#3A3E42" stroke-width="2" stroke-linecap="round" stroke-linejoin="round"/>
<path fill-rule="evenodd" clip-rule="evenodd" d="M59.9997 58.5715C61.5777 58.5715 62.8569 57.2923 62.8569 55.7143C62.8569 54.1364 61.5777 52.8572 59.9997 52.8572C58.4218 52.8572 57.1426 54.1364 57.1426 55.7143C57.1426 57.2923 58.4218 58.5715 59.9997 58.5715Z" stroke="#3A3E42" stroke-width="2"/>
<path d="M29.8588 52.5715C29.8334 52.5382 29.8066 52.503 29.7781 52.4655L29.6994 52.362C29.0627 51.5258 28.4947 50.6403 28.0008 49.7144H25.6299C26.1669 50.8244 26.7837 51.8217 27.2905 52.5715H29.8588Z" fill="#3873FF"/>
<path d="M25.7144 41.3969V33.9472C28.1564 34.8784 31.331 36.2752 39.878 36.2752C47.4482 36.2752 52.088 34.8784 54.2858 33.7144V41.3969C51.8438 43.9577 46.3249 45.7144 39.878 45.7144C33.4311 45.7144 27.4238 43.7249 25.7144 41.3969Z" fill="url(#paint0_linear_3111_16423)"/>
<rect opacity="0.1" x="10.2856" y="27.4285" width="5.93197" height="5.93197" fill="#3CE1CD"/>
<rect opacity="0.4" x="10.2856" y="35.1401" width="5.93197" height="5.93197" fill="#3CE1CD"/>
<rect opacity="0.7" x="10.2856" y="42.8516" width="5.93197" height="5.93197" fill="#3CE1CD"/>
<rect x="10.2856" y="50.5632" width="5.93197" height="5.93197" fill="#3CE1CD"/>
<rect opacity="0.1" x="64" y="9.71436" width="5.93197" height="5.93197" fill="#3CE1CD"/>
<rect opacity="0.4" x="64" y="17.426" width="5.93197" height="5.93197" fill="#3CE1CD"/>
<rect opacity="0.7" x="64" y="25.1375" width="5.93197" height="5.93197" fill="#3CE1CD"/>
<rect x="64" y="32.8491" width="5.93197" height="5.93197" fill="#3CE1CD"/>
<defs>
<linearGradient id="paint0_linear_3111_16423" x1="40.0001" y1="33.7144" x2="40.0001" y2="45.7144" gradientUnits="userSpaceOnUse">
<stop stop-color="#3873FF"/>
<stop offset="1" stop-color="#3873FF" stop-opacity="0"/>
</linearGradient>
</defs>
</svg>
