<svg width="305" height="108" viewBox="0 0 305 108" fill="none" xmlns="http://www.w3.org/2000/svg">
<g clip-path="url(#clip0_3156_15545)">
<path fill-rule="evenodd" clip-rule="evenodd" d="M32.875 54C32.875 59.3375 34.9953 64.4564 38.7695 68.2305C42.5436 72.0047 47.6625 74.125 53 74.125C58.3375 74.125 63.4564 72.0047 67.2305 68.2305C71.0047 64.4564 73.125 59.3375 73.125 54C73.125 48.6625 71.0047 43.5436 67.2305 39.7695C63.4564 35.9953 58.3375 33.875 53 33.875C47.6625 33.875 42.5436 35.9953 38.7695 39.7695C34.9953 43.5436 32.875 48.6625 32.875 54ZM76 54C76 60.1 73.5768 65.9501 69.2635 70.2635C64.9501 74.5768 59.1 77 53 77C46.9 77 41.0499 74.5768 36.7365 70.2635C32.4232 65.9501 30 60.1 30 54C30 47.9 32.4232 42.0499 36.7365 37.7365C41.0499 33.4232 46.9 31 53 31C59.1 31 64.9501 33.4232 69.2635 37.7365C73.5768 42.0499 76 47.9 76 54ZM54.4375 64.0625C54.4375 64.4437 54.2861 64.8094 54.0165 65.079C53.7469 65.3486 53.3812 65.5 53 65.5C52.6188 65.5 52.2531 65.3486 51.9835 65.079C51.714 64.8094 51.5625 64.4437 51.5625 64.0625V47.4076L45.3927 53.5802C45.1228 53.8502 44.7567 54.0018 44.375 54.0018C43.9933 54.0018 43.6272 53.8502 43.3573 53.5802C43.0873 53.3103 42.9357 52.9442 42.9357 52.5625C42.9357 52.1808 43.0873 51.8147 43.3573 51.5448L51.9823 42.9198C52.1158 42.7859 52.2744 42.6797 52.4491 42.6072C52.6237 42.5347 52.8109 42.4974 53 42.4974C53.1891 42.4974 53.3763 42.5347 53.5509 42.6072C53.7256 42.6797 53.8842 42.7859 54.0177 42.9198L62.6427 51.5448C62.9127 51.8147 63.0643 52.1808 63.0643 52.5625C63.0643 52.9442 62.9127 53.3103 62.6427 53.5802C62.3728 53.8502 62.0067 54.0018 61.625 54.0018C61.2433 54.0018 60.8772 53.8502 60.6073 53.5802L54.4375 47.4076V64.0625Z" fill="#3A3E42"/>
</g>
<path d="M98.3748 75V42.72L89.9748 47.4L87.1548 40.32L99.5748 33.6H106.835V75H98.3748ZM131.098 75.9C128.658 75.9 126.458 75.4 124.498 74.4C122.578 73.4 120.918 71.96 119.518 70.08C118.158 68.2 117.118 65.94 116.398 63.3C115.678 60.66 115.318 57.68 115.318 54.36C115.318 51.04 115.678 48.04 116.398 45.36C117.158 42.68 118.218 40.4 119.578 38.52C120.978 36.64 122.658 35.2 124.618 34.2C126.618 33.2 128.858 32.7 131.338 32.7C133.778 32.7 135.958 33.2 137.878 34.2C139.838 35.2 141.498 36.64 142.858 38.52C144.258 40.4 145.318 42.66 146.038 45.3C146.758 47.94 147.118 50.92 147.118 54.24C147.118 57.56 146.738 60.56 145.978 63.24C145.258 65.92 144.198 68.2 142.798 70.08C141.438 71.96 139.758 73.4 137.758 74.4C135.798 75.4 133.578 75.9 131.098 75.9ZM131.218 68.04C133.538 68.04 135.318 66.86 136.558 64.5C137.838 62.1 138.478 58.7 138.478 54.3C138.478 49.9 137.838 46.52 136.558 44.16C135.318 41.76 133.538 40.56 131.218 40.56C128.898 40.56 127.098 41.76 125.818 44.16C124.578 46.52 123.958 49.9 123.958 54.3C123.958 58.7 124.578 62.1 125.818 64.5C127.098 66.86 128.898 68.04 131.218 68.04ZM153.276 84.96L151.716 80.22C152.916 79.9 153.956 79.42 154.836 78.78C155.756 78.14 156.456 77.4 156.936 76.56C157.456 75.76 157.716 74.9 157.716 73.98C157.716 73.7 157.696 73.44 157.656 73.2C157.136 73.56 156.536 73.74 155.856 73.74C155.056 73.74 154.316 73.54 153.636 73.14C152.996 72.74 152.476 72.2 152.076 71.52C151.676 70.8 151.476 70.04 151.476 69.24C151.476 68.4 151.696 67.64 152.136 66.96C152.616 66.24 153.236 65.68 153.996 65.28C154.756 64.84 155.596 64.62 156.516 64.62C157.796 64.62 158.936 65 159.936 65.76C160.936 66.48 161.736 67.48 162.336 68.76C162.936 70.04 163.236 71.46 163.236 73.02C163.236 74.9 162.816 76.64 161.976 78.24C161.176 79.88 160.016 81.28 158.496 82.44C157.016 83.6 155.276 84.44 153.276 84.96ZM182.016 75.9C179.576 75.9 177.376 75.4 175.416 74.4C173.496 73.4 171.836 71.96 170.436 70.08C169.076 68.2 168.036 65.94 167.316 63.3C166.596 60.66 166.236 57.68 166.236 54.36C166.236 51.04 166.596 48.04 167.316 45.36C168.076 42.68 169.136 40.4 170.496 38.52C171.896 36.64 173.576 35.2 175.536 34.2C177.536 33.2 179.776 32.7 182.256 32.7C184.696 32.7 186.876 33.2 188.796 34.2C190.756 35.2 192.416 36.64 193.776 38.52C195.176 40.4 196.236 42.66 196.956 45.3C197.676 47.94 198.036 50.92 198.036 54.24C198.036 57.56 197.656 60.56 196.896 63.24C196.176 65.92 195.116 68.2 193.716 70.08C192.356 71.96 190.676 73.4 188.676 74.4C186.716 75.4 184.496 75.9 182.016 75.9ZM182.136 68.04C184.456 68.04 186.236 66.86 187.476 64.5C188.756 62.1 189.396 58.7 189.396 54.3C189.396 49.9 188.756 46.52 187.476 44.16C186.236 41.76 184.456 40.56 182.136 40.56C179.816 40.56 178.016 41.76 176.736 44.16C175.496 46.52 174.876 49.9 174.876 54.3C174.876 58.7 175.496 62.1 176.736 64.5C178.016 66.86 179.816 68.04 182.136 68.04ZM219.106 75.9C216.666 75.9 214.466 75.4 212.506 74.4C210.586 73.4 208.926 71.96 207.526 70.08C206.166 68.2 205.126 65.94 204.406 63.3C203.686 60.66 203.326 57.68 203.326 54.36C203.326 51.04 203.686 48.04 204.406 45.36C205.166 42.68 206.226 40.4 207.586 38.52C208.986 36.64 210.666 35.2 212.626 34.2C214.626 33.2 216.866 32.7 219.346 32.7C221.786 32.7 223.966 33.2 225.886 34.2C227.846 35.2 229.506 36.64 230.866 38.52C232.266 40.4 233.326 42.66 234.046 45.3C234.766 47.94 235.126 50.92 235.126 54.24C235.126 57.56 234.746 60.56 233.986 63.24C233.266 65.92 232.206 68.2 230.806 70.08C229.446 71.96 227.766 73.4 225.766 74.4C223.806 75.4 221.586 75.9 219.106 75.9ZM219.226 68.04C221.546 68.04 223.326 66.86 224.566 64.5C225.846 62.1 226.486 58.7 226.486 54.3C226.486 49.9 225.846 46.52 224.566 44.16C223.326 41.76 221.546 40.56 219.226 40.56C216.906 40.56 215.106 41.76 213.826 44.16C212.586 46.52 211.966 49.9 211.966 54.3C211.966 58.7 212.586 62.1 213.826 64.5C215.106 66.86 216.906 68.04 219.226 68.04ZM256.195 75.9C253.755 75.9 251.555 75.4 249.595 74.4C247.675 73.4 246.015 71.96 244.615 70.08C243.255 68.2 242.215 65.94 241.495 63.3C240.775 60.66 240.415 57.68 240.415 54.36C240.415 51.04 240.775 48.04 241.495 45.36C242.255 42.68 243.315 40.4 244.675 38.52C246.075 36.64 247.755 35.2 249.715 34.2C251.715 33.2 253.955 32.7 256.435 32.7C258.875 32.7 261.055 33.2 262.975 34.2C264.935 35.2 266.595 36.64 267.955 38.52C269.355 40.4 270.415 42.66 271.135 45.3C271.855 47.94 272.215 50.92 272.215 54.24C272.215 57.56 271.835 60.56 271.075 63.24C270.355 65.92 269.295 68.2 267.895 70.08C266.535 71.96 264.855 73.4 262.855 74.4C260.895 75.4 258.675 75.9 256.195 75.9ZM256.315 68.04C258.635 68.04 260.415 66.86 261.655 64.5C262.935 62.1 263.575 58.7 263.575 54.3C263.575 49.9 262.935 46.52 261.655 44.16C260.415 41.76 258.635 40.56 256.315 40.56C253.995 40.56 252.195 41.76 250.915 44.16C249.675 46.52 249.055 49.9 249.055 54.3C249.055 58.7 249.675 62.1 250.915 64.5C252.195 66.86 253.995 68.04 256.315 68.04Z" fill="#3A3E42"/>
<rect x="1" y="1" width="303" height="106" rx="15" stroke="#0D3EF4" stroke-width="2"/>
<defs>
<clipPath id="clip0_3156_15545">
<rect width="46" height="46" fill="white" transform="translate(30 31)"/>
</clipPath>
</defs>
</svg>
