<svg width="351" height="108" viewBox="0 0 351 108" fill="none" xmlns="http://www.w3.org/2000/svg">
<g clip-path="url(#clip0_3156_15539)">
<path fill-rule="evenodd" clip-rule="evenodd" d="M32.875 54C32.875 59.3375 34.9953 64.4564 38.7695 68.2305C42.5436 72.0047 47.6625 74.125 53 74.125C58.3375 74.125 63.4564 72.0047 67.2305 68.2305C71.0047 64.4564 73.125 59.3375 73.125 54C73.125 48.6625 71.0047 43.5436 67.2305 39.7695C63.4564 35.9953 58.3375 33.875 53 33.875C47.6625 33.875 42.5436 35.9953 38.7695 39.7695C34.9953 43.5436 32.875 48.6625 32.875 54ZM76 54C76 60.1 73.5768 65.9501 69.2635 70.2635C64.9501 74.5768 59.1 77 53 77C46.9 77 41.0499 74.5768 36.7365 70.2635C32.4232 65.9501 30 60.1 30 54C30 47.9 32.4232 42.0499 36.7365 37.7365C41.0499 33.4232 46.9 31 53 31C59.1 31 64.9501 33.4232 69.2635 37.7365C73.5768 42.0499 76 47.9 76 54ZM54.4375 64.0625C54.4375 64.4437 54.2861 64.8094 54.0165 65.079C53.7469 65.3485 53.3812 65.5 53 65.5C52.6188 65.5 52.2531 65.3485 51.9835 65.079C51.714 64.8094 51.5625 64.4437 51.5625 64.0625V47.4076L45.3927 53.5802C45.1228 53.8502 44.7567 54.0018 44.375 54.0018C43.9933 54.0018 43.6272 53.8502 43.3573 53.5802C43.0873 53.3103 42.9357 52.9442 42.9357 52.5625C42.9357 52.1808 43.0873 51.8147 43.3573 51.5448L51.9823 42.9198C52.1158 42.7859 52.2744 42.6797 52.4491 42.6072C52.6237 42.5347 52.8109 42.4974 53 42.4974C53.1891 42.4974 53.3763 42.5347 53.5509 42.6072C53.7256 42.6797 53.8842 42.7859 54.0177 42.9198L62.6427 51.5448C62.9127 51.8147 63.0643 52.1808 63.0643 52.5625C63.0643 52.9442 62.9127 53.3103 62.6427 53.5802C62.3728 53.8502 62.0067 54.0018 61.625 54.0018C61.2433 54.0018 60.8772 53.8502 60.6073 53.5802L54.4375 47.4076V64.0625Z" fill="#3A3E42"/>
</g>
<path d="M88.7343 75V68.76C90.3343 67.4 91.7343 66.22 92.9343 65.22C94.1343 64.18 95.1943 63.26 96.1143 62.46C97.0343 61.62 97.8543 60.86 98.5743 60.18C99.2943 59.5 100.014 58.8 100.734 58.08C102.414 56.4 103.794 54.9 104.874 53.58C105.954 52.26 106.754 51.02 107.274 49.86C107.834 48.7 108.114 47.5 108.114 46.26C108.114 44.42 107.594 42.98 106.554 41.94C105.554 40.86 104.254 40.32 102.654 40.32C101.094 40.32 99.7543 40.82 98.6343 41.82C97.5543 42.82 96.8143 44.18 96.4143 45.9L88.3143 44.52C88.7943 42.12 89.7143 40.04 91.0743 38.28C92.4743 36.52 94.1943 35.16 96.2343 34.2C98.2743 33.2 100.514 32.7 102.954 32.7C104.994 32.7 106.854 33.04 108.534 33.72C110.254 34.4 111.734 35.34 112.974 36.54C114.214 37.74 115.174 39.16 115.854 40.8C116.574 42.44 116.934 44.22 116.934 46.14C116.934 47.94 116.614 49.64 115.974 51.24C115.334 52.84 114.314 54.5 112.914 56.22C111.554 57.94 109.794 59.86 107.634 61.98C106.674 62.9 105.674 63.82 104.634 64.74C103.634 65.62 102.594 66.52 101.514 67.44H117.654V75H88.7343ZM125.053 84.96L123.493 80.22C124.693 79.9 125.733 79.42 126.613 78.78C127.533 78.14 128.233 77.4 128.713 76.56C129.233 75.76 129.493 74.9 129.493 73.98C129.493 73.7 129.473 73.44 129.433 73.2C128.913 73.56 128.313 73.74 127.633 73.74C126.833 73.74 126.093 73.54 125.413 73.14C124.773 72.74 124.253 72.2 123.853 71.52C123.453 70.8 123.253 70.04 123.253 69.24C123.253 68.4 123.473 67.64 123.913 66.96C124.393 66.24 125.013 65.68 125.773 65.28C126.533 64.84 127.373 64.62 128.293 64.62C129.573 64.62 130.713 65 131.713 65.76C132.713 66.48 133.513 67.48 134.113 68.76C134.713 70.04 135.013 71.46 135.013 73.02C135.013 74.9 134.593 76.64 133.753 78.24C132.953 79.88 131.793 81.28 130.273 82.44C128.793 83.6 127.053 84.44 125.053 84.96ZM153.793 75.9C151.353 75.9 149.153 75.4 147.193 74.4C145.273 73.4 143.613 71.96 142.213 70.08C140.853 68.2 139.813 65.94 139.093 63.3C138.373 60.66 138.013 57.68 138.013 54.36C138.013 51.04 138.373 48.04 139.093 45.36C139.853 42.68 140.913 40.4 142.273 38.52C143.673 36.64 145.353 35.2 147.313 34.2C149.313 33.2 151.553 32.7 154.033 32.7C156.473 32.7 158.653 33.2 160.573 34.2C162.533 35.2 164.193 36.64 165.553 38.52C166.953 40.4 168.013 42.66 168.733 45.3C169.453 47.94 169.813 50.92 169.813 54.24C169.813 57.56 169.433 60.56 168.673 63.24C167.953 65.92 166.893 68.2 165.493 70.08C164.133 71.96 162.453 73.4 160.453 74.4C158.493 75.4 156.273 75.9 153.793 75.9ZM153.913 68.04C156.233 68.04 158.013 66.86 159.253 64.5C160.533 62.1 161.173 58.7 161.173 54.3C161.173 49.9 160.533 46.52 159.253 44.16C158.013 41.76 156.233 40.56 153.913 40.56C151.593 40.56 149.793 41.76 148.513 44.16C147.273 46.52 146.653 49.9 146.653 54.3C146.653 58.7 147.273 62.1 148.513 64.5C149.793 66.86 151.593 68.04 153.913 68.04ZM190.883 75.9C188.443 75.9 186.243 75.4 184.283 74.4C182.363 73.4 180.703 71.96 179.303 70.08C177.943 68.2 176.903 65.94 176.183 63.3C175.463 60.66 175.103 57.68 175.103 54.36C175.103 51.04 175.463 48.04 176.183 45.36C176.943 42.68 178.003 40.4 179.363 38.52C180.763 36.64 182.443 35.2 184.403 34.2C186.403 33.2 188.643 32.7 191.123 32.7C193.563 32.7 195.743 33.2 197.663 34.2C199.623 35.2 201.283 36.64 202.643 38.52C204.043 40.4 205.103 42.66 205.823 45.3C206.543 47.94 206.903 50.92 206.903 54.24C206.903 57.56 206.523 60.56 205.763 63.24C205.043 65.92 203.983 68.2 202.583 70.08C201.223 71.96 199.543 73.4 197.543 74.4C195.583 75.4 193.363 75.9 190.883 75.9ZM191.003 68.04C193.323 68.04 195.103 66.86 196.343 64.5C197.623 62.1 198.263 58.7 198.263 54.3C198.263 49.9 197.623 46.52 196.343 44.16C195.103 41.76 193.323 40.56 191.003 40.56C188.683 40.56 186.883 41.76 185.603 44.16C184.363 46.52 183.743 49.9 183.743 54.3C183.743 58.7 184.363 62.1 185.603 64.5C186.883 66.86 188.683 68.04 191.003 68.04ZM227.973 75.9C225.533 75.9 223.333 75.4 221.373 74.4C219.453 73.4 217.793 71.96 216.393 70.08C215.033 68.2 213.993 65.94 213.273 63.3C212.553 60.66 212.193 57.68 212.193 54.36C212.193 51.04 212.553 48.04 213.273 45.36C214.033 42.68 215.093 40.4 216.453 38.52C217.853 36.64 219.533 35.2 221.493 34.2C223.493 33.2 225.733 32.7 228.213 32.7C230.653 32.7 232.833 33.2 234.753 34.2C236.713 35.2 238.373 36.64 239.733 38.52C241.133 40.4 242.193 42.66 242.913 45.3C243.633 47.94 243.993 50.92 243.993 54.24C243.993 57.56 243.613 60.56 242.853 63.24C242.133 65.92 241.073 68.2 239.673 70.08C238.313 71.96 236.633 73.4 234.633 74.4C232.673 75.4 230.453 75.9 227.973 75.9ZM228.093 68.04C230.413 68.04 232.193 66.86 233.433 64.5C234.713 62.1 235.353 58.7 235.353 54.3C235.353 49.9 234.713 46.52 233.433 44.16C232.193 41.76 230.413 40.56 228.093 40.56C225.773 40.56 223.973 41.76 222.693 44.16C221.453 46.52 220.833 49.9 220.833 54.3C220.833 58.7 221.453 62.1 222.693 64.5C223.973 66.86 225.773 68.04 228.093 68.04ZM267.534 75.48C266.51 75.48 265.582 75.32 264.75 75C263.934 74.664 263.23 74.184 262.638 73.56C262.046 72.936 261.59 72.192 261.27 71.328C260.966 70.448 260.814 69.472 260.814 68.4V57.96H262.83V68.328C262.83 69.416 263.022 70.36 263.406 71.16C263.79 71.944 264.334 72.552 265.038 72.984C265.742 73.416 266.582 73.632 267.558 73.632C268.534 73.632 269.374 73.416 270.078 72.984C270.782 72.552 271.326 71.944 271.71 71.16C272.094 70.36 272.286 69.416 272.286 68.328V57.96H274.302V68.4C274.302 69.472 274.142 70.44 273.822 71.304C273.502 72.168 273.046 72.912 272.454 73.536C271.862 74.16 271.15 74.64 270.318 74.976C269.486 75.312 268.558 75.48 267.534 75.48ZM281.531 75.36C280.811 75.36 280.131 75.24 279.491 75C278.867 74.76 278.323 74.416 277.859 73.968C277.395 73.52 277.043 72.992 276.803 72.384L278.531 71.76C278.851 72.368 279.267 72.84 279.779 73.176C280.291 73.512 280.875 73.68 281.531 73.68C282.059 73.68 282.523 73.592 282.923 73.416C283.323 73.24 283.635 73 283.859 72.696C284.083 72.376 284.195 72.024 284.195 71.64C284.195 70.6 283.443 69.928 281.939 69.624L281.003 69.432C279.691 69.176 278.723 68.76 278.099 68.184C277.475 67.592 277.163 66.848 277.163 65.952C277.163 65.232 277.347 64.592 277.715 64.032C278.083 63.472 278.595 63.04 279.251 62.736C279.923 62.416 280.683 62.256 281.531 62.256C282.235 62.256 282.883 62.376 283.475 62.616C284.067 62.84 284.571 63.176 284.987 63.624C285.419 64.072 285.747 64.6 285.971 65.208L284.243 65.784C283.987 65.192 283.619 64.736 283.139 64.416C282.675 64.08 282.131 63.912 281.507 63.912C281.027 63.912 280.603 63.992 280.235 64.152C279.883 64.312 279.603 64.528 279.395 64.8C279.187 65.072 279.083 65.392 279.083 65.76C279.083 66.272 279.275 66.68 279.659 66.984C280.059 67.288 280.699 67.528 281.579 67.704L282.515 67.896C283.699 68.136 284.603 68.56 285.227 69.168C285.851 69.76 286.163 70.52 286.163 71.448C286.163 72.024 286.043 72.552 285.803 73.032C285.579 73.496 285.259 73.904 284.843 74.256C284.443 74.608 283.955 74.88 283.379 75.072C282.819 75.264 282.203 75.36 281.531 75.36ZM294.321 75.36C293.409 75.36 292.569 75.2 291.801 74.88C291.049 74.56 290.393 74.112 289.833 73.536C289.273 72.944 288.841 72.256 288.537 71.472C288.233 70.672 288.081 69.792 288.081 68.832C288.081 67.888 288.225 67.024 288.513 66.24C288.817 65.44 289.233 64.744 289.761 64.152C290.305 63.56 290.937 63.104 291.657 62.784C292.377 62.448 293.161 62.28 294.009 62.28C294.825 62.28 295.577 62.432 296.265 62.736C296.969 63.04 297.577 63.464 298.089 64.008C298.601 64.552 298.993 65.2 299.265 65.952C299.553 66.704 299.697 67.52 299.697 68.4V69.192H290.073C290.137 70.088 290.345 70.872 290.697 71.544C291.065 72.216 291.553 72.736 292.161 73.104C292.769 73.472 293.473 73.656 294.273 73.656C295.057 73.656 295.737 73.496 296.313 73.176C296.905 72.84 297.409 72.352 297.825 71.712L299.457 72.456C299.137 73.064 298.721 73.584 298.209 74.016C297.697 74.448 297.105 74.776 296.433 75C295.777 75.24 295.073 75.36 294.321 75.36ZM294.009 63.912C293.353 63.912 292.753 64.072 292.209 64.392C291.681 64.712 291.233 65.16 290.865 65.736C290.513 66.296 290.281 66.952 290.169 67.704H297.681C297.617 66.952 297.417 66.296 297.081 65.736C296.745 65.16 296.313 64.712 295.785 64.392C295.257 64.072 294.665 63.912 294.009 63.912ZM302.44 75V62.616H304.168L304.288 64.92C304.592 64.152 305.048 63.552 305.656 63.12C306.264 62.672 306.976 62.448 307.792 62.448C308.064 62.448 308.304 62.472 308.512 62.52C308.736 62.552 308.928 62.6 309.088 62.664L308.848 64.488C308.672 64.424 308.488 64.384 308.296 64.368C308.104 64.336 307.912 64.32 307.72 64.32C307.048 64.32 306.456 64.488 305.944 64.824C305.448 65.16 305.056 65.64 304.768 66.264C304.496 66.872 304.36 67.592 304.36 68.424V75H302.44ZM315.352 75.36C314.632 75.36 313.952 75.24 313.312 75C312.688 74.76 312.144 74.416 311.68 73.968C311.216 73.52 310.864 72.992 310.624 72.384L312.352 71.76C312.672 72.368 313.088 72.84 313.6 73.176C314.112 73.512 314.696 73.68 315.352 73.68C315.88 73.68 316.344 73.592 316.744 73.416C317.144 73.24 317.456 73 317.68 72.696C317.904 72.376 318.016 72.024 318.016 71.64C318.016 70.6 317.264 69.928 315.76 69.624L314.824 69.432C313.512 69.176 312.544 68.76 311.92 68.184C311.296 67.592 310.984 66.848 310.984 65.952C310.984 65.232 311.168 64.592 311.536 64.032C311.904 63.472 312.416 63.04 313.072 62.736C313.744 62.416 314.504 62.256 315.352 62.256C316.056 62.256 316.704 62.376 317.296 62.616C317.888 62.84 318.392 63.176 318.808 63.624C319.24 64.072 319.568 64.6 319.792 65.208L318.064 65.784C317.808 65.192 317.44 64.736 316.96 64.416C316.496 64.08 315.952 63.912 315.328 63.912C314.848 63.912 314.424 63.992 314.056 64.152C313.704 64.312 313.424 64.528 313.216 64.8C313.008 65.072 312.904 65.392 312.904 65.76C312.904 66.272 313.096 66.68 313.48 66.984C313.88 67.288 314.52 67.528 315.4 67.704L316.336 67.896C317.52 68.136 318.424 68.56 319.048 69.168C319.672 69.76 319.984 70.52 319.984 71.448C319.984 72.024 319.864 72.552 319.624 73.032C319.4 73.496 319.08 73.904 318.664 74.256C318.264 74.608 317.776 74.88 317.2 75.072C316.64 75.264 316.024 75.36 315.352 75.36Z" fill="#3A3E42"/>
<rect x="1" y="1" width="349" height="106" rx="15" stroke="#0D3EF4" stroke-width="2"/>
<defs>
<clipPath id="clip0_3156_15539">
<rect width="46" height="46" fill="white" transform="translate(30 31)"/>
</clipPath>
</defs>
</svg>
