<svg width="251" height="110" viewBox="0 0 251 110" fill="none" xmlns="http://www.w3.org/2000/svg">
<path d="M31.5582 62V47.8H33.9182L38.6382 56.5L43.3782 47.8H45.6382V62H43.2182V52.2L39.4982 59.04H37.6982L33.9782 52.2V62H31.5582ZM53.1332 62.3C52.3732 62.3 51.6665 62.1667 51.0132 61.9C50.3732 61.62 49.8132 61.2333 49.3332 60.74C48.8532 60.2333 48.4799 59.6467 48.2132 58.98C47.9465 58.3 47.8132 57.56 47.8132 56.76C47.8132 55.9733 47.9465 55.2467 48.2132 54.58C48.4799 53.9 48.8532 53.3133 49.3332 52.82C49.8265 52.3133 50.3999 51.9267 51.0532 51.66C51.7199 51.38 52.4399 51.24 53.2132 51.24C53.9732 51.24 54.6732 51.38 55.3132 51.66C55.9665 51.9267 56.5332 52.3133 57.0132 52.82C57.4932 53.3133 57.8665 53.8933 58.1332 54.56C58.3999 55.2267 58.5332 55.96 58.5332 56.76C58.5332 57.56 58.3999 58.3 58.1332 58.98C57.8665 59.6467 57.4865 60.2333 56.9932 60.74C56.5132 61.2333 55.9399 61.62 55.2732 61.9C54.6199 62.1667 53.9065 62.3 53.1332 62.3ZM53.1732 60.22C53.7465 60.22 54.2599 60.0733 54.7132 59.78C55.1665 59.4733 55.5199 59.06 55.7732 58.54C56.0399 58.02 56.1732 57.4267 56.1732 56.76C56.1732 56.0933 56.0399 55.5067 55.7732 55C55.5199 54.48 55.1665 54.0733 54.7132 53.78C54.2599 53.4733 53.7465 53.32 53.1732 53.32C52.5999 53.32 52.0865 53.4733 51.6332 53.78C51.1799 54.0733 50.8199 54.48 50.5532 55C50.2999 55.5067 50.1732 56.0933 50.1732 56.76C50.1732 57.4267 50.2999 58.02 50.5532 58.54C50.8199 59.06 51.1799 59.4733 51.6332 59.78C52.0865 60.0733 52.5999 60.22 53.1732 60.22ZM60.5584 62V51.54H62.6584L62.7584 53.26C63.025 52.6733 63.3917 52.22 63.8584 51.9C64.3384 51.5667 64.8984 51.4 65.5384 51.4C65.7384 51.4 65.9317 51.4133 66.1184 51.44C66.305 51.4667 66.4717 51.5133 66.6184 51.58L66.3584 53.82C66.2117 53.7667 66.0584 53.7333 65.8984 53.72C65.7384 53.6933 65.5784 53.68 65.4184 53.68C64.6184 53.68 63.9917 53.9467 63.5384 54.48C63.085 55.0133 62.8584 55.7533 62.8584 56.7V62H60.5584ZM72.8598 62.3C72.0864 62.3 71.3731 62.1667 70.7198 61.9C70.0798 61.62 69.5198 61.2333 69.0398 60.74C68.5598 60.2467 68.1864 59.6667 67.9198 59C67.6664 58.32 67.5398 57.5733 67.5398 56.76C67.5398 55.9733 67.6664 55.2467 67.9198 54.58C68.1864 53.9133 68.5464 53.3333 68.9998 52.84C69.4664 52.3333 70.0131 51.94 70.6398 51.66C71.2664 51.38 71.9464 51.24 72.6798 51.24C73.4131 51.24 74.0798 51.3733 74.6798 51.64C75.2931 51.8933 75.8198 52.26 76.2598 52.74C76.7131 53.22 77.0598 53.7933 77.2998 54.46C77.5398 55.1133 77.6598 55.84 77.6598 56.64V57.32H69.9198C69.9864 57.9333 70.1464 58.4667 70.3998 58.92C70.6664 59.36 71.0064 59.7 71.4198 59.94C71.8331 60.18 72.3131 60.3 72.8598 60.3C73.9531 60.3 74.8064 59.8133 75.4198 58.84L77.4398 59.62C77.1998 60.1667 76.8464 60.6467 76.3798 61.06C75.9264 61.46 75.3931 61.7667 74.7798 61.98C74.1798 62.1933 73.5398 62.3 72.8598 62.3ZM72.6798 53.1C72.2131 53.1 71.7931 53.2067 71.4198 53.42C71.0598 53.6333 70.7531 53.9333 70.4998 54.32C70.2464 54.7067 70.0731 55.16 69.9798 55.68H75.2598C75.1798 55.16 75.0264 54.7067 74.7998 54.32C74.5731 53.9333 74.2731 53.6333 73.8998 53.42C73.5398 53.2067 73.1331 53.1 72.6798 53.1ZM88.1987 62.3C87.1453 62.3 86.3187 62 85.7187 61.4C85.1187 60.7867 84.8187 59.9133 84.8187 58.78V53.4H82.9787V51.54H84.8187V48H87.1187V51.54H90.1587V53.4H87.1187V58.54C87.1187 59.1 87.232 59.5333 87.4587 59.84C87.6987 60.1333 88.0453 60.28 88.4987 60.28C88.7387 60.28 88.9987 60.2467 89.2787 60.18C89.5587 60.1 89.8187 59.9933 90.0587 59.86L90.5787 61.6C90.272 61.8133 89.912 61.98 89.4987 62.1C89.0987 62.2333 88.6653 62.3 88.1987 62.3ZM97.059 62.3C96.299 62.3 95.5923 62.1667 94.939 61.9C94.299 61.62 93.739 61.2333 93.259 60.74C92.779 60.2333 92.4057 59.6467 92.139 58.98C91.8723 58.3 91.739 57.56 91.739 56.76C91.739 55.9733 91.8723 55.2467 92.139 54.58C92.4057 53.9 92.779 53.3133 93.259 52.82C93.7523 52.3133 94.3257 51.9267 94.979 51.66C95.6457 51.38 96.3657 51.24 97.139 51.24C97.899 51.24 98.599 51.38 99.239 51.66C99.8923 51.9267 100.459 52.3133 100.939 52.82C101.419 53.3133 101.792 53.8933 102.059 54.56C102.326 55.2267 102.459 55.96 102.459 56.76C102.459 57.56 102.326 58.3 102.059 58.98C101.792 59.6467 101.412 60.2333 100.919 60.74C100.439 61.2333 99.8657 61.62 99.199 61.9C98.5457 62.1667 97.8323 62.3 97.059 62.3ZM97.099 60.22C97.6723 60.22 98.1857 60.0733 98.639 59.78C99.0923 59.4733 99.4457 59.06 99.699 58.54C99.9657 58.02 100.099 57.4267 100.099 56.76C100.099 56.0933 99.9657 55.5067 99.699 55C99.4457 54.48 99.0923 54.0733 98.639 53.78C98.1857 53.4733 97.6723 53.32 97.099 53.32C96.5257 53.32 96.0123 53.4733 95.559 53.78C95.1057 54.0733 94.7457 54.48 94.479 55C94.2257 55.5067 94.099 56.0933 94.099 56.76C94.099 57.4267 94.2257 58.02 94.479 58.54C94.7457 59.06 95.1057 59.4733 95.559 59.78C96.0123 60.0733 96.5257 60.22 97.099 60.22ZM113.462 62.3C112.715 62.3 112.029 62.1667 111.402 61.9C110.775 61.62 110.229 61.24 109.762 60.76C109.295 60.2667 108.929 59.6867 108.662 59.02C108.409 58.3533 108.282 57.6267 108.282 56.84C108.282 56.0533 108.415 55.32 108.682 54.64C108.949 53.96 109.315 53.3667 109.782 52.86C110.249 52.3533 110.795 51.96 111.422 51.68C112.062 51.3867 112.755 51.24 113.502 51.24C114.222 51.24 114.882 51.3733 115.482 51.64C116.082 51.8933 116.595 52.26 117.022 52.74C117.462 53.2067 117.775 53.76 117.962 54.4L115.782 54.92C115.555 54.4133 115.235 54.02 114.822 53.74C114.422 53.46 113.969 53.32 113.462 53.32C112.929 53.32 112.449 53.4733 112.022 53.78C111.595 54.0867 111.255 54.5067 111.002 55.04C110.762 55.56 110.642 56.1533 110.642 56.82C110.642 57.4733 110.762 58.06 111.002 58.58C111.242 59.0867 111.569 59.4867 111.982 59.78C112.409 60.0733 112.902 60.22 113.462 60.22C113.995 60.22 114.482 60.0867 114.922 59.82C115.362 59.54 115.689 59.1467 115.902 58.64L118.062 59.14C117.875 59.78 117.555 60.34 117.102 60.82C116.649 61.2867 116.109 61.6533 115.482 61.92C114.855 62.1733 114.182 62.3 113.462 62.3ZM124.735 62.3C123.975 62.3 123.268 62.1667 122.615 61.9C121.975 61.62 121.415 61.2333 120.935 60.74C120.455 60.2333 120.081 59.6467 119.815 58.98C119.548 58.3 119.415 57.56 119.415 56.76C119.415 55.9733 119.548 55.2467 119.815 54.58C120.081 53.9 120.455 53.3133 120.935 52.82C121.428 52.3133 122.001 51.9267 122.655 51.66C123.321 51.38 124.041 51.24 124.815 51.24C125.575 51.24 126.275 51.38 126.915 51.66C127.568 51.9267 128.135 52.3133 128.615 52.82C129.095 53.3133 129.468 53.8933 129.735 54.56C130.001 55.2267 130.135 55.96 130.135 56.76C130.135 57.56 130.001 58.3 129.735 58.98C129.468 59.6467 129.088 60.2333 128.595 60.74C128.115 61.2333 127.541 61.62 126.875 61.9C126.221 62.1667 125.508 62.3 124.735 62.3ZM124.775 60.22C125.348 60.22 125.861 60.0733 126.315 59.78C126.768 59.4733 127.121 59.06 127.375 58.54C127.641 58.02 127.775 57.4267 127.775 56.76C127.775 56.0933 127.641 55.5067 127.375 55C127.121 54.48 126.768 54.0733 126.315 53.78C125.861 53.4733 125.348 53.32 124.775 53.32C124.201 53.32 123.688 53.4733 123.235 53.78C122.781 54.0733 122.421 54.48 122.155 55C121.901 55.5067 121.775 56.0933 121.775 56.76C121.775 57.4267 121.901 58.02 122.155 58.54C122.421 59.06 122.781 59.4733 123.235 59.78C123.688 60.0733 124.201 60.22 124.775 60.22ZM132.16 62V51.54H134.26L134.34 52.94C134.647 52.42 135.067 52.0067 135.6 51.7C136.133 51.3933 136.74 51.24 137.42 51.24C138.153 51.24 138.8 51.4267 139.36 51.8C139.92 52.16 140.353 52.66 140.66 53.3C140.86 52.8867 141.127 52.5267 141.46 52.22C141.807 51.9133 142.207 51.6733 142.66 51.5C143.127 51.3267 143.627 51.24 144.16 51.24C144.933 51.24 145.607 51.4267 146.18 51.8C146.753 52.16 147.193 52.68 147.5 53.36C147.82 54.0267 147.98 54.8267 147.98 55.76V62H145.68V56.02C145.68 55.1533 145.493 54.4867 145.12 54.02C144.747 53.5533 144.233 53.32 143.58 53.32C143.127 53.32 142.72 53.4333 142.36 53.66C142.013 53.8733 141.733 54.18 141.52 54.58C141.32 54.9667 141.22 55.4067 141.22 55.9V62H138.92V56.02C138.92 55.1533 138.733 54.4867 138.36 54.02C137.987 53.5533 137.473 53.32 136.82 53.32C136.367 53.32 135.96 53.4333 135.6 53.66C135.253 53.8733 134.973 54.18 134.76 54.58C134.56 54.9667 134.46 55.4067 134.46 55.9V62H132.16ZM155.321 62.3C154.547 62.3 153.834 62.1667 153.181 61.9C152.541 61.62 151.981 61.2333 151.501 60.74C151.021 60.2467 150.647 59.6667 150.381 59C150.127 58.32 150.001 57.5733 150.001 56.76C150.001 55.9733 150.127 55.2467 150.381 54.58C150.647 53.9133 151.007 53.3333 151.461 52.84C151.927 52.3333 152.474 51.94 153.101 51.66C153.727 51.38 154.407 51.24 155.141 51.24C155.874 51.24 156.541 51.3733 157.141 51.64C157.754 51.8933 158.281 52.26 158.721 52.74C159.174 53.22 159.521 53.7933 159.761 54.46C160.001 55.1133 160.121 55.84 160.121 56.64V57.32H152.381C152.447 57.9333 152.607 58.4667 152.861 58.92C153.127 59.36 153.467 59.7 153.881 59.94C154.294 60.18 154.774 60.3 155.321 60.3C156.414 60.3 157.267 59.8133 157.881 58.84L159.901 59.62C159.661 60.1667 159.307 60.6467 158.841 61.06C158.387 61.46 157.854 61.7667 157.241 61.98C156.641 62.1933 156.001 62.3 155.321 62.3ZM155.141 53.1C154.674 53.1 154.254 53.2067 153.881 53.42C153.521 53.6333 153.214 53.9333 152.961 54.32C152.707 54.7067 152.534 55.16 152.441 55.68H157.721C157.641 55.16 157.487 54.7067 157.261 54.32C157.034 53.9333 156.734 53.6333 156.361 53.42C156.001 53.2067 155.594 53.1 155.141 53.1Z" fill="#3A3E42"/>
<path d="M209.288 40.2969L210.702 41.7119L195.712 56.7019L194.298 55.2879L209.288 40.2969Z" fill="#3A3E42"/>
<path d="M211 50H209V42H201V40H211V50ZM206 68H186C184.3 68 183 66.7 183 65V45C183 43.3 184.3 42 186 42H197V44H186C185.4 44 185 44.4 185 45V65C185 65.6 185.4 66 186 66H206C206.6 66 207 65.6 207 65V54H209V65C209 66.7 207.7 68 206 68Z" fill="#3A3E42"/>
<rect x="1" y="1" width="249" height="108" rx="15" stroke="#0D3EF4" stroke-width="2"/>
</svg>
