<svg width="400" height="400" viewBox="0 0 400 400" fill="none" xmlns="http://www.w3.org/2000/svg">
<path d="M122.656 217.143H294.811C297.956 211.977 300 204.629 300 194.286C300 166.194 260.261 161.579 237.369 169.579C236.768 169.79 236.125 169.414 236.021 168.785C231.317 140.282 208.681 100.464 166.755 100.464C134.345 100.464 113.458 118.571 105.201 137.822C94.4622 162.857 100.819 195.121 119.977 216.939L122.656 217.143Z" fill="url(#paint0_linear_3117_15845)"/>
<path d="M92.4671 227.553C66.3452 197.89 61.128 155.115 79.3481 119.992C97.5683 84.8684 135.453 64.6701 174.612 69.2022C213.77 73.7343 246.093 102.059 255.89 140.424H270.876C296.818 140.404 320.812 154.018 328.647 178.869C333.9 195.531 331.541 213.199 323.019 227.553" stroke="#3873FF" stroke-width="4" stroke-linecap="round" stroke-linejoin="round"/>
<path fill-rule="evenodd" clip-rule="evenodd" d="M122.857 214.286H294.286V265.714H122.857V214.286ZM140 232.428C140 231.876 140.448 231.429 141 231.429H156.143C156.695 231.429 157.143 231.876 157.143 232.429V247.571C157.143 248.124 156.695 248.571 156.143 248.571H141C140.448 248.571 140 248.124 140 247.571V232.428ZM169.571 231.429C169.019 231.429 168.571 231.876 168.571 232.428V247.571C168.571 248.124 169.019 248.571 169.571 248.571H184.714C185.266 248.571 185.714 248.124 185.714 247.571V232.429C185.714 231.876 185.266 231.429 184.714 231.429H169.571Z" fill="#3873FF"/>
<rect x="137.143" y="280" width="28.5714" height="22.8571" fill="#3873FF"/>
<rect x="180" y="280" width="100" height="22.8571" fill="#3873FF"/>
<path d="M319.146 302.857C319.146 301.753 318.25 300.857 317.146 300.857C316.041 300.857 315.146 301.753 315.146 302.857H319.146ZM317.146 328.572V330.572C318.25 330.572 319.146 329.676 319.146 328.572H317.146ZM100.003 328.572H98.0027C98.0027 329.676 98.8981 330.572 100.003 330.572V328.572ZM102.003 301.429C102.003 300.324 101.107 299.429 100.003 299.429C98.8981 299.429 98.0027 300.324 98.0027 301.429H102.003ZM315.146 302.857V328.572H319.146V302.857H315.146ZM317.146 326.572H100.003V330.572H317.146V326.572ZM102.003 328.572V301.429H98.0027V328.572H102.003Z" fill="#3A3E42"/>
<path fill-rule="evenodd" clip-rule="evenodd" d="M99.9999 300C92.1101 300 85.7142 293.604 85.7142 285.714C85.7142 277.825 92.1101 271.429 99.9999 271.429C107.89 271.429 114.286 277.825 114.286 285.714C114.286 293.604 107.89 300 99.9999 300Z" stroke="#3A3E42" stroke-width="4"/>
<rect opacity="0.1" width="29.6599" height="29.6599" transform="matrix(0 -1 -1 0 342.333 157.932)" fill="#3CE1CD"/>
<rect opacity="0.1" width="29.6599" height="29.6599" transform="matrix(0 -1 -1 0 359.476 113.66)" fill="#3CE1CD"/>
<rect opacity="0.4" width="29.6599" height="29.6599" transform="matrix(0 -1 -1 0 303.775 157.932)" fill="#3CE1CD"/>
<rect opacity="0.4" width="29.6599" height="29.6599" transform="matrix(0 -1 -1 0 320.918 113.66)" fill="#3CE1CD"/>
<rect opacity="0.7" width="29.6599" height="29.6599" transform="matrix(0 -1 -1 0 265.218 157.932)" fill="#3CE1CD"/>
<rect opacity="0.7" width="29.6599" height="29.6599" transform="matrix(0 -1 -1 0 282.36 113.66)" fill="#3CE1CD"/>
<rect width="29.6599" height="29.6599" transform="matrix(0 -1 -1 0 226.66 157.932)" fill="#3CE1CD"/>
<rect width="29.6599" height="29.6599" transform="matrix(0 -1 -1 0 243.803 113.66)" fill="#3CE1CD"/>
<g opacity="0.7">
<rect width="4.41249" height="21.1799" transform="matrix(-0.999891 -0.0147466 -0.0147466 0.999891 209.464 173.065)" fill="#3CE1CD"/>
<path d="M216.998 189.669L213.924 186.503L203.794 196.339L206.868 199.505L216.998 189.669Z" fill="#3CE1CD"/>
<path d="M197 189.374L200.166 186.3L210.002 196.431L206.836 199.504L197 189.374Z" fill="#3CE1CD"/>
</g>
<defs>
<linearGradient id="paint0_linear_3117_15845" x1="200" y1="100.464" x2="200" y2="217.143" gradientUnits="userSpaceOnUse">
<stop stop-color="#3873FF"/>
<stop offset="1" stop-color="#3873FF" stop-opacity="0"/>
</linearGradient>
</defs>
</svg>
