<svg width="400" height="400" viewBox="0 0 400 400" fill="none" xmlns="http://www.w3.org/2000/svg">
<path fill-rule="evenodd" clip-rule="evenodd" d="M200 117.714L283.74 166.338V263.584L200 312.208L116.26 263.584L116.26 166.338L200 117.714Z" fill="url(#paint0_linear_3131_15860)"/>
<path d="M200 79.8962L201.257 77.735C200.48 77.2833 199.52 77.2833 198.744 77.735L200 79.8962ZM316.156 147.429H318.656C318.656 146.538 318.182 145.715 317.412 145.267L316.156 147.429ZM316.156 282.494L317.412 284.655C318.182 284.207 318.656 283.384 318.656 282.494H316.156ZM200 350.026L198.744 352.187C199.52 352.639 200.48 352.639 201.257 352.187L200 350.026ZM83.8442 282.494H81.3442C81.3442 283.384 81.8179 284.207 82.5877 284.655L83.8442 282.494ZM83.8442 147.429L82.5877 145.267C81.8179 145.715 81.3442 146.538 81.3442 147.429H83.8442ZM198.744 82.0575L314.899 149.59L317.412 145.267L201.257 77.735L198.744 82.0575ZM313.656 147.429V282.494H318.656V147.429H313.656ZM314.899 280.332L198.744 347.865L201.257 352.187L317.412 284.655L314.899 280.332ZM201.257 347.865L85.1008 280.332L82.5877 284.655L198.744 352.187L201.257 347.865ZM86.3442 282.494V147.429H81.3442V282.494H86.3442ZM85.1008 149.59L201.257 82.0575L198.744 77.735L82.5877 145.267L85.1008 149.59Z" fill="#3873FF"/>
<path d="M106.805 332.468L51.4287 298.508V132.307L106.805 97.4546" stroke="#3A3E42" stroke-width="5" stroke-linecap="round" stroke-linejoin="round"/>
<path fill-rule="evenodd" clip-rule="evenodd" d="M118.961 104.208C126.421 104.208 132.468 98.1607 132.468 90.7013C132.468 83.2419 126.421 77.1948 118.961 77.1948C111.502 77.1948 105.455 83.2419 105.455 90.7013C105.455 98.1607 111.502 104.208 118.961 104.208Z" stroke="#3A3E42" stroke-width="5"/>
<path fill-rule="evenodd" clip-rule="evenodd" d="M118.961 352.727C126.421 352.727 132.468 346.68 132.468 339.221C132.468 331.761 126.421 325.714 118.961 325.714C111.502 325.714 105.455 331.761 105.455 339.221C105.455 346.68 111.502 352.727 118.961 352.727Z" stroke="#3A3E42" stroke-width="5"/>
<path d="M293.195 332.467L348.571 298.508V132.307L293.195 98.8052" stroke="#3A3E42" stroke-width="5" stroke-linecap="round" stroke-linejoin="round"/>
<path fill-rule="evenodd" clip-rule="evenodd" d="M281.039 104.208C273.579 104.208 267.532 98.1607 267.532 90.7013C267.532 83.2419 273.579 77.1948 281.039 77.1948C288.498 77.1948 294.545 83.2419 294.545 90.7013C294.545 98.1607 288.498 104.208 281.039 104.208Z" stroke="#3A3E42" stroke-width="5"/>
<path fill-rule="evenodd" clip-rule="evenodd" d="M281.039 352.727C273.579 352.727 267.532 346.68 267.532 339.221C267.532 331.761 273.579 325.714 281.039 325.714C288.498 325.714 294.545 331.761 294.545 339.221C294.545 346.68 288.498 352.727 281.039 352.727Z" stroke="#3A3E42" stroke-width="5"/>
<rect opacity="0.1" x="157.143" y="22.8572" width="34.2857" height="34.2857" fill="#3CE1CD"/>
<rect opacity="0.1" x="208.572" y="22.8572" width="34.2857" height="34.2857" fill="#3CE1CD"/>
<rect opacity="0.4" x="157.143" y="65.7144" width="34.2857" height="34.2857" fill="#3CE1CD"/>
<rect opacity="0.4" x="208.572" y="65.7144" width="34.2857" height="34.2857" fill="#3CE1CD"/>
<rect opacity="0.7" x="157.143" y="108.571" width="34.2857" height="34.2857" fill="#3CE1CD"/>
<rect opacity="0.7" x="208.572" y="108.571" width="34.2857" height="34.2857" fill="#3CE1CD"/>
<rect x="157.143" y="151.429" width="34.2857" height="34.2857" fill="#3CE1CD"/>
<rect x="208.572" y="151.429" width="34.2857" height="34.2857" fill="#3CE1CD"/>
<circle cx="200" cy="248.914" r="39.551" fill="url(#paint1_linear_3131_15860)"/>
<path fill-rule="evenodd" clip-rule="evenodd" d="M200 243.264C203.12 243.264 205.65 245.794 205.65 248.914C205.65 252.035 203.12 254.564 200 254.564C196.879 254.564 194.35 252.035 194.35 248.914C194.35 245.794 196.879 243.264 200 243.264Z" fill="white" stroke="white"/>
<path fill-rule="evenodd" clip-rule="evenodd" d="M191.911 193.543C190.762 193.543 189.83 194.475 189.83 195.624V202.583H196.61V208.798H203.39V202.583H210.17V195.624C210.17 194.475 209.238 193.543 208.088 193.543H191.911Z" fill="#3CE1CD"/>
<path d="M205.65 248.914H229.381C229.381 235.354 219.21 220.098 200 219.533" stroke="white"/>
<defs>
<linearGradient id="paint0_linear_3131_15860" x1="200" y1="117.714" x2="200" y2="312.208" gradientUnits="userSpaceOnUse">
<stop stop-color="#3873FF"/>
<stop offset="1" stop-color="#3873FF" stop-opacity="0"/>
</linearGradient>
<linearGradient id="paint1_linear_3131_15860" x1="200" y1="209.363" x2="200" y2="288.465" gradientUnits="userSpaceOnUse">
<stop stop-color="#3873FF"/>
<stop offset="1" stop-color="#3873FF" stop-opacity="0"/>
</linearGradient>
</defs>
</svg>
