<svg width="400" height="400" viewBox="0 0 400 400" fill="none" xmlns="http://www.w3.org/2000/svg">
<path d="M91.4287 302.524V122.774H319.112V302.524" stroke="url(#paint0_linear_3131_15826)" stroke-width="4"/>
<circle cx="116.893" cy="148.238" r="7.4896" fill="#3873FF"/>
<circle cx="137.864" cy="148.238" r="7.4896" fill="#3873FF"/>
<circle cx="158.835" cy="148.238" r="7.4896" fill="#3873FF"/>
<path d="M115.396 167.711H211.262V275.562H115.396V167.711Z" fill="url(#paint1_linear_3131_15826)"/>
<path d="M225.714 228.571H294.286V274.286H225.714V228.571Z" fill="#3873FF"/>
<path d="M225.714 168.571H294.286V214.286H225.714V168.571Z" fill="#3873FF"/>
<rect width="9.25337" height="44.4162" transform="matrix(1 0 0 -1 80.2778 314.508)" fill="#3CE1CD"/>
<path d="M63.9668 279.925L70.5099 286.468L91.4479 265.53L84.9048 258.987L63.9668 279.925Z" fill="#3CE1CD"/>
<path d="M105.908 279.925L99.3651 286.468L78.4271 265.53L84.9702 258.987L105.908 279.925Z" fill="#3CE1CD"/>
<circle cx="84.9376" cy="287.545" r="44.9376" stroke="#3A3E42" stroke-width="4"/>
<path d="M237.171 86.4075L81.3872 86.4075" stroke="#3A3E42" stroke-width="4" stroke-linecap="round" stroke-linejoin="round"/>
<path fill-rule="evenodd" clip-rule="evenodd" d="M65.7144 99.9999C73.6042 99.9999 80.0001 93.604 80.0001 85.7142C80.0001 77.8244 73.6042 71.4285 65.7144 71.4285C57.8246 71.4285 51.4287 77.8244 51.4287 85.7142C51.4287 93.604 57.8246 99.9999 65.7144 99.9999Z" stroke="#3A3E42" stroke-width="4"/>
<path d="M174.258 317.836L330.042 317.836" stroke="#3A3E42" stroke-width="4" stroke-linecap="round" stroke-linejoin="round"/>
<path fill-rule="evenodd" clip-rule="evenodd" d="M345.714 331.429C337.825 331.429 331.429 325.033 331.429 317.143C331.429 309.253 337.825 302.857 345.714 302.857C353.604 302.857 360 309.253 360 317.143C360 325.033 353.604 331.429 345.714 331.429Z" stroke="#3A3E42" stroke-width="4"/>
<rect opacity="0.1" width="31.0997" height="31.0997" transform="matrix(1 0 0 -1 274.286 218.103)" fill="#3CE1CD"/>
<rect opacity="0.1" width="31.0997" height="31.0997" transform="matrix(1 0 0 -1 320.707 236.078)" fill="#3CE1CD"/>
<rect opacity="0.4" width="31.0997" height="31.0997" transform="matrix(1 0 0 -1 274.286 177.673)" fill="#3CE1CD"/>
<rect opacity="0.4" width="31.0997" height="31.0997" transform="matrix(1 0 0 -1 320.707 195.648)" fill="#3CE1CD"/>
<rect opacity="0.7" width="31.0997" height="31.0997" transform="matrix(1 0 0 -1 274.286 137.243)" fill="#3CE1CD"/>
<rect opacity="0.7" width="31.0997" height="31.0997" transform="matrix(1 0 0 -1 320.707 155.219)" fill="#3CE1CD"/>
<rect width="31.0997" height="31.0997" transform="matrix(1 0 0 -1 274.286 96.814)" fill="#3CE1CD"/>
<rect width="31.0997" height="31.0997" transform="matrix(1 0 0 -1 320.707 114.789)" fill="#3CE1CD"/>
<defs>
<linearGradient id="paint0_linear_3131_15826" x1="205.271" y1="122.774" x2="205.271" y2="302.524" gradientUnits="userSpaceOnUse">
<stop stop-color="#3873FF"/>
<stop offset="1" stop-color="#3873FF" stop-opacity="0"/>
</linearGradient>
<linearGradient id="paint1_linear_3131_15826" x1="163.329" y1="167.711" x2="163.329" y2="275.562" gradientUnits="userSpaceOnUse">
<stop stop-color="#3873FF"/>
<stop offset="1" stop-color="#3873FF" stop-opacity="0"/>
</linearGradient>
</defs>
</svg>
