<svg width="38" height="39" viewBox="0 0 38 39" fill="none" xmlns="http://www.w3.org/2000/svg">
<path d="M8.33441 31.4547H26.3958L25.5332 28.5882C25.6611 28.7026 32.9331 35.0999 32.9331 35.0999V7.1174C32.8469 5.378 31.3877 3.8999 29.5789 3.8999L8.34074 3.9038C6.53321 3.9038 5.06641 5.3845 5.06641 7.1239V28.2359C5.06641 30.0702 6.53067 31.4547 8.33441 31.4547ZM21.6952 11.2878L21.6534 11.3034L21.6686 11.2878H21.6952ZM12.0293 12.9375C14.3511 11.2033 16.5031 11.2865 16.5031 11.2865L16.6767 11.462C13.8355 12.1575 12.5473 13.4601 12.5473 13.4601C12.6791 13.4315 18.4158 10.0346 25.3673 13.5459C25.3673 13.5459 24.0765 12.3278 21.4102 11.5478L21.6458 11.3099C22.0144 11.3112 23.9651 11.3814 26.0525 12.9479C26.0525 12.9479 28.3883 17.0429 28.3883 22.0739C28.311 21.9777 26.9392 24.2397 23.409 24.3177C23.409 24.3177 22.8111 23.6235 22.3855 23.0177C24.4502 22.4093 25.2229 21.1925 25.2229 21.1925C21.2037 23.7899 17.6811 23.3843 13.4669 21.6293C13.4277 21.6293 13.4099 21.6111 13.3897 21.5903V21.5825C13.3694 21.563 13.3517 21.5435 13.3124 21.5435H13.2364C12.978 21.3693 12.8057 21.2835 12.8057 21.2835C12.8057 21.2835 13.5771 22.5003 15.5595 23.1087C15.0389 23.7184 14.5233 24.4113 14.5233 24.4113C10.9944 24.3255 9.70747 22.0635 9.70747 22.0635C9.70747 17.0247 12.0293 12.9375 12.0293 12.9375Z" fill="white"/>
<path d="M21.9231 20.5024C22.8237 20.5024 23.557 19.7224 23.557 18.7604C23.557 17.8049 22.8275 17.0249 21.9231 17.0249V17.0288C21.0263 17.0288 20.2916 17.8062 20.2891 18.7682C20.2891 19.7224 21.0225 20.5024 21.9231 20.5024Z" fill="white"/>
<path d="M16.0735 20.5024C16.9741 20.5024 17.7074 19.7224 17.7074 18.7604C17.7074 17.8049 16.9791 17.0249 16.0785 17.0249L16.0735 17.0288C15.1729 17.0288 14.4395 17.8062 14.4395 18.7682C14.4395 19.7224 15.1729 20.5024 16.0735 20.5024Z" fill="white"/>
</svg>
