<svg width="39" height="39" viewBox="0 0 39 39" fill="none" xmlns="http://www.w3.org/2000/svg">
<g clip-path="url(#clip0_3336_15866)">
<path d="M19.5002 1.95108C14.8949 1.90482 10.4594 3.66799 7.1685 6.85309C3.87764 10.0382 2.00071 14.3846 1.9502 18.9371C1.96794 22.5348 3.13872 26.0345 5.29437 28.9333C7.45002 31.8322 10.4796 33.9811 13.948 35.0714C14.8255 35.2291 15.1446 34.7086 15.1446 34.2513V31.3651C10.2625 32.3902 9.22547 29.094 9.22547 29.094C8.90047 28.0592 8.20953 27.1746 7.27901 26.6021C5.68356 25.5611 7.40665 25.5769 7.40665 25.5769C7.95812 25.6498 8.48574 25.8451 8.94995 26.1483C9.41415 26.4515 9.80289 26.8547 10.087 27.3275C10.5821 28.1763 11.3945 28.7989 12.3494 29.0614C13.3042 29.3239 14.3252 29.2053 15.1925 28.7312C15.2817 27.8675 15.6773 27.063 16.3093 26.4601C12.4164 26.0343 8.33201 24.5833 8.33201 18.0696C8.2972 16.3705 8.93229 14.7247 10.103 13.4801C9.56981 12.0213 9.63276 10.4146 10.2785 9.00098C10.2785 9.00098 11.7622 8.5436 15.0648 10.7359C17.9397 9.97856 20.965 9.97856 23.8398 10.7359C27.1903 8.5436 28.6262 9.00098 28.6262 9.00098C29.2719 10.4146 29.3349 12.0213 28.8017 13.4801C29.9996 14.7018 30.6691 16.3367 30.6684 18.0381C30.6684 24.5675 26.5521 26.0027 22.6911 26.4286C23.1139 26.8343 23.4404 27.3276 23.6473 27.873C23.8542 28.4184 23.9363 29.0024 23.8877 29.5829V34.2355C23.8877 34.7875 24.2068 35.2291 25.0843 35.0556C28.5428 33.9586 31.5622 31.8091 33.7112 28.9144C35.8602 26.0196 37.0288 22.5276 37.0502 18.9371C36.9997 14.3846 35.1227 10.0382 31.8319 6.85309C28.541 3.66799 24.1055 1.90482 19.5002 1.95108Z" fill="white"/>
</g>
<defs>
<clipPath id="clip0_3336_15866">
<rect width="39" height="39" fill="white"/>
</clipPath>
</defs>
</svg>
