<svg width="39" height="39" viewBox="0 0 39 39" fill="none" xmlns="http://www.w3.org/2000/svg">
<path d="M7.1045 11.804C7.12441 11.6062 7.09774 11.4064 7.02664 11.2208C6.95553 11.0351 6.84196 10.8687 6.695 10.7347L3.6595 7.05087V6.5H13.0813L20.3645 22.5956L26.767 6.5H35.75V7.05087L33.1549 9.555C33.0449 9.6399 32.9601 9.75308 32.9094 9.88244C32.8588 10.0118 32.8442 10.1525 32.8673 10.2895V28.7072C32.8442 28.8442 32.8588 28.9849 32.9094 29.1143C32.9601 29.2437 33.0449 29.3568 33.1549 29.4417L35.6899 31.9475V32.5H22.945V31.9491L25.5694 29.3816C25.8278 29.1216 25.8278 29.0452 25.8278 28.6487V13.7605L18.5283 32.4382H17.5435L9.04475 13.7605V26.2795C8.97488 26.806 9.14875 27.3357 9.516 27.716L12.9301 31.889V32.4382H3.25V31.889L6.6625 27.716C6.84306 27.5276 6.97706 27.2996 7.05381 27.0501C7.13055 26.8007 7.14791 26.5368 7.1045 26.2795V11.804Z" fill="white"/>
</svg>
