<svg width="39" height="39" viewBox="0 0 39 39" fill="none" xmlns="http://www.w3.org/2000/svg">
<path d="M37.0502 9.07836C35.7346 9.63695 34.3413 10.0032 32.9154 10.1652C34.412 9.31081 35.5375 7.95583 36.0814 6.35349C34.6634 7.15598 33.1168 7.72122 31.5061 8.02561C30.8279 7.33493 30.0121 6.78583 29.1084 6.4118C28.2047 6.03778 27.2321 5.84667 26.2499 5.85014C22.2731 5.85014 19.0492 8.93845 19.0492 12.7434C19.0492 13.2826 19.1123 13.8098 19.2352 14.3131C16.3826 14.1812 13.5896 13.4726 11.0344 12.2326C8.47918 10.9925 6.21793 9.24827 4.39491 7.11106C3.75578 8.15938 3.41986 9.35611 3.42264 10.5747C3.42264 12.9686 4.69326 15.0792 6.62376 16.3128C5.4821 16.277 4.36511 15.9807 3.36297 15.4478V15.5331C3.36297 18.8739 5.84629 21.6602 9.13692 22.2949C8.51848 22.4545 7.88136 22.5353 7.24152 22.5355C6.77645 22.5355 6.32541 22.4929 5.88491 22.4076C6.35539 23.7861 7.25575 24.9879 8.46093 25.8462C9.6661 26.7045 11.1163 27.1766 12.6101 27.197C10.0479 29.1157 6.90249 30.1523 3.66834 30.1437C3.08568 30.1437 2.51355 30.1095 1.9502 30.0481C5.2518 32.0798 9.08005 33.1557 12.9874 33.1501C26.2324 33.1501 33.4735 22.6447 33.4735 13.5351L33.4489 12.6427C34.8615 11.6764 36.0817 10.4687 37.0502 9.07836Z" fill="white"/>
</svg>
