<svg width="216" height="71" viewBox="0 0 216 71" fill="none" xmlns="http://www.w3.org/2000/svg">
<g style="mix-blend-mode:luminosity">
<g style="mix-blend-mode:luminosity">
<rect x="0.0351562" width="215.012" height="70.5508" rx="8" fill="white"/>
</g>
<g style="mix-blend-mode:luminosity" clip-path="url(#clip0_3156_15469)">
<path d="M55.0844 20.1573C51.4412 20.1573 48.5114 23.0622 48.4859 26.6744V33.8987C47.7981 33.9492 47.1102 33.9745 46.3968 33.9745C45.6835 33.9745 44.9956 33.9997 44.3078 34.0503V26.6744C44.2568 23.1128 41.327 20.2331 37.7093 20.2331C34.0916 20.2331 31.1618 23.0875 31.1108 26.6744V43.9521C31.1618 47.5138 34.0916 50.3934 37.7093 50.3934C41.327 50.3934 44.2568 47.539 44.3078 43.9521V36.7278C44.9956 36.6773 45.6835 36.652 46.3968 36.652C47.1102 36.652 47.7981 36.6268 48.4859 36.5763V43.9521C48.5369 47.5138 51.4667 50.3934 55.0844 50.3934C58.7021 50.3934 61.6319 47.539 61.6828 43.9521V26.6744C61.6574 23.0875 58.7021 20.1573 55.0844 20.1573ZM37.7093 22.8349C39.8493 22.8349 41.6072 24.5526 41.6072 26.6744V34.3281C39.671 34.606 37.7857 35.1364 36.0024 35.8942C35.2381 36.2226 34.4992 36.652 33.8368 37.1825V26.6744C33.8114 24.5526 35.5693 22.8349 37.7093 22.8349ZM41.5817 43.9521C41.5817 46.074 39.8493 47.8169 37.6838 47.8169C35.5183 47.8169 33.7859 46.0992 33.7859 43.9521V42.2092C33.7859 40.6683 35.0088 39.2285 37.0469 38.3192C38.4991 37.7129 40.0022 37.2583 41.5563 37.0057L41.5817 43.9521ZM55.0844 47.7916C52.9443 47.7916 51.1865 46.074 51.1865 43.9521V36.2984C53.1227 36.0205 55.008 35.4901 56.7913 34.7323C57.5556 34.4039 58.2944 33.9745 58.9568 33.444V43.9521C58.9568 46.074 57.2244 47.7916 55.0844 47.7916ZM55.6958 32.2821C54.2437 32.8883 52.7405 33.343 51.1865 33.5956V26.6744C51.1865 24.5526 52.9189 22.8096 55.0844 22.8096C57.2499 22.8096 58.9823 24.5273 58.9823 26.6744V28.4173C58.9568 29.9329 57.734 31.398 55.6958 32.2821Z" fill="url(#paint0_linear_3156_15469)"/>
<path d="M147.972 31.1706C145.068 31.1706 142.418 32.9136 141.323 35.5911C140.202 38.2687 140.813 41.3251 142.877 43.3711C144.941 45.4172 148.049 46.0234 150.724 44.912C153.399 43.8006 155.182 41.1988 155.182 38.3192C155.182 34.3786 151.947 31.1706 147.972 31.1706ZM147.972 43.1438C146.011 43.1438 144.227 41.9818 143.463 40.1631C142.699 38.3697 143.132 36.2731 144.507 34.9091C145.909 33.5198 147.998 33.1156 149.807 33.8482C151.615 34.606 152.813 36.3489 152.813 38.3192C152.838 40.9967 150.647 43.1438 147.972 43.1438ZM104.127 31.2212C103.821 31.2212 103.516 31.3475 103.312 31.5495C103.082 31.7769 102.981 32.0547 102.981 32.3578V33.0399C100.102 30.4128 95.6433 30.5391 92.9427 33.3177C90.2167 36.0963 90.2167 40.5168 92.9427 43.2954C95.6687 46.0739 100.127 46.2002 102.981 43.5732V44.2552C102.981 44.8867 103.516 45.4172 104.152 45.4172C104.789 45.4172 105.324 44.8867 105.324 44.2552V32.3831C105.324 32.08 105.197 31.7769 104.993 31.5748C104.738 31.3475 104.458 31.2212 104.127 31.2212ZM98.089 43.1438C96.1273 43.1438 94.344 41.9566 93.5796 40.1631C92.8153 38.3697 93.2485 36.2731 94.6242 34.9091C96.0254 33.5198 98.1145 33.1156 99.9233 33.8734C101.732 34.6312 102.93 36.3742 102.93 38.3444C102.93 39.6327 102.42 40.8452 101.503 41.7545C100.586 42.6639 99.3883 43.1438 98.089 43.1438ZM116.509 32.3326C116.509 32.9641 115.974 33.4945 115.337 33.4945C115.311 33.4945 115.286 33.4945 115.26 33.4945C115.235 33.4945 115.209 33.4945 115.184 33.4945C113.885 33.4945 112.662 33.9997 111.745 34.9091C110.827 35.8184 110.318 37.0309 110.318 38.3192C110.267 38.5465 110.292 42.2344 110.292 44.4068C110.241 44.7099 110.089 44.9878 109.834 45.1646C109.579 45.3414 109.273 45.4172 108.968 45.3919C108.382 45.2909 107.974 44.7857 107.974 44.1795V32.3578C107.974 32.0295 108.101 31.7263 108.331 31.5243C108.56 31.2969 108.866 31.1959 109.197 31.1959C109.834 31.2464 110.318 31.7769 110.292 32.4084V33.0146C111.617 31.8021 113.35 31.1201 115.158 31.1201H115.311C115.617 31.1201 115.923 31.2464 116.126 31.4485C116.407 31.7263 116.509 32.0295 116.509 32.3326ZM169.245 37.1572V44.2552C169.245 44.8867 168.71 45.4172 168.073 45.4172C167.436 45.4172 166.901 44.8867 166.901 44.2552V43.0933V37.1572C166.901 36.1468 166.468 35.1869 165.73 34.5049C164.991 33.8229 163.997 33.4693 162.978 33.5451C161.042 33.6714 159.59 35.3638 159.59 37.2835V38.6981V43.0933V44.2552C159.59 44.8867 159.055 45.4172 158.418 45.4172C157.781 45.4172 157.246 44.8867 157.246 44.2552V32.3831C157.246 31.7516 157.781 31.2212 158.418 31.2212C159.055 31.2212 159.59 31.7516 159.59 32.3831V32.4841C160.558 31.7263 161.73 31.2717 162.953 31.2212C164.583 31.1454 166.188 31.7263 167.386 32.8378C168.583 33.9492 169.245 35.5406 169.245 37.1572ZM88.4843 26.3713V44.2805C88.4588 44.8867 87.9493 45.3919 87.3379 45.3919C86.7264 45.3919 86.2169 44.912 86.1914 44.2805V36.1721H74.1664V44.3058C74.141 44.912 73.6314 45.4172 73.02 45.4172C72.4085 45.4172 71.899 44.9373 71.8735 44.3058V26.3713C71.899 25.765 72.4085 25.2598 73.02 25.2598C73.6314 25.2598 74.141 25.7398 74.1664 26.3713V34.1766H86.1914V26.3713C86.2169 25.765 86.7264 25.2598 87.3379 25.2598C87.9493 25.2598 88.4588 25.7398 88.4843 26.3713ZM138.648 37.7129V44.2552C138.648 44.8867 138.113 45.4172 137.476 45.4172C136.839 45.4172 136.304 44.8867 136.304 44.2552V38.2939V36.7278C136.329 35.5658 135.718 34.4544 134.699 33.8734C133.68 33.2672 132.406 33.2672 131.387 33.8734C130.368 34.4797 129.757 35.5658 129.782 36.7278V44.2552C129.782 44.8867 129.247 45.4172 128.61 45.4172C127.973 45.4172 127.438 44.8867 127.438 44.2552V38.2939V36.7278C127.464 35.5658 126.852 34.4544 125.833 33.8734C124.814 33.2672 123.54 33.2672 122.521 33.8734C121.502 34.4797 120.891 35.5658 120.916 36.7278V44.2552C120.916 44.8867 120.381 45.4172 119.744 45.4172C119.107 45.4172 118.572 44.8867 118.572 44.2552V32.4084C118.572 31.8021 119.031 31.2717 119.642 31.2464C120.254 31.1959 120.814 31.6506 120.891 32.2568C123.336 30.4886 126.75 30.9938 128.585 33.3682C130.037 31.4738 132.559 30.7412 134.826 31.499C137.094 32.2568 138.622 34.3786 138.622 36.7531L138.648 37.7129ZM183.793 32.9136L175.92 49.8124C175.615 50.3429 174.952 50.5449 174.392 50.2923C173.831 50.0397 173.576 49.4082 173.78 48.8273L175.895 44.2805L170.596 32.9136C170.366 32.5347 170.366 32.0547 170.621 31.6758C170.876 31.2969 171.309 31.0949 171.768 31.1454C172.226 31.1959 172.608 31.499 172.736 31.9284L177.194 41.4767L181.652 31.9284C181.805 31.499 182.187 31.1959 182.621 31.1454C183.079 31.0949 183.512 31.2969 183.767 31.6758C184.022 32.0295 184.022 32.5094 183.793 32.9136Z" fill="#555B68"/>
</g>
</g>
<defs>
<linearGradient id="paint0_linear_3156_15469" x1="33.0427" y1="48.5545" x2="59.4389" y2="21.7851" gradientUnits="userSpaceOnUse">
<stop stop-color="#00AEE9"/>
<stop offset="1" stop-color="#69FABD"/>
</linearGradient>
<clipPath id="clip0_3156_15469">
<rect width="152.86" height="30.236" fill="white" transform="translate(31.1108 20.1573)"/>
</clipPath>
</defs>
</svg>
