<svg width="216" height="71" viewBox="0 0 216 71" fill="none" xmlns="http://www.w3.org/2000/svg">
<g style="mix-blend-mode:luminosity">
<g style="mix-blend-mode:luminosity">
<rect x="0.0473633" width="215.012" height="70.5508" rx="8" fill="white"/>
</g>
<g style="mix-blend-mode:luminosity" clip-path="url(#clip0_3156_15477)">
<path d="M72.7507 33.2594H60.3834V29.2279H75.9525V25.1964H60.3549C59.2716 25.1964 58.2328 25.6182 57.4668 26.369C56.7008 27.1198 56.2705 28.1381 56.2705 29.1999V33.2873C56.2705 34.3491 56.7008 35.3674 57.4668 36.1182C58.2328 36.869 59.2716 37.2908 60.3549 37.2908H72.7222V41.3223H56.5647V45.3538H72.7507C73.834 45.3538 74.8728 44.932 75.6388 44.1812C76.4048 43.4304 76.8351 42.4121 76.8351 41.3503V37.2628C76.8351 36.201 76.4048 35.1827 75.6388 34.4319C74.8728 33.6811 73.834 33.2594 72.7507 33.2594Z" fill="#212121"/>
<path d="M96.7001 25.1964H84.2871C83.7508 25.1964 83.2199 25.3 82.7245 25.5012C82.2291 25.7024 81.779 25.9974 81.4 26.3692C81.021 26.741 80.7204 27.1823 80.5154 27.668C80.3105 28.1537 80.2052 28.6743 80.2056 29.1999V41.3503C80.2052 41.8759 80.3105 42.3964 80.5154 42.8821C80.7204 43.3679 81.021 43.8092 81.4 44.181C81.779 44.5528 82.2291 44.8477 82.7245 45.049C83.2199 45.2502 83.7508 45.3538 84.2871 45.3538H96.7001C97.7833 45.3538 98.8222 44.932 99.5881 44.1812C100.354 43.4304 100.784 42.4121 100.784 41.3503V29.1999C100.784 28.1381 100.354 27.1198 99.5881 26.369C98.8222 25.6182 97.7833 25.1964 96.7001 25.1964V25.1964ZM96.6715 41.3223H84.3328V29.2279H96.6715V41.3223Z" fill="#212121"/>
<path d="M140.142 25.1964H128.038C126.955 25.1964 125.916 25.6182 125.15 26.369C124.384 27.1198 123.954 28.1381 123.954 29.1999V45.3538H128.067V38.7298H140.114V45.3538H144.227V29.1999C144.227 28.674 144.122 28.1533 143.917 27.6674C143.712 27.1815 143.411 26.74 143.031 26.3682C142.652 25.9964 142.202 25.7015 141.706 25.5004C141.21 25.2993 140.679 25.196 140.142 25.1964ZM140.114 34.6984H128.067V29.2279H140.114V34.6984Z" fill="#212121"/>
<path d="M188.298 25.1964H176.196C175.659 25.1953 175.127 25.2981 174.631 25.4988C174.134 25.6995 173.683 25.9942 173.303 26.366C172.923 26.7379 172.621 27.1796 172.415 27.6659C172.209 28.1522 172.104 28.6734 172.104 29.1999V45.3538H176.216V38.7298H188.27V45.3538H192.382V29.1999C192.382 28.1381 191.952 27.1198 191.186 26.369C190.42 25.6182 189.381 25.1964 188.298 25.1964ZM188.27 34.6984H176.225V29.2279H188.27V34.6984Z" fill="#212121"/>
<path d="M164.337 41.3223H162.692L156.797 26.8762C156.595 26.3805 156.247 25.9555 155.796 25.6561C155.346 25.3567 154.814 25.1965 154.269 25.1964H150.608C149.886 25.1964 149.193 25.4775 148.683 25.9779C148.173 26.4782 147.886 27.1569 147.886 27.8645V45.3538H151.999V29.2279H153.644L159.536 43.674C159.737 44.1696 160.085 44.5948 160.535 44.8943C160.985 45.1938 161.517 45.3538 162.061 45.3538H165.723C166.445 45.3538 167.137 45.0727 167.647 44.5723C168.158 44.072 168.445 43.3933 168.445 42.6857V25.1964H164.332L164.337 41.3223Z" fill="#212121"/>
<path d="M108.542 25.1964H104.429V41.3503C104.429 42.4121 104.859 43.4304 105.625 44.1812C106.391 44.932 107.43 45.3538 108.513 45.3538H120.88V41.3223H108.542V25.1964Z" fill="#212121"/>
<path fill-rule="evenodd" clip-rule="evenodd" d="M27.0774 40.5664C27.1504 40.4889 27.2386 40.4266 27.3368 40.3833C27.435 40.34 27.541 40.3166 27.6486 40.3144H45.5969C45.6729 40.3155 45.7469 40.338 45.8101 40.3793C45.8733 40.4206 45.9229 40.4789 45.9531 40.5473C45.9833 40.6156 45.9927 40.691 45.9802 40.7644C45.9676 40.8378 45.9338 40.9062 45.8826 40.9611L42.0781 45.1018C42.0051 45.1793 41.9169 45.2416 41.8187 45.2849C41.7206 45.3282 41.6145 45.3516 41.5069 45.3538H23.5471C23.4712 45.3527 23.3972 45.3302 23.334 45.2889C23.2708 45.2476 23.2212 45.1893 23.191 45.1209C23.1608 45.0526 23.1514 44.9772 23.1639 44.9038C23.1764 44.8304 23.2103 44.762 23.2615 44.7071L27.0774 40.5664ZM45.8997 37.134C45.9509 37.189 45.9848 37.2574 45.9973 37.3308C46.0098 37.4042 46.0004 37.4796 45.9702 37.5479C45.9401 37.6163 45.8904 37.6746 45.8272 37.7159C45.764 37.7572 45.69 37.7797 45.6141 37.7808L27.6601 37.7948C27.5524 37.7926 27.4464 37.7692 27.3482 37.7259C27.2501 37.6826 27.1618 37.6203 27.0888 37.5428L23.2558 33.4161C23.2046 33.3611 23.1707 33.2928 23.1582 33.2194C23.1457 33.146 23.1551 33.0706 23.1853 33.0022C23.2154 32.9339 23.2651 32.8756 23.3283 32.8343C23.3915 32.793 23.4655 32.7705 23.5414 32.7694L41.4955 32.7554C41.6031 32.7576 41.7091 32.781 41.8073 32.8243C41.9054 32.8676 41.9937 32.9299 42.0667 33.0074L45.8997 37.134ZM27.0774 25.4484C27.1504 25.3709 27.2386 25.3086 27.3368 25.2653C27.435 25.222 27.541 25.1986 27.6486 25.1964L45.6084 25.2104C45.6843 25.2115 45.7583 25.234 45.8215 25.2753C45.8847 25.3166 45.9344 25.3749 45.9645 25.4432C45.9947 25.5116 46.0041 25.587 45.9916 25.6604C45.9791 25.7338 45.9452 25.8021 45.894 25.8571L42.0781 29.9838C42.0051 30.0613 41.9169 30.1236 41.8187 30.1669C41.7206 30.2102 41.6145 30.2336 41.5069 30.2358H23.5471C23.4712 30.2347 23.3972 30.2122 23.334 30.1709C23.2708 30.1296 23.2212 30.0712 23.191 30.0029C23.1608 29.9346 23.1514 29.8592 23.1639 29.7858C23.1764 29.7123 23.2103 29.644 23.2615 29.589L27.0774 25.4484Z" fill="url(#paint0_linear_3156_15477)"/>
</g>
</g>
<defs>
<linearGradient id="paint0_linear_3156_15477" x1="23.847" y1="45.7933" x2="44.8793" y2="24.3362" gradientUnits="userSpaceOnUse">
<stop stop-color="#9945FF"/>
<stop offset="0.14" stop-color="#8A53F4"/>
<stop offset="0.42" stop-color="#6377D6"/>
<stop offset="0.79" stop-color="#24B0A7"/>
<stop offset="0.99" stop-color="#00D18C"/>
<stop offset="1" stop-color="#00D18C"/>
</linearGradient>
<clipPath id="clip0_3156_15477">
<rect width="169.658" height="20.1574" fill="white" transform="translate(22.7246 25.1964)"/>
</clipPath>
</defs>
</svg>
