<svg width="60" height="60" viewBox="0 0 60 60" fill="none" xmlns="http://www.w3.org/2000/svg">
<path d="M29.9902 5C43.8036 5 55 16.1942 55 30.0049C55 43.8157 43.8036 55 30 55C16.1865 55 5.00001 43.8058 5.00001 30.0049C4.99017 16.1942 16.1865 5 29.9902 5Z" fill="#8247E5"/>
<path d="M37.7122 24.5591C37.1613 24.2256 36.457 24.2256 35.8338 24.5591L31.4449 27.3034L28.4648 29.0471L24.1571 31.7819C23.6063 32.1154 22.9019 32.1154 22.2787 31.7819L18.9103 29.6189C18.3594 29.2853 17.9711 28.6183 17.9711 27.8751V23.7206C17.9711 23.0536 18.2872 22.3961 18.9103 21.9769L22.2787 19.8996C22.8296 19.5661 23.534 19.5661 24.1571 19.8996L27.5256 22.0626C28.0765 22.3961 28.4648 23.0631 28.4648 23.8064V26.5506L31.4449 24.7211V21.9006C31.4449 21.2336 31.1288 20.5761 30.5057 20.1569L24.2384 16.2501C23.6875 15.9166 22.9831 15.9166 22.36 16.2501L15.9392 20.2426C15.3161 20.5761 15 21.2432 15 21.9006V29.7046C15 30.3716 15.3161 31.0291 15.9392 31.4484L22.2878 35.3551C22.8387 35.6886 23.543 35.6886 24.1662 35.3551L28.4738 32.6966L31.4539 30.8671L35.7616 28.2086C36.3125 27.8751 37.0169 27.8751 37.64 28.2086L41.0084 30.2859C41.5593 30.6194 41.9476 31.2864 41.9476 32.0296V36.1841C41.9476 36.8511 41.6315 37.5086 41.0084 37.9279L37.7213 40.0051C37.1704 40.3386 36.466 40.3386 35.8429 40.0051L32.4654 37.9279C31.9145 37.5944 31.5262 36.9273 31.5262 36.1841V33.5256L28.5461 35.3551V38.0994C28.5461 38.7664 28.8621 39.4239 29.4853 39.8431L35.8338 43.7499C36.3847 44.0834 37.0891 44.0834 37.7122 43.7499L44.0608 39.8431C44.6117 39.5096 45 38.8426 45 38.0994V30.2096C45 29.5426 44.6839 28.8851 44.0608 28.4659L37.7122 24.5591Z" fill="white"/>
</svg>
