<svg width="61" height="61" viewBox="0 0 61 61" fill="none" xmlns="http://www.w3.org/2000/svg">
<circle cx="30.5" cy="30.5" r="30.5" fill="#F6F7FD"/>
<path d="M41.2044 22.9192L27.4892 36.6344C27.8959 37.2167 28.2417 37.8455 28.5194 38.512L31.9415 46.7519L41.2044 22.9174V22.9192ZM25.0758 34.221L38.7928 20.504L14.9583 29.7669L23.1981 33.1908C23.8595 33.4651 24.4891 33.8105 25.0758 34.221ZM45.8914 20.1349L35.093 47.9165C34.4122 49.6723 32.4467 50.5735 30.7052 49.9303C30.281 49.7736 29.8938 49.5308 29.5679 49.2172C29.242 48.9036 28.9844 48.5261 28.8114 48.1082L25.3893 39.8683C24.7235 38.2626 23.4476 36.9867 21.8418 36.3208L13.6002 32.8988C11.8909 32.1875 11.1098 30.2113 11.8587 28.4805C12.0423 28.0576 12.3078 27.6752 12.6399 27.3554C12.972 27.0356 13.3641 26.7847 13.7937 26.6172L41.5753 15.8152C42.1789 15.5719 42.8408 15.5116 43.4785 15.6416C44.1162 15.7717 44.7016 16.0864 45.1618 16.5466C45.622 17.0068 45.9367 17.5922 46.0668 18.2299C46.1968 18.8676 46.1364 19.5295 45.8932 20.1331L45.8914 20.1349Z" fill="#2C3ACF"/>
</svg>
