<svg width="122" height="40" viewBox="0 0 122 40" fill="none" xmlns="http://www.w3.org/2000/svg">
<g clip-path="url(#clip0_3111_15970)">
<path d="M49.3556 13.0412C49.5203 13.0412 49.6916 13.0831 49.8699 13.1664C50.0482 13.2496 50.1852 13.3681 50.2814 13.5214L55.5086 21.5971L54.6235 21.5552L59.9534 13.5214C60.1725 13.2016 60.4541 13.0412 60.7972 13.0412C61.0712 13.0412 61.315 13.1424 61.5276 13.3436C61.7401 13.5454 61.8464 13.7992 61.8464 14.1052V26.6051C61.8464 26.911 61.7502 27.1654 61.5583 27.3667C61.3659 27.5684 61.1125 27.669 60.7967 27.669C60.4672 27.669 60.2033 27.5684 60.0043 27.3667C59.8053 27.1649 59.7061 26.911 59.7061 26.6051V16.0256L60.3645 16.1717L55.837 23.162C55.7408 23.2872 55.6174 23.3949 55.4668 23.4854C55.3156 23.5763 55.158 23.6141 54.9933 23.6003C54.8421 23.6141 54.688 23.5763 54.5303 23.4854C54.3727 23.3949 54.2452 23.2872 54.1495 23.162L49.7868 16.2759L50.2809 15.4413V26.6051C50.2809 26.911 50.1882 27.1654 50.0029 27.3667C49.8175 27.5684 49.5737 27.669 49.2725 27.669C48.9843 27.669 48.7476 27.5684 48.5627 27.3667C48.3774 27.1649 48.2847 26.911 48.2847 26.6051V14.1057C48.2847 13.8135 48.391 13.5632 48.6035 13.3543C48.8166 13.146 49.0675 13.0412 49.3556 13.0412Z" fill="#0D3EF4"/>
<path d="M73.7627 16.5263C74.0508 16.5263 74.2941 16.6274 74.4931 16.8287C74.6916 17.0304 74.7913 17.2843 74.7913 17.5902V26.6052C74.7913 26.9112 74.6916 27.1655 74.4931 27.3668C74.2941 27.5685 74.0508 27.6692 73.7627 27.6692C73.461 27.6692 73.2137 27.5685 73.0217 27.3668C72.8293 27.165 72.7336 26.9112 72.7336 26.6052V25.1026L73.1451 25.1654C73.1451 25.4157 73.0454 25.694 72.8469 26C72.648 26.3059 72.377 26.6017 72.0339 26.8867C71.6909 27.1717 71.2859 27.4082 70.82 27.5961C70.3535 27.7841 69.8528 27.8781 69.3179 27.8781C68.3714 27.8781 67.5206 27.6314 66.766 27.1374C66.0114 26.6435 65.4145 25.9658 64.9758 25.1031C64.5365 24.2409 64.3174 23.2597 64.3174 22.1606C64.3174 21.0338 64.5365 20.0424 64.9758 19.1869C65.4145 18.3314 66.0079 17.6602 66.7559 17.1734C67.5034 16.6867 68.3371 16.4431 69.2564 16.4431C69.8463 16.4431 70.3913 16.5406 70.8925 16.7352C71.3932 16.9303 71.8289 17.1806 72.1992 17.4865C72.5694 17.7925 72.8575 18.1163 73.0635 18.457C73.2696 18.7982 73.3723 19.1215 73.3723 19.4275L72.7346 19.4903V17.5913C72.7346 17.2991 72.8303 17.0488 73.0227 16.8399C73.2137 16.6305 73.4605 16.5263 73.7627 16.5263ZM69.5647 25.9581C70.2094 25.9581 70.7751 25.7911 71.2627 25.4575C71.7498 25.1235 72.1301 24.6679 72.4047 24.0907C72.6792 23.5136 72.8162 22.87 72.8162 22.1606C72.8162 21.4373 72.6787 20.7907 72.4047 20.2196C72.1301 19.6496 71.7493 19.1971 71.2627 18.8631C70.7756 18.529 70.2094 18.3625 69.5647 18.3625C68.9335 18.3625 68.3709 18.5295 67.8772 18.8631C67.3831 19.1971 66.9992 19.6491 66.7247 20.2196C66.4502 20.7902 66.3131 21.4373 66.3131 22.1606C66.3131 22.87 66.4502 23.5136 66.7247 24.0907C66.9992 24.6679 67.3795 25.1235 67.8666 25.4575C68.3537 25.7916 68.9194 25.9581 69.5647 25.9581Z" fill="#0D3EF4"/>
<path d="M77.0139 25.9581C76.8905 25.7635 76.8356 25.5377 76.8492 25.2798C76.8628 25.0224 77.0069 24.8032 77.2814 24.6224C77.4733 24.4973 77.6758 24.4452 77.8884 24.4661C78.101 24.4871 78.3035 24.5948 78.4954 24.7894C78.8792 25.221 79.3084 25.5617 79.7814 25.812C80.2549 26.0623 80.8276 26.1874 81.4996 26.1874C81.7741 26.1736 82.0552 26.1282 82.3433 26.0515C82.6315 25.9754 82.8783 25.836 83.0843 25.6342C83.2903 25.4325 83.3931 25.1368 83.3931 24.7476C83.3931 24.4002 83.2833 24.1214 83.0637 23.913C82.844 23.7041 82.5559 23.534 82.1993 23.4017C81.8421 23.2699 81.4583 23.1479 81.0467 23.0365C80.6075 22.9114 80.1652 22.7724 79.7194 22.6192C79.2736 22.4665 78.8722 22.2678 78.5155 22.0247C78.1584 21.7816 77.8672 21.4649 77.641 21.0752C77.4149 20.686 77.3015 20.2059 77.3015 19.6353C77.3015 18.9816 77.4834 18.4182 77.8471 17.9452C78.2103 17.4722 78.6838 17.1035 79.2671 16.8394C79.8499 16.5753 80.4846 16.4431 81.1707 16.4431C81.5686 16.4431 81.9867 16.4952 82.4259 16.5993C82.8647 16.7035 83.2903 16.8675 83.7019 17.0897C84.1134 17.3124 84.4701 17.6045 84.7718 17.9662C84.9088 18.147 84.9879 18.3625 85.0085 18.6133C85.0292 18.8636 84.9159 19.0863 84.669 19.2809C84.5043 19.4203 84.3053 19.4826 84.0721 19.4688C83.8389 19.455 83.6465 19.3784 83.4959 19.2395C83.2349 18.9054 82.8989 18.645 82.4874 18.457C82.0759 18.269 81.6094 18.1751 81.088 18.1751C80.8271 18.1751 80.5561 18.2134 80.275 18.29C79.994 18.3666 79.7572 18.5025 79.5653 18.6971C79.3729 18.8922 79.2771 19.1772 79.2771 19.5526C79.2771 19.9004 79.3905 20.1788 79.6167 20.3872C79.8428 20.5961 80.1415 20.7697 80.5118 20.9087C80.882 21.0481 81.2865 21.1732 81.7258 21.2841C82.1509 21.3954 82.5725 21.5277 82.9916 21.6804C83.4097 21.8337 83.787 22.0318 84.1235 22.275C84.4595 22.5186 84.734 22.8317 84.9466 23.2137C85.1592 23.5963 85.2654 24.0795 85.2654 24.6638C85.2654 25.3457 85.07 25.9264 84.6791 26.406C84.2882 26.8861 83.7941 27.2513 83.1971 27.5016C82.6002 27.7519 81.9726 27.877 81.3142 27.877C80.5324 27.877 79.7532 27.734 78.9784 27.449C78.2037 27.1655 77.5489 26.668 77.0139 25.9581Z" fill="#0D3EF4"/>
<path d="M86.8508 25.9581C86.7274 25.7635 86.6725 25.5377 86.6861 25.2798C86.6997 25.0224 86.8438 24.8032 87.1183 24.6224C87.3102 24.4973 87.5127 24.4452 87.7253 24.4661C87.9379 24.4871 88.1404 24.5948 88.3323 24.7894C88.7161 25.221 89.1453 25.5617 89.6183 25.812C90.0918 26.0623 90.6645 26.1874 91.3365 26.1874C91.611 26.1736 91.8921 26.1282 92.1802 26.0515C92.4684 25.9754 92.7152 25.836 92.9212 25.6342C93.1272 25.4325 93.23 25.1368 93.23 24.7476C93.23 24.4002 93.1202 24.1214 92.9006 23.913C92.6809 23.7041 92.3928 23.534 92.0362 23.4017C91.679 23.2699 91.2952 23.1479 90.8836 23.0365C90.4444 22.9114 90.0021 22.7724 89.5563 22.6192C89.1105 22.4665 88.7091 22.2678 88.3524 22.0247C87.9953 21.7816 87.7041 21.4649 87.478 21.0752C87.2518 20.686 87.1385 20.2059 87.1385 19.6353C87.1385 18.9816 87.3203 18.4182 87.684 17.9452C88.0472 17.4722 88.5207 17.1035 89.104 16.8394C89.6868 16.5753 90.3215 16.4431 91.0076 16.4431C91.4055 16.4431 91.8236 16.4952 92.2628 16.5993C92.7016 16.7035 93.1272 16.8675 93.5388 17.0897C93.9503 17.3124 94.307 17.6045 94.6087 17.9662C94.7457 18.147 94.8248 18.3625 94.8454 18.6133C94.8661 18.8636 94.7528 19.0863 94.5059 19.2809C94.3412 19.4203 94.1422 19.4826 93.909 19.4688C93.6758 19.455 93.4834 19.3784 93.3328 19.2395C93.0718 18.9054 92.7358 18.645 92.3243 18.457C91.9128 18.269 91.4463 18.1751 90.925 18.1751C90.664 18.1751 90.393 18.2134 90.1119 18.29C89.8309 18.3666 89.5941 18.5025 89.4022 18.6971C89.2098 18.8922 89.1141 19.1772 89.1141 19.5526C89.1141 19.9004 89.2274 20.1788 89.4536 20.3872C89.6797 20.5961 89.9785 20.7697 90.3487 20.9087C90.7189 21.0481 91.1234 21.1732 91.5627 21.2841C91.9878 21.3954 92.4094 21.5277 92.8285 21.6804C93.2466 21.8337 93.6239 22.0318 93.9604 22.275C94.2964 22.5186 94.5709 22.8317 94.7835 23.2137C94.9961 23.5963 95.1023 24.0795 95.1023 24.6638C95.1023 25.3457 94.9069 25.9264 94.516 26.406C94.1251 26.8861 93.631 27.2513 93.034 27.5016C92.4371 27.7519 91.8095 27.877 91.1511 27.877C90.3693 27.877 89.5901 27.734 88.8154 27.449C88.0411 27.1655 87.3858 26.668 86.8508 25.9581Z" fill="#0D3EF4"/>
<path d="M103.87 13.0626C105.132 13.0626 106.089 13.3757 106.741 14.0014C107.392 14.6276 107.718 15.5388 107.718 16.735C107.718 17.3612 107.571 17.9281 107.276 18.4358C106.981 18.944 106.549 19.3435 105.98 19.6356C105.41 19.9278 104.7 20.081 103.849 20.0948L103.891 19.3225C104.343 19.3225 104.834 19.3853 105.362 19.5105C105.89 19.6356 106.388 19.8517 106.854 20.1576C107.32 20.4636 107.704 20.8773 108.007 21.3993C108.308 21.9208 108.459 22.5715 108.459 23.3504C108.459 24.1993 108.322 24.9052 108.048 25.4686C107.773 26.0319 107.41 26.4737 106.957 26.7935C106.504 27.1137 106.007 27.3395 105.465 27.4718C104.923 27.6041 104.392 27.6699 103.87 27.6699H98.602C98.3139 27.6699 98.0671 27.5693 97.861 27.3676C97.655 27.1658 97.5522 26.912 97.5522 26.606V14.127C97.5522 13.8211 97.655 13.5672 97.861 13.3655C98.0665 13.1637 98.3139 13.0631 98.602 13.0631H103.87V13.0626ZM103.582 15.1077H99.5279L99.7747 14.7737V19.2602L99.5485 19.0309H103.623C104.117 19.0171 104.553 18.8465 104.93 18.5196C105.307 18.1927 105.495 17.7095 105.495 17.0695C105.495 16.4158 105.324 15.9254 104.981 15.5985C104.638 15.2716 104.172 15.1077 103.582 15.1077ZM103.726 21.076H99.6306L99.7747 20.9299V25.8547L99.61 25.6667H103.849C104.563 25.6667 105.139 25.4757 105.578 25.0931C106.017 24.7106 106.236 24.1298 106.236 23.3509C106.236 22.6971 106.106 22.2104 105.846 21.8901C105.585 21.5704 105.262 21.3549 104.878 21.243C104.494 21.1317 104.11 21.076 103.726 21.076Z" fill="#0D3EF4"/>
<path d="M111.67 15.2326C111.272 15.2326 110.984 15.1595 110.806 15.0134C110.627 14.8674 110.538 14.6207 110.538 14.2728V13.9388C110.538 13.5915 110.634 13.3478 110.826 13.2084C111.018 13.0695 111.306 13 111.691 13C112.102 13 112.397 13.073 112.576 13.2191C112.754 13.3652 112.843 13.6053 112.843 13.9388V14.2728C112.843 14.635 112.75 14.8852 112.565 15.0242C112.38 15.1631 112.082 15.2326 111.67 15.2326ZM112.719 26.6052C112.719 26.9112 112.623 27.1655 112.431 27.3668C112.239 27.5685 111.992 27.6692 111.69 27.6692C111.402 27.6692 111.158 27.5685 110.96 27.3668C110.761 27.165 110.662 26.9112 110.662 26.6052V17.674C110.662 17.3681 110.761 17.1142 110.96 16.9125C111.158 16.7107 111.402 16.6101 111.69 16.6101C111.992 16.6101 112.239 16.7112 112.431 16.9125C112.623 17.1142 112.719 17.3681 112.719 17.674V26.6052Z" fill="#0D3EF4"/>
<path d="M115.353 16.8185H120.189C120.464 16.8185 120.693 16.9124 120.879 17.1004C121.064 17.2884 121.156 17.5213 121.156 17.7996C121.156 18.0642 121.064 18.2869 120.879 18.4672C120.693 18.648 120.464 18.7384 120.189 18.7384H115.353C115.078 18.7384 114.849 18.6444 114.663 18.457C114.478 18.269 114.386 18.0433 114.386 17.7787C114.386 17.5003 114.478 17.271 114.663 17.0902C114.849 16.9094 115.078 16.8185 115.353 16.8185ZM117.514 14.1058C117.816 14.1058 118.062 14.2069 118.255 14.4082C118.447 14.6099 118.543 14.8638 118.543 15.1697V24.8523C118.543 25.1026 118.584 25.3043 118.666 25.4575C118.749 25.6108 118.862 25.715 119.006 25.7706C119.15 25.8263 119.297 25.8539 119.448 25.8539C119.599 25.8539 119.733 25.8263 119.85 25.7706C119.966 25.7155 120.107 25.6874 120.272 25.6874C120.436 25.6874 120.587 25.764 120.725 25.9167C120.862 26.0699 120.931 26.2788 120.931 26.5429C120.931 26.877 120.752 27.1482 120.396 27.3566C120.039 27.565 119.655 27.6697 119.243 27.6697C119.01 27.6697 118.735 27.6487 118.42 27.6068C118.104 27.5649 117.799 27.4608 117.504 27.2937C117.209 27.1267 116.966 26.8591 116.774 26.4903C116.581 26.122 116.486 25.6036 116.486 24.9355V15.1697C116.486 14.8638 116.585 14.6099 116.784 14.4082C116.982 14.2069 117.226 14.1058 117.514 14.1058Z" fill="#0D3EF4"/>
<path d="M19.7243 40C30.6178 40 39.4487 31.0457 39.4487 20C39.4487 8.95431 30.6178 0 19.7243 0C8.83088 0 0 8.95431 0 20C0 31.0457 8.83088 40 19.7243 40Z" fill="#0D3EF4"/>
<path d="M6.91045 26.3503C6.84044 26.3503 6.76891 26.3355 6.70141 26.3038C6.44854 26.1863 6.33722 25.8835 6.45307 25.6271L12.867 11.4146C12.9828 11.1581 13.2816 11.0453 13.5344 11.1627C13.7873 11.2802 13.8986 11.5831 13.7828 11.8395L7.36884 26.052C7.28422 26.2395 7.10187 26.3503 6.91045 26.3503Z" fill="white"/>
<path d="M19.7399 26.3503C19.549 26.3503 19.3662 26.2395 19.2816 26.052L12.8671 11.8395C12.7513 11.5831 12.8626 11.2797 13.1155 11.1627C13.3683 11.0453 13.6676 11.1581 13.7829 11.4146L20.1973 25.6271C20.3132 25.8835 20.2019 26.1869 19.949 26.3038C19.881 26.3355 19.81 26.3503 19.7399 26.3503Z" fill="white"/>
<path d="M19.7386 26.3503C19.6686 26.3503 19.597 26.3355 19.5295 26.3038C19.2767 26.1863 19.1653 25.8835 19.2812 25.6271L25.6956 11.4146C25.8115 11.1581 26.1102 11.0453 26.3631 11.1627C26.6159 11.2802 26.7273 11.5831 26.6114 11.8395L20.197 26.052C20.1123 26.24 19.93 26.3503 19.7386 26.3503Z" fill="white"/>
<path d="M32.5686 26.3503C32.3776 26.3503 32.1948 26.2395 32.1102 26.052L25.6957 11.8395C25.5799 11.5831 25.6912 11.2797 25.9441 11.1627C26.197 11.0453 26.4962 11.1581 26.6115 11.4146L33.0259 25.6271C33.1418 25.8835 33.0305 26.1869 32.7776 26.3038C32.7096 26.3355 32.6386 26.3503 32.5686 26.3503Z" fill="white"/>
<path d="M6.87932 28.373C7.94232 28.373 8.80405 27.5257 8.80405 26.4806C8.80405 25.4354 7.94232 24.5882 6.87932 24.5882C5.81632 24.5882 4.95459 25.4354 4.95459 26.4806C4.95459 27.5257 5.81632 28.373 6.87932 28.373Z" fill="white"/>
<path d="M19.724 28.373C20.787 28.373 21.6488 27.5257 21.6488 26.4806C21.6488 25.4354 20.787 24.5882 19.724 24.5882C18.661 24.5882 17.7993 25.4354 17.7993 26.4806C17.7993 27.5257 18.661 28.373 19.724 28.373Z" fill="white"/>
<path d="M32.5693 28.373C33.6323 28.373 34.494 27.5257 34.494 26.4806C34.494 25.4354 33.6323 24.5882 32.5693 24.5882C31.5063 24.5882 30.6445 25.4354 30.6445 26.4806C30.6445 27.5257 31.5063 28.373 32.5693 28.373Z" fill="white"/>
</g>
<defs>
<clipPath id="clip0_3111_15970">
<rect width="122" height="40" fill="white"/>
</clipPath>
</defs>
</svg>
