<svg width="175" height="56" viewBox="0 0 175 56" fill="none" xmlns="http://www.w3.org/2000/svg">
<path d="M70.7969 18.2583C71.0332 18.2583 71.2788 18.3169 71.5346 18.4335C71.7904 18.55 71.9869 18.7159 72.1249 18.9305L79.6229 30.2364L78.3534 30.1778L85.9987 18.9305C86.313 18.4828 86.7169 18.2583 87.209 18.2583C87.6021 18.2583 87.9518 18.3999 88.2567 18.6816C88.5616 18.9641 88.7141 19.3195 88.7141 19.7478V37.2477C88.7141 37.676 88.5761 38.0321 88.3008 38.3139C88.0248 38.5963 87.6613 38.7372 87.2083 38.7372C86.7357 38.7372 86.3571 38.5963 86.0717 38.3139C85.7863 38.0314 85.6439 37.676 85.6439 37.2477V22.4365L86.5883 22.641L80.094 32.4274C79.956 32.6026 79.779 32.7535 79.5629 32.8801C79.3462 33.0073 79.12 33.0603 78.8837 33.0409C78.667 33.0603 78.4459 33.0073 78.2197 32.8801C77.9935 32.7535 77.8107 32.6026 77.6734 32.4274L71.4154 22.7868L72.1242 21.6184V37.2477C72.1242 37.676 71.9913 38.0321 71.7254 38.3139C71.4595 38.5963 71.1098 38.7372 70.6777 38.7372C70.2644 38.7372 69.9248 38.5963 69.6596 38.3139C69.3937 38.0314 69.2607 37.676 69.2607 37.2477V19.7485C69.2607 19.3395 69.4132 18.9891 69.7181 18.6966C70.0238 18.4049 70.3836 18.2583 70.7969 18.2583Z" fill="white"/>
<path d="M105.807 23.1371C106.22 23.1371 106.569 23.2786 106.855 23.5604C107.139 23.8428 107.282 24.1982 107.282 24.6266V37.2476C107.282 37.6759 107.139 38.032 106.855 38.3137C106.569 38.5962 106.22 38.737 105.807 38.737C105.374 38.737 105.019 38.5962 104.744 38.3137C104.468 38.0313 104.331 37.6759 104.331 37.2476V35.1438L104.921 35.2318C104.921 35.5822 104.778 35.9719 104.493 36.4002C104.208 36.8285 103.819 37.2425 103.327 37.6416C102.835 38.0406 102.254 38.3716 101.586 38.6348C100.917 38.8979 100.198 39.0295 99.4311 39.0295C98.0734 39.0295 96.853 38.6841 95.7706 37.9927C94.6883 37.3012 93.832 36.3523 93.2027 35.1445C92.5726 33.9375 92.2583 32.5638 92.2583 31.025C92.2583 29.4476 92.5726 28.0596 93.2027 26.8619C93.832 25.6641 94.6832 24.7245 95.7562 24.0431C96.8285 23.3616 98.0243 23.0205 99.343 23.0205C100.189 23.0205 100.971 23.1571 101.69 23.4295C102.408 23.7027 103.033 24.0531 103.564 24.4814C104.095 24.9097 104.509 25.3631 104.804 25.84C105.1 26.3177 105.247 26.7703 105.247 27.1987L104.332 27.2866V24.628C104.332 24.219 104.469 23.8686 104.746 23.5761C105.019 23.2829 105.373 23.1371 105.807 23.1371ZM99.7852 36.3416C100.71 36.3416 101.521 36.1077 102.221 35.6408C102.92 35.1731 103.465 34.5353 103.859 33.7273C104.253 32.9192 104.449 32.0182 104.449 31.025C104.449 30.0125 104.252 29.1072 103.859 28.3077C103.465 27.5097 102.919 26.8762 102.221 26.4085C101.522 25.9409 100.71 25.7077 99.7852 25.7077C98.8798 25.7077 98.0727 25.9416 97.3646 26.4085C96.6558 26.8762 96.1052 27.509 95.7114 28.3077C95.3176 29.1065 95.1211 30.0125 95.1211 31.025C95.1211 32.0182 95.3176 32.9192 95.7114 33.7273C96.1052 34.5353 96.6507 35.1731 97.3494 35.6408C98.0481 36.1084 98.8596 36.3416 99.7852 36.3416Z" fill="white"/>
<path d="M110.471 36.3415C110.294 36.0691 110.215 35.753 110.235 35.3919C110.254 35.0315 110.461 34.7248 110.855 34.4716C111.13 34.2964 111.421 34.2235 111.725 34.2528C112.03 34.2821 112.321 34.433 112.596 34.7055C113.147 35.3097 113.762 35.7866 114.441 36.137C115.12 36.4874 115.942 36.6626 116.905 36.6626C117.299 36.6433 117.702 36.5797 118.116 36.4724C118.529 36.3658 118.883 36.1706 119.179 35.8882C119.474 35.6057 119.622 35.1917 119.622 34.6468C119.622 34.1606 119.464 33.7701 119.149 33.4784C118.834 33.1859 118.421 32.9478 117.909 32.7626C117.397 32.5781 116.846 32.4072 116.256 32.2513C115.626 32.0761 114.991 31.8816 114.352 31.6671C113.713 31.4533 113.137 31.1752 112.625 30.8348C112.113 30.4944 111.695 30.0511 111.371 29.5055C111.046 28.9606 110.884 28.2884 110.884 27.4897C110.884 26.5744 111.145 25.7857 111.666 25.1235C112.187 24.4614 112.866 23.9451 113.703 23.5754C114.539 23.2057 115.45 23.0205 116.434 23.0205C117.004 23.0205 117.604 23.0934 118.234 23.2393C118.864 23.3852 119.474 23.6147 120.065 23.9258C120.655 24.2376 121.166 24.6466 121.599 25.1528C121.796 25.406 121.909 25.7077 121.939 26.0588C121.968 26.4092 121.806 26.721 121.452 26.9934C121.216 27.1886 120.93 27.2759 120.596 27.2566C120.261 27.2373 119.985 27.13 119.769 26.9355C119.395 26.4679 118.913 26.1032 118.322 25.84C117.732 25.5769 117.063 25.4453 116.315 25.4453C115.941 25.4453 115.552 25.4989 115.149 25.6062C114.746 25.7135 114.406 25.9037 114.131 26.1761C113.855 26.4493 113.718 26.8483 113.718 27.3738C113.718 27.8608 113.88 28.2505 114.205 28.5423C114.529 28.8347 114.957 29.0779 115.489 29.2724C116.02 29.4676 116.6 29.6428 117.23 29.7979C117.84 29.9538 118.445 30.139 119.046 30.3528C119.645 30.5673 120.187 30.8448 120.669 31.1852C121.151 31.5263 121.545 31.9646 121.85 32.4995C122.155 33.0351 122.307 33.7115 122.307 34.5295C122.307 35.4842 122.027 36.2972 121.466 36.9686C120.906 37.6408 120.197 38.1521 119.341 38.5025C118.484 38.8529 117.584 39.028 116.64 39.028C115.518 39.028 114.4 38.8278 113.289 38.4288C112.178 38.032 111.238 37.3355 110.471 36.3415Z" fill="white"/>
<path d="M124.581 36.3415C124.404 36.0691 124.325 35.753 124.345 35.3919C124.364 35.0315 124.571 34.7248 124.965 34.4716C125.24 34.2964 125.53 34.2235 125.835 34.2528C126.14 34.2821 126.431 34.433 126.706 34.7055C127.257 35.3097 127.872 35.7866 128.551 36.137C129.23 36.4874 130.051 36.6626 131.015 36.6626C131.409 36.6433 131.812 36.5797 132.226 36.4724C132.639 36.3658 132.993 36.1706 133.289 35.8882C133.584 35.6057 133.731 35.1917 133.731 34.6468C133.731 34.1606 133.574 33.7701 133.259 33.4784C132.944 33.1859 132.531 32.9478 132.019 32.7626C131.507 32.5781 130.956 32.4072 130.366 32.2513C129.736 32.0761 129.101 31.8816 128.462 31.6671C127.822 31.4533 127.246 31.1752 126.735 30.8348C126.223 30.4944 125.805 30.0511 125.481 29.5055C125.156 28.9606 124.994 28.2884 124.994 27.4897C124.994 26.5744 125.254 25.7857 125.776 25.1235C126.297 24.4614 126.976 23.9451 127.813 23.5754C128.649 23.2057 129.559 23.0205 130.544 23.0205C131.114 23.0205 131.714 23.0934 132.344 23.2393C132.973 23.3852 133.584 23.6147 134.174 23.9258C134.765 24.2376 135.276 24.6466 135.709 25.1528C135.906 25.406 136.019 25.7077 136.049 26.0588C136.078 26.4092 135.916 26.721 135.562 26.9934C135.325 27.1886 135.04 27.2759 134.705 27.2566C134.371 27.2373 134.095 27.13 133.879 26.9355C133.505 26.4679 133.023 26.1032 132.432 25.84C131.842 25.5769 131.173 25.4453 130.425 25.4453C130.051 25.4453 129.662 25.4989 129.259 25.6062C128.856 25.7135 128.516 25.9037 128.241 26.1761C127.965 26.4493 127.827 26.8483 127.827 27.3738C127.827 27.8608 127.99 28.2505 128.314 28.5423C128.639 28.8347 129.067 29.0779 129.598 29.2724C130.129 29.4676 130.71 29.6428 131.34 29.7979C131.95 29.9538 132.554 30.139 133.156 30.3528C133.755 30.5673 134.296 30.8448 134.779 31.1852C135.261 31.5263 135.655 31.9646 135.96 32.4995C136.265 33.0351 136.417 33.7115 136.417 34.5295C136.417 35.4842 136.137 36.2972 135.576 36.9686C135.015 37.6408 134.307 38.1521 133.45 38.5025C132.594 38.8529 131.694 39.028 130.749 39.028C129.628 39.028 128.51 38.8278 127.399 38.4288C126.288 38.032 125.348 37.3355 124.581 36.3415Z" fill="white"/>
<path d="M148.994 18.2876C150.804 18.2876 152.177 18.7259 153.112 19.6019C154.046 20.4786 154.514 21.7543 154.514 23.429C154.514 24.3056 154.303 25.0994 153.88 25.8101C153.456 26.5216 152.836 27.0808 152.02 27.4898C151.203 27.8989 150.185 28.1134 148.964 28.1327L149.024 27.0515C149.673 27.0515 150.376 27.1395 151.134 27.3146C151.891 27.4898 152.605 27.7923 153.274 28.2206C153.943 28.649 154.494 29.2282 154.928 29.959C155.36 30.6891 155.577 31.6001 155.577 32.6905C155.577 33.879 155.38 34.8672 154.987 35.6559C154.593 36.4447 154.071 37.0632 153.422 37.5108C152.773 37.9592 152.06 38.2752 151.282 38.4605C150.505 38.6457 149.743 38.7379 148.995 38.7379H141.437C141.024 38.7379 140.67 38.597 140.375 38.3146C140.079 38.0321 139.932 37.6767 139.932 37.2484V19.7778C139.932 19.3495 140.079 18.9941 140.375 18.7116C140.669 18.4292 141.024 18.2883 141.437 18.2883H148.994V18.2876ZM148.581 21.1507H142.766L143.12 20.6831V26.9643L142.795 26.6432H148.64C149.349 26.6239 149.973 26.3851 150.514 25.9274C151.055 25.4698 151.326 24.7933 151.326 23.8973C151.326 22.982 151.079 22.2956 150.588 21.8379C150.096 21.3803 149.427 21.1507 148.581 21.1507ZM148.787 29.5063H142.913L143.12 29.3018V36.1965L142.883 35.9334H148.964C149.987 35.9334 150.814 35.666 151.444 35.1304C152.073 34.5948 152.389 33.7817 152.389 32.6913C152.389 31.776 152.201 31.0945 151.828 30.6462C151.454 30.1985 150.991 29.8968 150.441 29.7402C149.889 29.5843 149.338 29.5063 148.787 29.5063Z" fill="white"/>
<path d="M160.182 21.3258C159.611 21.3258 159.198 21.2235 158.942 21.019C158.686 20.8145 158.559 20.4691 158.559 19.9822V19.5145C158.559 19.0282 158.696 18.6872 158.972 18.4919C159.247 18.2974 159.661 18.2002 160.212 18.2002C160.802 18.2002 161.225 18.3025 161.481 18.507C161.737 18.7115 161.865 19.0476 161.865 19.5145V19.9822C161.865 20.4891 161.732 20.8395 161.466 21.034C161.2 21.2285 160.773 21.3258 160.182 21.3258ZM161.687 37.2475C161.687 37.6758 161.549 38.032 161.274 38.3137C160.998 38.5961 160.644 38.737 160.211 38.737C159.798 38.737 159.448 38.5961 159.163 38.3137C158.878 38.0312 158.736 37.6758 158.736 37.2475V24.7438C158.736 24.3155 158.878 23.9601 159.163 23.6776C159.448 23.3952 159.798 23.2543 160.211 23.2543C160.644 23.2543 160.998 23.3959 161.274 23.6776C161.549 23.9601 161.687 24.3155 161.687 24.7438V37.2475Z" fill="white"/>
<path d="M165.465 23.5463H172.403C172.796 23.5463 173.126 23.6778 173.392 23.941C173.658 24.2041 173.79 24.5302 173.79 24.9199C173.79 25.2903 173.657 25.6021 173.392 25.8545C173.126 26.1077 172.796 26.2342 172.403 26.2342H165.465C165.072 26.2342 164.742 26.1027 164.476 25.8402C164.21 25.5771 164.078 25.261 164.078 24.8906C164.078 24.5009 164.211 24.1798 164.476 23.9267C164.742 23.6736 165.072 23.5463 165.465 23.5463ZM168.565 19.7485C168.998 19.7485 169.352 19.8901 169.628 20.1719C169.903 20.4543 170.041 20.8097 170.041 21.238V34.7936C170.041 35.144 170.101 35.4265 170.218 35.641C170.336 35.8555 170.499 36.0014 170.705 36.0793C170.912 36.1573 171.123 36.1959 171.34 36.1959C171.556 36.1959 171.748 36.1573 171.916 36.0793C172.083 36.0021 172.285 35.9628 172.521 35.9628C172.757 35.9628 172.974 36.07 173.171 36.2838C173.367 36.4983 173.466 36.7908 173.466 37.1605C173.466 37.6282 173.211 38.0079 172.699 38.2996C172.187 38.5914 171.636 38.7379 171.046 38.7379C170.711 38.7379 170.317 38.7086 169.865 38.65C169.412 38.5914 168.974 38.4455 168.551 38.2117C168.128 37.9778 167.779 37.6031 167.504 37.0868C167.228 36.5713 167.09 35.8455 167.09 34.9102V21.238C167.09 20.8097 167.233 20.4543 167.518 20.1719C167.802 19.8901 168.152 19.7485 168.565 19.7485Z" fill="white"/>
<path d="M55.5862 28C55.5862 42.9019 43.3765 55 28.2931 55C13.2097 55 1 42.9019 1 28C1 13.0981 13.2097 1 28.2931 1C43.3765 1 55.5862 13.0981 55.5862 28Z" stroke="white" stroke-width="2"/>
<path d="M9.91276 36.8907C9.81233 36.8907 9.70972 36.8699 9.6129 36.8256C9.25018 36.6611 9.09049 36.2371 9.25668 35.8781L18.457 15.9806C18.6232 15.6216 19.0516 15.4636 19.4144 15.6281C19.7771 15.7925 19.9368 16.2166 19.7706 16.5755L10.5703 36.4731C10.4489 36.7355 10.1873 36.8907 9.91276 36.8907Z" fill="white"/>
<path d="M28.3154 36.8907C28.0416 36.8907 27.7793 36.7355 27.6579 36.4731L18.4569 16.5755C18.2907 16.2166 18.4504 15.7918 18.8131 15.6281C19.1758 15.4636 19.605 15.6216 19.7705 15.9806L28.9715 35.8781C29.1377 36.2371 28.978 36.6618 28.6153 36.8256C28.5177 36.8699 28.4159 36.8907 28.3154 36.8907Z" fill="white"/>
<path d="M28.3141 36.8907C28.2137 36.8907 28.1111 36.8699 28.0143 36.8256C27.6515 36.6611 27.4919 36.2371 27.658 35.8781L36.8591 15.9806C37.0253 15.6216 37.4537 15.4636 37.8165 15.6281C38.1792 15.7925 38.3389 16.2166 38.1727 16.5755L28.9717 36.4731C28.8503 36.7362 28.5887 36.8907 28.3141 36.8907Z" fill="white"/>
<path d="M46.7178 36.8907C46.4439 36.8907 46.1816 36.7355 46.0602 36.4731L36.8592 16.5755C36.693 16.2166 36.8527 15.7918 37.2154 15.6281C37.5782 15.4636 38.0074 15.6216 38.1728 15.9806L47.3738 35.8781C47.54 36.2371 47.3803 36.6618 47.0176 36.8256C46.9201 36.8699 46.8182 36.8907 46.7178 36.8907Z" fill="white"/>
<path d="M9.86782 39.7225C11.3926 39.7225 12.6287 38.5364 12.6287 37.0732C12.6287 35.61 11.3926 34.4238 9.86782 34.4238C8.34302 34.4238 7.10693 35.61 7.10693 37.0732C7.10693 38.5364 8.34302 39.7225 9.86782 39.7225Z" fill="white"/>
<path d="M28.2931 39.7225C29.8179 39.7225 31.054 38.5364 31.054 37.0732C31.054 35.61 29.8179 34.4238 28.2931 34.4238C26.7683 34.4238 25.5322 35.61 25.5322 37.0732C25.5322 38.5364 26.7683 39.7225 28.2931 39.7225Z" fill="white"/>
<path d="M46.7179 39.7225C48.2427 39.7225 49.4788 38.5364 49.4788 37.0732C49.4788 35.61 48.2427 34.4238 46.7179 34.4238C45.1931 34.4238 43.957 35.61 43.957 37.0732C43.957 38.5364 45.1931 39.7225 46.7179 39.7225Z" fill="white"/>
</svg>
