<svg width="129" height="42" viewBox="0 0 129 42" fill="none" xmlns="http://www.w3.org/2000/svg">
<g clip-path="url(#clip0_3847_18315)">
<path d="M52.1871 13.6934C52.3612 13.6934 52.5423 13.7374 52.7309 13.8248C52.9194 13.9122 53.0643 14.0367 53.166 14.1976L58.6931 22.677L57.7572 22.6331L63.393 14.1976C63.6247 13.8618 63.9224 13.6934 64.2851 13.6934C64.5749 13.6934 64.8326 13.7996 65.0574 14.0109C65.2822 14.2228 65.3946 14.4893 65.3946 14.8106V27.9355C65.3946 28.2567 65.2928 28.5238 65.0899 28.7351C64.8864 28.947 64.6185 29.0526 64.2846 29.0526C63.9362 29.0526 63.6571 28.947 63.4468 28.7351C63.2364 28.5233 63.1314 28.2567 63.1314 27.9355V16.8271L63.8276 16.9804L59.0403 24.3203C58.9386 24.4517 58.8081 24.5648 58.6489 24.6597C58.4891 24.7552 58.3224 24.7949 58.1482 24.7804C57.9884 24.7949 57.8254 24.7552 57.6587 24.6597C57.492 24.5648 57.3572 24.4517 57.256 24.3203L52.643 17.0898L53.1655 16.2135V27.9355C53.1655 28.2567 53.0675 28.5238 52.8715 28.7351C52.6755 28.947 52.4177 29.0526 52.0992 29.0526C51.7945 29.0526 51.5442 28.947 51.3487 28.7351C51.1527 28.5233 51.0547 28.2567 51.0547 27.9355V14.8111C51.0547 14.5043 51.1671 14.2415 51.3918 14.0222C51.6171 13.8034 51.8824 13.6934 52.1871 13.6934Z" fill="#26262D"/>
<path d="M77.9946 17.3526C78.2993 17.3526 78.5565 17.4588 78.7669 17.6701C78.9768 17.882 79.0822 18.1485 79.0822 18.4697V27.9355C79.0822 28.2567 78.9768 28.5238 78.7669 28.7351C78.5565 28.947 78.2993 29.0526 77.9946 29.0526C77.6756 29.0526 77.414 28.947 77.2111 28.7351C77.0076 28.5233 76.9065 28.2567 76.9065 27.9355V26.3577L77.3416 26.4237C77.3416 26.6864 77.2361 26.9787 77.0263 27.3C76.8159 27.6212 76.5294 27.9317 76.1666 28.231C75.8039 28.5303 75.3757 28.7786 74.883 28.9759C74.3898 29.1733 73.8604 29.272 73.2947 29.272C72.2939 29.272 71.3943 29.0129 70.5964 28.4943C69.7985 27.9757 69.1674 27.264 68.7035 26.3582C68.239 25.453 68.0073 24.4227 68.0073 23.2686C68.0073 22.0855 68.239 21.0445 68.7035 20.1462C69.1674 19.2479 69.7948 18.5432 70.5858 18.0321C71.3762 17.521 72.2577 17.2652 73.2297 17.2652C73.8534 17.2652 74.4297 17.3676 74.9597 17.572C75.4891 17.7768 75.9499 18.0396 76.3413 18.3609C76.7328 18.6821 77.0375 19.0221 77.2553 19.3799C77.4732 19.7381 77.5818 20.0776 77.5818 20.3988L76.9075 20.4648V18.4708C76.9075 18.1641 77.0087 17.9013 77.2122 17.6819C77.414 17.462 77.675 17.3526 77.9946 17.3526ZM73.5557 27.256C74.2375 27.256 74.8356 27.0806 75.3512 26.7304C75.8662 26.3797 76.2684 25.9013 76.5586 25.2953C76.8489 24.6893 76.9938 24.0135 76.9938 23.2686C76.9938 22.5092 76.8484 21.8302 76.5586 21.2306C76.2684 20.6321 75.8657 20.157 75.3512 19.8062C74.8361 19.4555 74.2375 19.2806 73.5557 19.2806C72.8883 19.2806 72.2934 19.456 71.7714 19.8062C71.2489 20.157 70.843 20.6316 70.5527 21.2306C70.2625 21.8297 70.1176 22.5092 70.1176 23.2686C70.1176 24.0135 70.2625 24.6893 70.5527 25.2953C70.843 25.9013 71.2452 26.3797 71.7602 26.7304C72.2753 27.0812 72.8734 27.256 73.5557 27.256Z" fill="#26262D"/>
<path d="M81.4327 27.256C81.3022 27.0517 81.2441 26.8146 81.2585 26.5438C81.2729 26.2735 81.4252 26.0434 81.7155 25.8536C81.9184 25.7222 82.1325 25.6675 82.3573 25.6894C82.5821 25.7114 82.7962 25.8246 82.9991 26.0289C83.405 26.4821 83.8588 26.8398 84.3589 27.1026C84.8596 27.3654 85.4652 27.4968 86.1757 27.4968C86.466 27.4823 86.7632 27.4346 87.0679 27.3541C87.3725 27.2742 87.6335 27.1278 87.8514 26.916C88.0692 26.7041 88.1779 26.3936 88.1779 25.9849C88.1779 25.6203 88.0617 25.3274 87.8295 25.1086C87.5973 24.8893 87.2926 24.7107 86.9155 24.5718C86.5379 24.4334 86.132 24.3052 85.6969 24.1883C85.2324 24.0569 84.7648 23.9111 84.2934 23.7502C83.822 23.5898 83.3975 23.3812 83.0204 23.1259C82.6428 22.8706 82.3349 22.5381 82.0958 22.1289C81.8566 21.7203 81.7368 21.2161 81.7368 20.6171C81.7368 19.9306 81.9291 19.3391 82.3136 18.8425C82.6977 18.3459 83.1983 17.9587 83.8151 17.6814C84.4314 17.4041 85.1025 17.2652 85.8279 17.2652C86.2487 17.2652 86.6908 17.3199 87.1552 17.4293C87.6191 17.5387 88.0692 17.7109 88.5044 17.9442C88.9395 18.178 89.3166 18.4848 89.6357 18.8645C89.7805 19.0543 89.8642 19.2806 89.886 19.544C89.9078 19.8067 89.788 20.0406 89.527 20.2449C89.3528 20.3913 89.1425 20.4567 88.8958 20.4423C88.6492 20.4278 88.4458 20.3473 88.2865 20.2015C88.0106 19.8507 87.6554 19.5772 87.2202 19.3799C86.785 19.1825 86.2918 19.0838 85.7406 19.0838C85.4647 19.0838 85.1781 19.124 84.8809 19.2045C84.5837 19.2849 84.3334 19.4276 84.1304 19.6319C83.927 19.8368 83.8258 20.136 83.8258 20.5302C83.8258 20.8954 83.9456 21.1877 84.1848 21.4065C84.4239 21.6259 84.7397 21.8082 85.1312 21.9541C85.5227 22.1005 85.9504 22.2319 86.4149 22.3483C86.8644 22.4652 87.3102 22.6041 87.7534 22.7645C88.1954 22.9253 88.5944 23.1334 88.9502 23.3887C89.3054 23.6445 89.5957 23.9733 89.8205 24.3744C90.0453 24.7761 90.1576 25.2835 90.1576 25.897C90.1576 26.613 89.951 27.2227 89.5377 27.7263C89.1243 28.2304 88.6018 28.6139 87.9707 28.8767C87.3395 29.1395 86.6759 29.2709 85.9797 29.2709C85.1531 29.2709 84.3291 29.1207 83.5099 28.8214C82.6907 28.5238 81.9983 28.0014 81.4327 27.256Z" fill="#26262D"/>
<path d="M91.8335 27.256C91.703 27.0517 91.645 26.8146 91.6594 26.5438C91.6737 26.2735 91.8261 26.0434 92.1164 25.8536C92.3193 25.7222 92.5334 25.6675 92.7582 25.6894C92.9829 25.7114 93.1971 25.8246 93.4 26.0289C93.8059 26.4821 94.2596 26.8398 94.7598 27.1026C95.2605 27.3654 95.8661 27.4968 96.5766 27.4968C96.8669 27.4823 97.1641 27.4346 97.4687 27.3541C97.7734 27.2742 98.0344 27.1278 98.2522 26.916C98.4701 26.7041 98.5787 26.3936 98.5787 25.9849C98.5787 25.6203 98.4626 25.3274 98.2304 25.1086C97.9982 24.8893 97.6935 24.7107 97.3164 24.5718C96.9388 24.4334 96.5329 24.3052 96.0977 24.1883C95.6333 24.0569 95.1656 23.9111 94.6943 23.7502C94.2229 23.5898 93.7984 23.3812 93.4213 23.1259C93.0437 22.8706 92.7358 22.5381 92.4967 22.1289C92.2575 21.7203 92.1377 21.2161 92.1377 20.6171C92.1377 19.9306 92.3299 19.3391 92.7145 18.8425C93.0985 18.3459 93.5992 17.9587 94.216 17.6814C94.8322 17.4041 95.5033 17.2652 96.2288 17.2652C96.6495 17.2652 97.0916 17.3199 97.5561 17.4293C98.02 17.5387 98.4701 17.7109 98.9052 17.9442C99.3404 18.178 99.7175 18.4848 100.037 18.8645C100.181 19.0543 100.265 19.2806 100.287 19.544C100.309 19.8067 100.189 20.0406 99.9279 20.2449C99.7537 20.3913 99.5433 20.4567 99.2967 20.4423C99.0501 20.4278 98.8466 20.3473 98.6874 20.2015C98.4115 19.8507 98.0562 19.5772 97.6211 19.3799C97.1859 19.1825 96.6927 19.0838 96.1414 19.0838C95.8655 19.0838 95.579 19.124 95.2818 19.2045C94.9846 19.2849 94.7342 19.4276 94.5313 19.6319C94.3278 19.8368 94.2266 20.136 94.2266 20.5302C94.2266 20.8954 94.3465 21.1877 94.5856 21.4065C94.8248 21.6259 95.1406 21.8082 95.5321 21.9541C95.9236 22.1005 96.3513 22.2319 96.8157 22.3483C97.2653 22.4652 97.7111 22.6041 98.1542 22.7645C98.5963 22.9253 98.9952 23.1334 99.351 23.3887C99.7063 23.6445 99.9966 23.9733 100.221 24.3744C100.446 24.7761 100.558 25.2835 100.558 25.897C100.558 26.613 100.352 27.2227 99.9385 27.7263C99.5252 28.2304 99.0027 28.6139 98.3715 28.8767C97.7404 29.1395 97.0767 29.2709 96.3806 29.2709C95.5539 29.2709 94.73 29.1207 93.9108 28.8214C93.0921 28.5238 92.3992 28.0014 91.8335 27.256Z" fill="#26262D"/>
<path d="M109.83 13.7155C111.164 13.7155 112.176 14.0442 112.865 14.7012C113.554 15.3587 113.899 16.3155 113.899 17.5715C113.899 18.229 113.743 18.8243 113.431 19.3574C113.119 19.891 112.662 20.3104 112.06 20.6171C111.458 20.9239 110.707 21.0848 109.808 21.0993L109.851 20.2884C110.33 20.2884 110.849 20.3543 111.407 20.4857C111.965 20.6171 112.492 20.844 112.985 21.1652C113.478 21.4865 113.884 21.9209 114.204 22.469C114.523 23.0166 114.682 23.6998 114.682 24.5177C114.682 25.409 114.537 26.1502 114.247 26.7417C113.957 27.3333 113.572 27.7972 113.094 28.1329C112.615 28.4691 112.09 28.7062 111.516 28.8451C110.943 28.984 110.381 29.0532 109.83 29.0532H104.259C103.955 29.0532 103.694 28.9475 103.476 28.7357C103.258 28.5238 103.149 28.2573 103.149 27.9361V14.8331C103.149 14.5119 103.258 14.2453 103.476 14.0335C103.693 13.8216 103.955 13.716 104.259 13.716H109.83V13.7155ZM109.525 15.8628H105.238L105.499 15.5121V20.223L105.26 19.9822H109.569C110.091 19.9677 110.551 19.7885 110.95 19.4453C111.349 19.1021 111.548 18.5947 111.548 17.9228C111.548 17.2363 111.367 16.7214 111.005 16.3782C110.642 16.035 110.149 15.8628 109.525 15.8628ZM109.677 22.1295H105.347L105.499 21.9761V27.1472L105.325 26.9498H109.808C110.562 26.9498 111.171 26.7492 111.636 26.3475C112.1 25.9458 112.332 25.3361 112.332 24.5182C112.332 23.8317 112.194 23.3206 111.919 22.9844C111.643 22.6487 111.302 22.4223 110.896 22.3049C110.49 22.188 110.083 22.1295 109.677 22.1295Z" fill="#26262D"/>
<path d="M118.077 15.9942C117.656 15.9942 117.351 15.9175 117.163 15.7641C116.974 15.6107 116.88 15.3517 116.88 14.9865V14.6357C116.88 14.271 116.981 14.0152 117.185 13.8688C117.387 13.7229 117.692 13.65 118.099 13.65C118.534 13.65 118.845 13.7267 119.034 13.8801C119.223 14.0335 119.317 14.2855 119.317 14.6357V14.9865C119.317 15.3667 119.219 15.6295 119.023 15.7754C118.827 15.9213 118.512 15.9942 118.077 15.9942ZM119.186 27.9355C119.186 28.2567 119.084 28.5238 118.882 28.7351C118.678 28.947 118.417 29.0526 118.098 29.0526C117.793 29.0526 117.536 28.947 117.326 28.7351C117.115 28.5233 117.01 28.2567 117.01 27.9355V18.5577C117.01 18.2365 117.115 17.9699 117.326 17.7581C117.536 17.5462 117.793 17.4406 118.098 17.4406C118.417 17.4406 118.678 17.5468 118.882 17.7581C119.084 17.9699 119.186 18.2365 119.186 18.5577V27.9355Z" fill="#26262D"/>
<path d="M121.971 17.6594H127.085C127.375 17.6594 127.618 17.7581 127.814 17.9554C128.01 18.1528 128.108 18.3974 128.108 18.6896C128.108 18.9674 128.01 19.2013 127.814 19.3906C127.618 19.5804 127.375 19.6754 127.085 19.6754H121.971C121.681 19.6754 121.438 19.5767 121.242 19.3799C121.046 19.1825 120.949 18.9455 120.949 18.6677C120.949 18.3754 121.047 18.1346 121.242 17.9447C121.438 17.7549 121.681 17.6594 121.971 17.6594ZM124.256 14.8111C124.575 14.8111 124.836 14.9173 125.04 15.1286C125.243 15.3404 125.345 15.607 125.345 15.9282V26.0949C125.345 26.3577 125.388 26.5695 125.475 26.7304C125.562 26.8913 125.682 27.0007 125.834 27.0592C125.986 27.1176 126.142 27.1466 126.302 27.1466C126.461 27.1466 126.603 27.1176 126.726 27.0592C126.849 27.0013 126.998 26.9718 127.172 26.9718C127.347 26.9718 127.506 27.0522 127.651 27.2126C127.796 27.3735 127.869 27.5928 127.869 27.8701C127.869 28.2208 127.681 28.5056 127.304 28.7244C126.926 28.9432 126.52 29.0532 126.085 29.0532C125.838 29.0532 125.548 29.0312 125.215 28.9872C124.881 28.9432 124.558 28.8338 124.246 28.6584C123.934 28.4831 123.677 28.202 123.474 27.8148C123.27 27.4282 123.169 26.8838 123.169 26.1823V15.9282C123.169 15.607 123.274 15.3404 123.485 15.1286C123.694 14.9173 123.952 14.8111 124.256 14.8111Z" fill="#26262D"/>
<path d="M20.8561 42C32.3745 42 41.7121 32.598 41.7121 21C41.7121 9.40202 32.3745 0 20.8561 0C9.33757 0 0 9.40202 0 21C0 32.598 9.33757 42 20.8561 42Z" fill="#2C3ACF"/>
<path d="M7.307 27.6678C7.23297 27.6678 7.15734 27.6523 7.08596 27.619C6.81859 27.4957 6.70088 27.1776 6.82338 26.9084L13.6053 11.9853C13.7278 11.7161 14.0437 11.5975 14.311 11.7209C14.5784 11.8442 14.6961 12.1623 14.5736 12.4315L7.79169 27.3546C7.70221 27.5514 7.5094 27.6678 7.307 27.6678Z" fill="white"/>
<path d="M20.8723 27.6678C20.6704 27.6678 20.4771 27.5514 20.3876 27.3546L13.6051 12.4315C13.4826 12.1623 13.6003 11.8437 13.8677 11.7209C14.1351 11.5975 14.4515 11.7161 14.5734 11.9853L21.3559 26.9084C21.4784 27.1776 21.3607 27.4962 21.0933 27.619C21.0214 27.6523 20.9463 27.6678 20.8723 27.6678Z" fill="white"/>
<path d="M20.8715 27.6678C20.7974 27.6678 20.7218 27.6523 20.6504 27.619C20.383 27.4957 20.2653 27.1776 20.3878 26.9084L27.1703 11.9853C27.2928 11.7161 27.6087 11.5975 27.876 11.7209C28.1434 11.8442 28.2611 12.1623 28.1386 12.4315L21.3561 27.3546C21.2667 27.552 21.0739 27.6678 20.8715 27.6678Z" fill="white"/>
<path d="M34.4372 27.6678C34.2353 27.6678 34.042 27.5514 33.9525 27.3546L27.1701 12.4315C27.0476 12.1623 27.1653 11.8437 27.4326 11.7209C27.7 11.5975 28.0164 11.7161 28.1384 11.9853L34.9208 26.9084C35.0433 27.1776 34.9256 27.4962 34.6582 27.619C34.5863 27.6523 34.5112 27.6678 34.4372 27.6678Z" fill="white"/>
<path d="M7.27394 29.7916C8.39793 29.7916 9.3091 28.902 9.3091 27.8046C9.3091 26.7072 8.39793 25.8176 7.27394 25.8176C6.14994 25.8176 5.23877 26.7072 5.23877 27.8046C5.23877 28.902 6.14994 29.7916 7.27394 29.7916Z" fill="white"/>
<path d="M20.856 29.7916C21.98 29.7916 22.8911 28.902 22.8911 27.8046C22.8911 26.7072 21.98 25.8176 20.856 25.8176C19.732 25.8176 18.8208 26.7072 18.8208 27.8046C18.8208 28.902 19.732 29.7916 20.856 29.7916Z" fill="white"/>
<path d="M34.438 29.7916C35.562 29.7916 36.4732 28.902 36.4732 27.8046C36.4732 26.7072 35.562 25.8176 34.438 25.8176C33.314 25.8176 32.4028 26.7072 32.4028 27.8046C32.4028 28.902 33.314 29.7916 34.438 29.7916Z" fill="white"/>
</g>
<defs>
<clipPath id="clip0_3847_18315">
<rect width="129" height="42" fill="white"/>
</clipPath>
</defs>
</svg>
