<svg width="237" height="64" viewBox="0 0 237 64" fill="none" xmlns="http://www.w3.org/2000/svg">
<path d="M81.2824 16.2344C81.6392 16.2344 82.0101 16.3229 82.3963 16.499C82.7826 16.6751 83.0793 16.9257 83.2877 17.2497L94.6093 34.328L92.6923 34.2395L104.236 17.2497C104.711 16.5735 105.321 16.2344 106.064 16.2344C106.657 16.2344 107.186 16.4482 107.646 16.8738C108.106 17.3005 108.337 17.8373 108.337 18.4843V44.9189C108.337 45.566 108.128 46.1039 107.712 46.5295C107.296 46.9561 106.747 47.1689 106.063 47.1689C105.349 47.1689 104.778 46.9561 104.347 46.5295C103.916 46.1028 103.701 45.566 103.701 44.9189V22.5457L105.127 22.8546L95.3206 37.6376C95.1122 37.9023 94.8449 38.1302 94.5187 38.3214C94.1914 38.5136 93.8499 38.5936 93.4932 38.5644C93.1658 38.5936 92.832 38.5136 92.4905 38.3214C92.149 38.1302 91.873 37.9023 91.6657 37.6376L82.2163 23.075L83.2866 21.31V44.9189C83.2866 45.566 83.0859 46.1039 82.6844 46.5295C82.2829 46.9561 81.7548 47.1689 81.1024 47.1689C80.4783 47.1689 79.9655 46.9561 79.5651 46.5295C79.1636 46.1028 78.9629 45.566 78.9629 44.9189V18.4854C78.9629 17.8676 79.1931 17.3383 79.6535 16.8965C80.115 16.4558 80.6583 16.2344 81.2824 16.2344Z" fill="#0D3EF4"/>
<path d="M134.146 23.6038C134.77 23.6038 135.297 23.8177 135.728 24.2433C136.158 24.6699 136.374 25.2067 136.374 25.8538V44.9185C136.374 45.5655 136.158 46.1034 135.728 46.529C135.297 46.9557 134.77 47.1685 134.146 47.1685C133.493 47.1685 132.957 46.9557 132.541 46.529C132.125 46.1024 131.917 45.5655 131.917 44.9185V41.7407L132.809 41.8735C132.809 42.4028 132.593 42.9915 132.163 43.6385C131.732 44.2855 131.145 44.9109 130.402 45.5137C129.659 46.1164 128.782 46.6165 127.773 47.014C126.762 47.4115 125.678 47.6102 124.519 47.6102C122.469 47.6102 120.626 47.0885 118.992 46.044C117.358 44.9995 116.065 43.5661 115.114 41.7418C114.163 39.9185 113.688 37.8435 113.688 35.519C113.688 33.1362 114.163 31.0396 115.114 29.2303C116.065 27.4211 117.35 26.0017 118.97 24.9724C120.589 23.943 122.395 23.4277 124.386 23.4277C125.664 23.4277 126.844 23.634 127.93 24.0456C129.014 24.4582 129.958 24.9875 130.76 25.6345C131.562 26.2815 132.186 26.9663 132.632 27.6868C133.078 28.4083 133.301 29.0921 133.301 29.7391L131.92 29.8719V25.8559C131.92 25.2381 132.127 24.7088 132.544 24.267C132.957 23.8242 133.492 23.6038 134.146 23.6038ZM125.054 43.5499C126.45 43.5499 127.675 43.1967 128.732 42.4914C129.787 41.785 130.61 40.8215 131.205 39.6009C131.8 38.3803 132.096 37.0193 132.096 35.519C132.096 33.9895 131.798 32.622 131.205 31.4144C130.61 30.2089 129.785 29.2519 128.732 28.5455C127.677 27.8391 126.45 27.487 125.054 27.487C123.687 27.487 122.468 27.8402 121.399 28.5455C120.328 29.2519 119.497 30.2079 118.902 31.4144C118.308 32.6209 118.011 33.9895 118.011 35.519C118.011 37.0193 118.308 38.3803 118.902 39.6009C119.497 40.8215 120.321 41.785 121.376 42.4914C122.431 43.1978 123.656 43.5499 125.054 43.5499Z" fill="#0D3EF4"/>
<path d="M141.187 43.5499C140.92 43.1384 140.801 42.6609 140.831 42.1155C140.86 41.5711 141.172 41.1077 141.767 40.7253C142.182 40.4607 142.621 40.3505 143.081 40.3948C143.542 40.4391 143.98 40.667 144.396 41.0785C145.227 41.9912 146.157 42.7117 147.181 43.241C148.207 43.7703 149.448 44.0349 150.903 44.0349C151.498 44.0057 152.106 43.9096 152.73 43.7476C153.354 43.5866 153.889 43.2918 154.335 42.8651C154.782 42.4384 155.004 41.813 155.004 40.9899C155.004 40.2554 154.766 39.6657 154.291 39.225C153.815 38.7832 153.191 38.4235 152.418 38.1437C151.645 37.8651 150.813 37.6069 149.922 37.3714C148.971 37.1068 148.013 36.813 147.047 36.4889C146.082 36.166 145.212 35.7458 144.44 35.2316C143.666 34.7175 143.036 34.0478 142.546 33.2236C142.056 32.4006 141.81 31.3852 141.81 30.1787C141.81 28.7961 142.204 27.6047 142.992 26.6045C143.779 25.6042 144.804 24.8244 146.068 24.2659C147.33 23.7075 148.705 23.4277 150.191 23.4277C151.052 23.4277 151.958 23.5379 152.909 23.7583C153.86 23.9786 154.782 24.3253 155.673 24.7952C156.564 25.2662 157.337 25.884 157.99 26.6488C158.287 27.0311 158.458 27.4869 158.503 28.0173C158.548 28.5466 158.302 29.0175 157.768 29.4291C157.411 29.7239 156.98 29.8557 156.475 29.8266C155.97 29.7974 155.553 29.6354 155.227 29.3416C154.662 28.6352 153.934 28.0843 153.042 27.6868C152.151 27.2893 151.141 27.0905 150.012 27.0905C149.446 27.0905 148.859 27.1715 148.251 27.3336C147.642 27.4956 147.129 27.7829 146.713 28.1945C146.297 28.6071 146.089 29.2098 146.089 30.0037C146.089 30.7393 146.335 31.328 146.825 31.7687C147.315 32.2105 147.962 32.5777 148.763 32.8715C149.565 33.1664 150.441 33.431 151.393 33.6654C152.314 33.9009 153.227 34.1807 154.135 34.5036C155.04 34.8277 155.857 35.2468 156.586 35.7609C157.314 36.2762 157.908 36.9383 158.369 37.7462C158.829 38.5553 159.059 39.5771 159.059 40.8128C159.059 42.2548 158.636 43.4829 157.79 44.4972C156.943 45.5125 155.873 46.2849 154.58 46.8141C153.287 47.3434 151.927 47.608 150.501 47.608C148.808 47.608 147.12 47.3056 145.442 46.7029C143.764 46.1034 142.346 45.0513 141.187 43.5499Z" fill="#0D3EF4"/>
<path d="M162.494 43.5499C162.227 43.1384 162.108 42.6609 162.137 42.1155C162.167 41.5711 162.479 41.1077 163.073 40.7253C163.489 40.4607 163.928 40.3505 164.388 40.3948C164.848 40.4391 165.287 40.667 165.703 41.0785C166.534 41.9912 167.464 42.7117 168.488 43.241C169.514 43.7703 170.754 44.0349 172.21 44.0349C172.804 44.0057 173.413 43.9096 174.037 43.7476C174.661 43.5866 175.196 43.2918 175.642 42.8651C176.088 42.4384 176.311 41.813 176.311 40.9899C176.311 40.2554 176.073 39.6657 175.597 39.225C175.121 38.7832 174.497 38.4235 173.725 38.1437C172.951 37.8651 172.12 37.6069 171.229 37.3714C170.277 37.1068 169.319 36.813 168.354 36.4889C167.388 36.166 166.519 35.7458 165.746 35.2316C164.973 34.7175 164.342 34.0478 163.852 33.2236C163.362 32.4006 163.117 31.3852 163.117 30.1787C163.117 28.7961 163.511 27.6047 164.299 26.6045C165.085 25.6042 166.111 24.8244 167.374 24.2659C168.636 23.7075 170.011 23.4277 171.497 23.4277C172.359 23.4277 173.265 23.5379 174.216 23.7583C175.166 23.9786 176.088 24.3253 176.979 24.7952C177.871 25.2662 178.643 25.884 179.297 26.6488C179.594 27.0311 179.765 27.4869 179.81 28.0173C179.854 28.5466 179.609 29.0175 179.074 29.4291C178.717 29.7239 178.287 29.8557 177.781 29.8266C177.276 29.7974 176.859 29.6354 176.533 29.3416C175.968 28.6352 175.24 28.0843 174.349 27.6868C173.458 27.2893 172.447 27.0905 171.318 27.0905C170.753 27.0905 170.166 27.1715 169.557 27.3336C168.948 27.4956 168.436 27.7829 168.02 28.1945C167.603 28.6071 167.396 29.2098 167.396 30.0037C167.396 30.7393 167.641 31.328 168.131 31.7687C168.621 32.2105 169.268 32.5777 170.07 32.8715C170.872 33.1664 171.748 33.431 172.699 33.6654C173.62 33.9009 174.533 34.1807 175.441 34.5036C176.347 34.8277 177.164 35.2468 177.893 35.7609C178.62 36.2762 179.215 36.9383 179.675 37.7462C180.136 38.5553 180.366 39.5771 180.366 40.8128C180.366 42.2548 179.943 43.4829 179.096 44.4972C178.249 45.5125 177.179 46.2849 175.886 46.8141C174.593 47.3434 173.234 47.608 171.808 47.608C170.115 47.608 168.427 47.3056 166.749 46.7029C165.072 46.1034 163.653 45.0513 162.494 43.5499Z" fill="#0D3EF4"/>
<path d="M199.356 16.2773C202.089 16.2773 204.161 16.9395 205.573 18.2627C206.984 19.5869 207.691 21.5139 207.691 24.0437C207.691 25.3679 207.371 26.5669 206.733 27.6406C206.094 28.7153 205.158 29.56 203.925 30.1779C202.691 30.7957 201.153 31.1198 199.311 31.1489L199.4 29.5157C200.381 29.5157 201.443 29.6486 202.587 29.9132C203.73 30.1779 204.808 30.6348 205.819 31.2818C206.829 31.9288 207.66 32.8037 208.315 33.9076C208.969 35.0105 209.296 36.3866 209.296 38.0338C209.296 39.829 208.998 41.3218 208.404 42.5132C207.81 43.7046 207.022 44.639 206.042 45.3151C205.062 45.9924 203.985 46.4698 202.811 46.7496C201.637 47.0294 200.486 47.1687 199.357 47.1687H187.946C187.321 47.1687 186.787 46.9559 186.341 46.5292C185.894 46.1026 185.672 45.5657 185.672 44.9187V18.5284C185.672 17.8814 185.894 17.3445 186.341 16.9179C186.786 16.4912 187.321 16.2784 187.946 16.2784H199.356V16.2773ZM198.731 20.6023H189.951L190.485 19.8959V29.3839L189.996 28.899H198.821C199.891 28.8698 200.834 28.509 201.651 27.8177C202.468 27.1264 202.876 26.1046 202.876 24.7512C202.876 23.3686 202.504 22.3316 201.762 21.6403C201.019 20.949 200.009 20.6023 198.731 20.6023ZM199.043 33.2239H190.173L190.485 32.915V43.3298L190.129 42.9323H199.311C200.856 42.9323 202.104 42.5283 203.055 41.7193C204.005 40.9103 204.481 39.6821 204.481 38.0349C204.481 36.6523 204.199 35.6229 203.634 34.9457C203.069 34.2695 202.371 33.8137 201.54 33.5771C200.707 33.3416 199.875 33.2239 199.043 33.2239Z" fill="#0D3EF4"/>
<path d="M216.249 20.8678C215.387 20.8678 214.763 20.7134 214.377 20.4045C213.991 20.0955 213.798 19.5738 213.798 18.8382V18.1318C213.798 17.3973 214.005 16.8821 214.422 16.5872C214.838 16.2934 215.462 16.1465 216.294 16.1465C217.186 16.1465 217.824 16.3009 218.211 16.6099C218.597 16.9188 218.79 17.4265 218.79 18.1318V18.8382C218.79 19.6041 218.59 20.1333 218.188 20.4271C217.787 20.7209 217.141 20.8678 216.249 20.8678ZM218.522 44.9186C218.522 45.5656 218.314 46.1035 217.898 46.5291C217.481 46.9557 216.947 47.1685 216.293 47.1685C215.669 47.1685 215.141 46.9557 214.711 46.5291C214.28 46.1024 214.065 45.5656 214.065 44.9186V26.031C214.065 25.384 214.28 24.8471 214.711 24.4205C215.141 23.9938 215.669 23.781 216.293 23.781C216.947 23.781 217.481 23.9949 217.898 24.4205C218.314 24.8471 218.522 25.384 218.522 26.031V44.9186Z" fill="#0D3EF4"/>
<path d="M224.228 24.223H234.703C235.297 24.223 235.795 24.4218 236.196 24.8193C236.598 25.2168 236.797 25.7093 236.797 26.298C236.797 26.8575 236.597 27.3285 236.196 27.7098C235.795 28.0921 235.297 28.2833 234.703 28.2833H224.228C223.633 28.2833 223.135 28.0846 222.734 27.6882C222.332 27.2907 222.133 26.8132 222.133 26.2537C222.133 25.665 222.334 25.1801 222.734 24.7977C223.135 24.4153 223.633 24.223 224.228 24.223ZM228.908 18.4863C229.562 18.4863 230.096 18.7002 230.513 19.1258C230.929 19.5524 231.137 20.0893 231.137 20.7363V41.2128C231.137 41.7421 231.227 42.1687 231.404 42.4928C231.582 42.8168 231.828 43.0372 232.14 43.1549C232.452 43.2726 232.77 43.331 233.098 43.331C233.424 43.331 233.714 43.2726 233.967 43.1549C234.219 43.0383 234.525 42.9788 234.881 42.9788C235.238 42.9788 235.564 43.1409 235.862 43.4638C236.159 43.7879 236.309 44.2297 236.309 44.7881C236.309 45.4945 235.922 46.0681 235.15 46.5088C234.377 46.9495 233.545 47.1709 232.654 47.1709C232.148 47.1709 231.554 47.1266 230.871 47.0381C230.187 46.9495 229.526 46.7291 228.887 46.3759C228.248 46.0227 227.721 45.4567 227.305 44.6769C226.889 43.8981 226.681 42.8017 226.681 41.3889V20.7363C226.681 20.0893 226.896 19.5524 227.327 19.1258C227.756 18.7002 228.284 18.4863 228.908 18.4863Z" fill="#0D3EF4"/>
<path d="M32.4676 64C50.3186 64 64.7897 49.6731 64.7897 32C64.7897 14.3269 50.3186 0 32.4676 0C14.6166 0 0.145508 14.3269 0.145508 32C0.145508 49.6731 14.6166 64 32.4676 64Z" fill="#0D3EF4"/>
<path d="M11.4672 42.1616C11.3525 42.1616 11.2353 42.1379 11.1247 42.0872C10.7103 41.8993 10.5279 41.4146 10.7177 41.0044L21.2281 18.2644C21.418 17.8541 21.9075 17.6735 22.3218 17.8615C22.7362 18.0494 22.9186 18.5341 22.7288 18.9443L12.2184 41.6843C12.0797 41.9843 11.7809 42.1616 11.4672 42.1616Z" fill="white"/>
<path d="M32.4918 42.1616C32.179 42.1616 31.8793 41.9843 31.7407 41.6843L21.2294 18.9443C21.0396 18.5341 21.222 18.0486 21.6364 17.8615C22.0507 17.6735 22.5411 17.8541 22.7301 18.2644L33.2413 41.0044C33.4312 41.4146 33.2488 41.9001 32.8344 42.0872C32.723 42.1379 32.6066 42.1616 32.4918 42.1616Z" fill="white"/>
<path d="M32.4907 42.1616C32.3759 42.1616 32.2587 42.1379 32.1481 42.0872C31.7337 41.8993 31.5513 41.4146 31.7411 41.0044L42.2524 18.2644C42.4423 17.8541 42.9318 17.6735 43.3461 17.8615C43.7605 18.0494 43.9429 18.5341 43.7531 18.9443L33.2418 41.6843C33.1031 41.9851 32.8043 42.1616 32.4907 42.1616Z" fill="white"/>
<path d="M53.5143 42.1616C53.2014 42.1616 52.9018 41.9843 52.7631 41.6843L42.2519 18.9443C42.062 18.5341 42.2445 18.0486 42.6588 17.8615C43.0732 17.6735 43.5635 17.8541 43.7525 18.2644L54.2638 41.0044C54.4536 41.4146 54.2712 41.9001 53.8568 42.0872C53.7454 42.1379 53.629 42.1616 53.5143 42.1616Z" fill="white"/>
<path d="M11.4187 45.3974C13.1606 45.3974 14.5727 44.0418 14.5727 42.3696C14.5727 40.6974 13.1606 39.3418 11.4187 39.3418C9.67676 39.3418 8.26465 40.6974 8.26465 42.3696C8.26465 44.0418 9.67676 45.3974 11.4187 45.3974Z" fill="white"/>
<path d="M32.4695 45.3974C34.2114 45.3974 35.6235 44.0418 35.6235 42.3696C35.6235 40.6974 34.2114 39.3418 32.4695 39.3418C30.7275 39.3418 29.3154 40.6974 29.3154 42.3696C29.3154 44.0418 30.7275 45.3974 32.4695 45.3974Z" fill="white"/>
<path d="M53.5163 45.3974C55.2583 45.3974 56.6704 44.0418 56.6704 42.3696C56.6704 40.6974 55.2583 39.3418 53.5163 39.3418C51.7744 39.3418 50.3623 40.6974 50.3623 42.3696C50.3623 44.0418 51.7744 45.3974 53.5163 45.3974Z" fill="white"/>
</svg>
