<svg width="175" height="56" viewBox="0 0 175 56" fill="none" xmlns="http://www.w3.org/2000/svg">
<path d="M70.7959 18.2583C71.0322 18.2583 71.2779 18.3169 71.5336 18.4335C71.7894 18.55 71.986 18.7159 72.124 18.9305L79.6219 30.2364L78.3524 30.1778L85.9977 18.9305C86.312 18.4828 86.716 18.2583 87.208 18.2583C87.6011 18.2583 87.9508 18.3999 88.2557 18.6816C88.5606 18.9641 88.7131 19.3195 88.7131 19.7478V37.2477C88.7131 37.676 88.5751 38.0321 88.2998 38.3139C88.0238 38.5963 87.6603 38.7372 87.2073 38.7372C86.7347 38.7372 86.3561 38.5963 86.0707 38.3139C85.7853 38.0314 85.643 37.676 85.643 37.2477V22.4365L86.5873 22.641L80.093 32.4274C79.955 32.6026 79.778 32.7535 79.5619 32.8801C79.3452 33.0073 79.119 33.0603 78.8827 33.0409C78.666 33.0603 78.4449 33.0073 78.2187 32.8801C77.9926 32.7535 77.8097 32.6026 77.6725 32.4274L71.4144 22.7868L72.1232 21.6184V37.2477C72.1232 37.676 71.9903 38.0321 71.7244 38.3139C71.4585 38.5963 71.1088 38.7372 70.6767 38.7372C70.2634 38.7372 69.9238 38.5963 69.6586 38.3139C69.3927 38.0314 69.2598 37.676 69.2598 37.2477V19.7485C69.2598 19.3395 69.4122 18.9891 69.7171 18.6966C70.0228 18.4049 70.3826 18.2583 70.7959 18.2583Z" fill="white"/>
<path d="M105.806 23.1371C106.22 23.1371 106.569 23.2786 106.854 23.5604C107.139 23.8428 107.282 24.1982 107.282 24.6266V37.2476C107.282 37.6759 107.139 38.032 106.854 38.3137C106.569 38.5962 106.22 38.737 105.806 38.737C105.374 38.737 105.019 38.5962 104.744 38.3137C104.468 38.0313 104.33 37.6759 104.33 37.2476V35.1438L104.921 35.2318C104.921 35.5822 104.778 35.9719 104.493 36.4002C104.207 36.8285 103.819 37.2425 103.327 37.6416C102.835 38.0406 102.254 38.3716 101.585 38.6348C100.916 38.8979 100.198 39.0295 99.4306 39.0295C98.0729 39.0295 96.8525 38.6841 95.7702 37.9927C94.6878 37.3012 93.8315 36.3523 93.2022 35.1445C92.5721 33.9375 92.2578 32.5638 92.2578 31.025C92.2578 29.4476 92.5721 28.0596 93.2022 26.8619C93.8315 25.6641 94.6827 24.7245 95.7557 24.0431C96.828 23.3616 98.0238 23.0205 99.3425 23.0205C100.189 23.0205 100.97 23.1571 101.689 23.4295C102.408 23.7027 103.033 24.0531 103.564 24.4814C104.095 24.9097 104.508 25.3631 104.804 25.84C105.099 26.3177 105.246 26.7703 105.246 27.1987L104.332 27.2866V24.628C104.332 24.219 104.469 23.8686 104.745 23.5761C105.019 23.2829 105.373 23.1371 105.806 23.1371ZM99.7847 36.3416C100.71 36.3416 101.521 36.1077 102.22 35.6408C102.919 35.1731 103.465 34.5353 103.858 33.7273C104.252 32.9192 104.449 32.0182 104.449 31.025C104.449 30.0125 104.252 29.1072 103.858 28.3077C103.465 27.5097 102.918 26.8762 102.22 26.4085C101.522 25.9409 100.71 25.7077 99.7847 25.7077C98.8793 25.7077 98.0722 25.9416 97.3641 26.4085C96.6553 26.8762 96.1047 27.509 95.7109 28.3077C95.3171 29.1065 95.1206 30.0125 95.1206 31.025C95.1206 32.0182 95.3171 32.9192 95.7109 33.7273C96.1047 34.5353 96.6502 35.1731 97.3489 35.6408C98.0477 36.1084 98.8591 36.3416 99.7847 36.3416Z" fill="white"/>
<path d="M110.47 36.3415C110.293 36.0691 110.214 35.753 110.233 35.3919C110.253 35.0315 110.46 34.7248 110.853 34.4716C111.129 34.2964 111.419 34.2235 111.724 34.2528C112.029 34.2821 112.319 34.433 112.595 34.7055C113.145 35.3097 113.761 35.7866 114.439 36.137C115.119 36.4874 115.94 36.6626 116.904 36.6626C117.298 36.6433 117.701 36.5797 118.114 36.4724C118.528 36.3658 118.882 36.1706 119.177 35.8882C119.473 35.6057 119.62 35.1917 119.62 34.6468C119.62 34.1606 119.463 33.7701 119.148 33.4784C118.833 33.1859 118.419 32.9478 117.908 32.7626C117.395 32.5781 116.845 32.4072 116.254 32.2513C115.624 32.0761 114.99 31.8816 114.351 31.6671C113.711 31.4533 113.135 31.1752 112.624 30.8348C112.111 30.4944 111.694 30.0511 111.369 29.5055C111.045 28.9606 110.882 28.2884 110.882 27.4897C110.882 26.5744 111.143 25.7857 111.665 25.1235C112.186 24.4614 112.865 23.9451 113.702 23.5754C114.538 23.2057 115.448 23.0205 116.432 23.0205C117.003 23.0205 117.603 23.0934 118.233 23.2393C118.862 23.3852 119.473 23.6147 120.063 23.9258C120.653 24.2376 121.165 24.6466 121.598 25.1528C121.794 25.406 121.908 25.7077 121.937 26.0588C121.967 26.4092 121.804 26.721 121.45 26.9934C121.214 27.1886 120.929 27.2759 120.594 27.2566C120.26 27.2373 119.984 27.13 119.768 26.9355C119.393 26.4679 118.911 26.1032 118.321 25.84C117.731 25.5769 117.062 25.4453 116.314 25.4453C115.939 25.4453 115.551 25.4989 115.147 25.6062C114.744 25.7135 114.405 25.9037 114.129 26.1761C113.853 26.4493 113.716 26.8483 113.716 27.3738C113.716 27.8608 113.879 28.2505 114.203 28.5423C114.528 28.8347 114.956 29.0779 115.487 29.2724C116.018 29.4676 116.598 29.6428 117.228 29.7979C117.838 29.9538 118.443 30.139 119.044 30.3528C119.644 30.5673 120.185 30.8448 120.668 31.1852C121.15 31.5263 121.544 31.9646 121.848 32.4995C122.153 33.0351 122.306 33.7115 122.306 34.5295C122.306 35.4842 122.026 36.2972 121.465 36.9686C120.904 37.6408 120.195 38.1521 119.339 38.5025C118.483 38.8529 117.583 39.028 116.638 39.028C115.517 39.028 114.399 38.8278 113.288 38.4288C112.176 38.032 111.237 37.3355 110.47 36.3415Z" fill="white"/>
<path d="M124.581 36.3415C124.404 36.0691 124.325 35.753 124.345 35.3919C124.364 35.0315 124.571 34.7248 124.965 34.4716C125.24 34.2964 125.53 34.2235 125.835 34.2528C126.14 34.2821 126.431 34.433 126.706 34.7055C127.257 35.3097 127.872 35.7866 128.551 36.137C129.23 36.4874 130.051 36.6626 131.015 36.6626C131.409 36.6433 131.812 36.5797 132.226 36.4724C132.639 36.3658 132.993 36.1706 133.289 35.8882C133.584 35.6057 133.731 35.1917 133.731 34.6468C133.731 34.1606 133.574 33.7701 133.259 33.4784C132.944 33.1859 132.531 32.9478 132.019 32.7626C131.507 32.5781 130.956 32.4072 130.366 32.2513C129.736 32.0761 129.101 31.8816 128.462 31.6671C127.822 31.4533 127.246 31.1752 126.735 30.8348C126.223 30.4944 125.805 30.0511 125.481 29.5055C125.156 28.9606 124.994 28.2884 124.994 27.4897C124.994 26.5744 125.254 25.7857 125.776 25.1235C126.297 24.4614 126.976 23.9451 127.813 23.5754C128.649 23.2057 129.559 23.0205 130.544 23.0205C131.114 23.0205 131.714 23.0934 132.344 23.2393C132.973 23.3852 133.584 23.6147 134.174 23.9258C134.765 24.2376 135.276 24.6466 135.709 25.1528C135.906 25.406 136.019 25.7077 136.049 26.0588C136.078 26.4092 135.916 26.721 135.562 26.9934C135.325 27.1886 135.04 27.2759 134.705 27.2566C134.371 27.2373 134.095 27.13 133.879 26.9355C133.505 26.4679 133.023 26.1032 132.432 25.84C131.842 25.5769 131.173 25.4453 130.425 25.4453C130.051 25.4453 129.662 25.4989 129.259 25.6062C128.856 25.7135 128.516 25.9037 128.241 26.1761C127.965 26.4493 127.827 26.8483 127.827 27.3738C127.827 27.8608 127.99 28.2505 128.314 28.5423C128.639 28.8347 129.067 29.0779 129.598 29.2724C130.129 29.4676 130.71 29.6428 131.34 29.7979C131.95 29.9538 132.554 30.139 133.156 30.3528C133.755 30.5673 134.296 30.8448 134.779 31.1852C135.261 31.5263 135.655 31.9646 135.96 32.4995C136.265 33.0351 136.417 33.7115 136.417 34.5295C136.417 35.4842 136.137 36.2972 135.576 36.9686C135.015 37.6408 134.307 38.1521 133.45 38.5025C132.594 38.8529 131.694 39.028 130.749 39.028C129.628 39.028 128.51 38.8278 127.399 38.4288C126.288 38.032 125.348 37.3355 124.581 36.3415Z" fill="white"/>
<path d="M148.994 18.2876C150.804 18.2876 152.177 18.7259 153.112 19.6019C154.046 20.4786 154.514 21.7543 154.514 23.429C154.514 24.3056 154.303 25.0994 153.88 25.8101C153.456 26.5216 152.836 27.0808 152.02 27.4898C151.203 27.8989 150.185 28.1134 148.964 28.1327L149.024 27.0515C149.673 27.0515 150.376 27.1395 151.134 27.3146C151.891 27.4898 152.605 27.7923 153.274 28.2206C153.943 28.649 154.494 29.2282 154.928 29.959C155.36 30.6891 155.577 31.6001 155.577 32.6905C155.577 33.879 155.38 34.8672 154.987 35.6559C154.593 36.4447 154.071 37.0632 153.422 37.5108C152.773 37.9592 152.06 38.2752 151.282 38.4605C150.505 38.6457 149.743 38.7379 148.995 38.7379H141.437C141.024 38.7379 140.67 38.597 140.375 38.3146C140.079 38.0321 139.932 37.6767 139.932 37.2484V19.7778C139.932 19.3495 140.079 18.9941 140.375 18.7116C140.669 18.4292 141.024 18.2883 141.437 18.2883H148.994V18.2876ZM148.581 21.1507H142.766L143.12 20.6831V26.9643L142.795 26.6432H148.64C149.349 26.6239 149.973 26.3851 150.514 25.9274C151.055 25.4698 151.326 24.7933 151.326 23.8973C151.326 22.982 151.079 22.2956 150.588 21.8379C150.096 21.3803 149.427 21.1507 148.581 21.1507ZM148.787 29.5063H142.913L143.12 29.3018V36.1965L142.883 35.9334H148.964C149.987 35.9334 150.814 35.666 151.444 35.1304C152.073 34.5948 152.389 33.7817 152.389 32.6913C152.389 31.776 152.201 31.0945 151.828 30.6462C151.454 30.1985 150.991 29.8968 150.441 29.7402C149.889 29.5843 149.338 29.5063 148.787 29.5063Z" fill="white"/>
<path d="M160.18 21.3258C159.609 21.3258 159.196 21.2235 158.94 21.019C158.685 20.8145 158.557 20.4691 158.557 19.9822V19.5145C158.557 19.0282 158.694 18.6872 158.97 18.4919C159.245 18.2974 159.659 18.2002 160.21 18.2002C160.8 18.2002 161.223 18.3025 161.479 18.507C161.735 18.7115 161.863 19.0476 161.863 19.5145V19.9822C161.863 20.4891 161.73 20.8395 161.464 21.034C161.198 21.2285 160.771 21.3258 160.18 21.3258ZM161.685 37.2475C161.685 37.6758 161.547 38.032 161.272 38.3137C160.996 38.5961 160.642 38.737 160.209 38.737C159.796 38.737 159.446 38.5961 159.161 38.3137C158.876 38.0312 158.734 37.6758 158.734 37.2475V24.7438C158.734 24.3155 158.876 23.9601 159.161 23.6776C159.446 23.3952 159.796 23.2543 160.209 23.2543C160.642 23.2543 160.996 23.3959 161.272 23.6776C161.547 23.9601 161.685 24.3155 161.685 24.7438V37.2475Z" fill="white"/>
<path d="M165.463 23.5463H172.401C172.795 23.5463 173.124 23.6778 173.39 23.941C173.656 24.2041 173.788 24.5302 173.788 24.9199C173.788 25.2903 173.655 25.6021 173.39 25.8545C173.124 26.1077 172.795 26.2342 172.401 26.2342H165.463C165.07 26.2342 164.74 26.1027 164.474 25.8402C164.208 25.5771 164.076 25.261 164.076 24.8906C164.076 24.5009 164.209 24.1798 164.474 23.9267C164.74 23.6736 165.07 23.5463 165.463 23.5463ZM168.563 19.7485C168.996 19.7485 169.35 19.8901 169.626 20.1719C169.901 20.4543 170.039 20.8097 170.039 21.238V34.7936C170.039 35.144 170.099 35.4265 170.216 35.641C170.334 35.8555 170.497 36.0014 170.703 36.0793C170.91 36.1573 171.121 36.1959 171.338 36.1959C171.554 36.1959 171.746 36.1573 171.914 36.0793C172.081 36.0021 172.283 35.9628 172.519 35.9628C172.756 35.9628 172.972 36.07 173.169 36.2838C173.365 36.4983 173.464 36.7908 173.464 37.1605C173.464 37.6282 173.209 38.0079 172.697 38.2996C172.185 38.5914 171.634 38.7379 171.044 38.7379C170.709 38.7379 170.315 38.7086 169.863 38.65C169.41 38.5914 168.972 38.4455 168.55 38.2117C168.126 37.9778 167.777 37.6031 167.502 37.0868C167.226 36.5713 167.089 35.8455 167.089 34.9102V21.238C167.089 20.8097 167.231 20.4543 167.516 20.1719C167.8 19.8901 168.15 19.7485 168.563 19.7485Z" fill="white"/>
<path d="M55.5862 28C55.5862 42.9019 43.3765 55 28.2931 55C13.2097 55 1 42.9019 1 28C1 13.0981 13.2097 1 28.2931 1C43.3765 1 55.5862 13.0981 55.5862 28Z" stroke="white" stroke-width="2"/>
<path d="M9.91325 36.8907C9.81281 36.8907 9.71021 36.8699 9.61339 36.8256C9.25067 36.6611 9.09098 36.2371 9.25717 35.8781L18.4575 15.9806C18.6237 15.6216 19.0521 15.4636 19.4148 15.6281C19.7776 15.7925 19.9373 16.2166 19.7711 16.5755L10.5708 36.4731C10.4494 36.7355 10.1878 36.8907 9.91325 36.8907Z" fill="white"/>
<path d="M28.3169 36.8907C28.043 36.8907 27.7807 36.7355 27.6594 36.4731L18.4583 16.5755C18.2922 16.2166 18.4518 15.7918 18.8146 15.6281C19.1773 15.4636 19.6065 15.6216 19.7719 15.9806L28.973 35.8781C29.1392 36.2371 28.9795 36.6618 28.6167 36.8256C28.5192 36.8699 28.4173 36.8907 28.3169 36.8907Z" fill="white"/>
<path d="M28.3136 36.8907C28.2132 36.8907 28.1106 36.8699 28.0138 36.8256C27.6511 36.6611 27.4914 36.2371 27.6576 35.8781L36.8586 15.9806C37.0248 15.6216 37.4533 15.4636 37.816 15.6281C38.1787 15.7925 38.3384 16.2166 38.1722 16.5755L28.9712 36.4731C28.8498 36.7362 28.5882 36.8907 28.3136 36.8907Z" fill="white"/>
<path d="M46.7173 36.8907C46.4434 36.8907 46.1811 36.7355 46.0597 36.4731L36.8587 16.5755C36.6925 16.2166 36.8522 15.7918 37.215 15.6281C37.5777 15.4636 38.0069 15.6216 38.1723 15.9806L47.3733 35.8781C47.5395 36.2371 47.3799 36.6618 47.0171 36.8256C46.9196 36.8699 46.8177 36.8907 46.7173 36.8907Z" fill="white"/>
<path d="M9.86831 39.7225C11.3931 39.7225 12.6292 38.5364 12.6292 37.0732C12.6292 35.61 11.3931 34.4238 9.86831 34.4238C8.34351 34.4238 7.10742 35.61 7.10742 37.0732C7.10742 38.5364 8.34351 39.7225 9.86831 39.7225Z" fill="white"/>
<path d="M28.2941 39.7225C29.8189 39.7225 31.055 38.5364 31.055 37.0732C31.055 35.61 29.8189 34.4238 28.2941 34.4238C26.7693 34.4238 25.5332 35.61 25.5332 37.0732C25.5332 38.5364 26.7693 39.7225 28.2941 39.7225Z" fill="white"/>
<path d="M46.7179 39.7225C48.2427 39.7225 49.4788 38.5364 49.4788 37.0732C49.4788 35.61 48.2427 34.4238 46.7179 34.4238C45.1931 34.4238 43.957 35.61 43.957 37.0732C43.957 38.5364 45.1931 39.7225 46.7179 39.7225Z" fill="white"/>
</svg>
