<svg width="60" height="51" viewBox="0 0 60 51" fill="none" xmlns="http://www.w3.org/2000/svg">
<path d="M59.691 40.2098L49.7862 50.3054C49.5709 50.5247 49.3103 50.6996 49.0209 50.8191C48.7314 50.9386 48.4191 51.0002 48.1035 51H1.14988C0.925835 51 0.706675 50.9378 0.519328 50.821C0.331977 50.7043 0.184598 50.538 0.0952966 50.3427C0.00599542 50.1475 -0.0213375 49.9317 0.0166563 49.7218C0.0546501 49.512 0.156315 49.3172 0.309161 49.1616L10.2214 39.066C10.4362 38.8473 10.6959 38.6728 10.9844 38.5533C11.273 38.4338 11.5843 38.3719 11.8991 38.3714H58.8501C59.0741 38.3714 59.2933 38.4337 59.4807 38.5504C59.6679 38.6672 59.8152 38.8334 59.9049 39.0287C59.994 39.224 60.0213 39.4397 59.9833 39.6496C59.9453 39.8595 59.8437 40.0542 59.691 40.2098ZM49.7862 19.8803C49.5709 19.661 49.3103 19.4861 49.0209 19.3666C48.7314 19.2472 48.4191 19.1856 48.1035 19.1857H1.14988C0.925835 19.1857 0.706675 19.2479 0.519328 19.3647C0.331977 19.4815 0.184598 19.6477 0.0952966 19.8429C0.00599542 20.0382 -0.0213375 20.2541 0.0166563 20.4639C0.0546501 20.6737 0.156315 20.8684 0.309161 21.0242L10.2214 31.1197C10.4362 31.3385 10.6959 31.5129 10.9844 31.6324C11.273 31.7518 11.5843 31.8138 11.8991 31.8143H58.8501C59.0741 31.8143 59.2933 31.7521 59.4807 31.6353C59.6679 31.5185 59.8152 31.3523 59.9049 31.1571C59.994 30.9618 60.0213 30.7459 59.9833 30.5361C59.9453 30.3263 59.8437 30.1316 59.691 29.9758L49.7862 19.8803ZM1.14988 12.6286H48.1035C48.4191 12.6287 48.7314 12.5672 49.0209 12.4477C49.3103 12.3281 49.5709 12.1533 49.7862 11.934L59.691 1.83843C59.8437 1.68275 59.9453 1.48803 59.9833 1.27819C60.0213 1.06835 59.994 0.852529 59.9049 0.657251C59.8152 0.461973 59.6679 0.29574 59.4807 0.178977C59.2933 0.0622136 59.0741 7.19065e-06 58.8501 0H11.8991C11.5843 0.000509071 11.273 0.0624165 10.9844 0.181889C10.6959 0.301362 10.4362 0.475857 10.2214 0.694574L0.311716 10.7902C0.159018 10.9456 0.0573979 11.1402 0.0193179 11.3498C-0.0187621 11.5594 0.0083539 11.775 0.0973401 11.9702C0.186327 12.1654 0.333315 12.3316 0.520279 12.4486C0.707245 12.5655 0.926055 12.6281 1.14988 12.6286Z" fill="url(#paint0_linear_3156_15524)"/>
<defs>
<linearGradient id="paint0_linear_3156_15524" x1="5.0647" y1="52.2155" x2="51.5186" y2="-2.88504" gradientUnits="userSpaceOnUse">
<stop offset="0.08" stop-color="#9945FF"/>
<stop offset="0.3" stop-color="#8752F3"/>
<stop offset="0.5" stop-color="#5497D5"/>
<stop offset="0.6" stop-color="#43B4CA"/>
<stop offset="0.72" stop-color="#28E0B9"/>
<stop offset="0.97" stop-color="#19FB9B"/>
</linearGradient>
</defs>
</svg>
