<svg width="50" height="43" viewBox="0 0 50 43" fill="none" xmlns="http://www.w3.org/2000/svg">
<path d="M49.7425 33.7582L41.4885 42.1712C41.3091 42.3539 41.0919 42.4996 40.8507 42.5992C40.6095 42.6988 40.3492 42.7501 40.0863 42.75H0.958232C0.771529 42.75 0.588896 42.6981 0.432773 42.6009C0.276648 42.5036 0.153832 42.365 0.0794138 42.2023C0.00499619 42.0396 -0.0177812 41.8597 0.0138803 41.6848C0.0455417 41.51 0.130263 41.3477 0.257634 41.218L8.51786 32.805C8.69683 32.6227 8.91321 32.4773 9.15366 32.3778C9.39415 32.2782 9.65356 32.2266 9.91588 32.2262H49.0417C49.2284 32.2262 49.4111 32.2781 49.5673 32.3753C49.7232 32.4726 49.846 32.6112 49.9208 32.7739C49.995 32.9367 50.0178 33.1165 49.9861 33.2913C49.9544 33.4662 49.8698 33.6285 49.7425 33.7582ZM41.4885 16.8169C41.3091 16.6341 41.0919 16.4884 40.8507 16.3888C40.6095 16.2893 40.3492 16.238 40.0863 16.2381H0.958232C0.771529 16.2381 0.588896 16.2899 0.432773 16.3873C0.276648 16.4846 0.153832 16.6231 0.0794138 16.7858C0.00499619 16.9485 -0.0177812 17.1284 0.0138803 17.3033C0.0455417 17.4781 0.130263 17.6404 0.257634 17.7701L8.51786 26.1831C8.69683 26.3654 8.91321 26.5108 9.15366 26.6103C9.39415 26.7099 9.65356 26.7615 9.91588 26.7619H49.0417C49.2284 26.7619 49.4111 26.7101 49.5673 26.6128C49.7232 26.5154 49.846 26.3769 49.9208 26.2142C49.995 26.0515 50.0178 25.8716 49.9861 25.6967C49.9544 25.5219 49.8698 25.3596 49.7425 25.2299L41.4885 16.8169ZM0.958232 10.7738H40.0863C40.3492 10.7739 40.6095 10.7226 40.8507 10.623C41.0919 10.5235 41.3091 10.3778 41.4885 10.195L49.7425 1.78202C49.8698 1.65229 49.9544 1.49002 49.9861 1.31516C50.0178 1.14029 49.995 0.960441 49.9208 0.797709C49.846 0.634978 49.7232 0.49645 49.5673 0.399147C49.4111 0.301845 49.2284 0.250006 49.0417 0.25H9.91588C9.65356 0.250424 9.39415 0.302014 9.15366 0.401574C8.91321 0.501135 8.69683 0.646548 8.51786 0.828811L0.259764 9.24179C0.132515 9.37137 0.0478315 9.5335 0.0160983 9.70813C-0.0156351 9.88282 0.00696158 10.0625 0.0811168 10.2252C0.155272 10.3878 0.277763 10.5264 0.433566 10.6238C0.589371 10.7213 0.771712 10.7734 0.958232 10.7738Z" fill="url(#paint0_linear_3801_20662)"/>
<defs>
<linearGradient id="paint0_linear_3801_20662" x1="4.22058" y1="43.7629" x2="42.9322" y2="-2.1542" gradientUnits="userSpaceOnUse">
<stop offset="0.08" stop-color="#9945FF"/>
<stop offset="0.3" stop-color="#8752F3"/>
<stop offset="0.5" stop-color="#5497D5"/>
<stop offset="0.6" stop-color="#43B4CA"/>
<stop offset="0.72" stop-color="#28E0B9"/>
<stop offset="0.97" stop-color="#19FB9B"/>
</linearGradient>
</defs>
</svg>
