<svg width="557" height="239" viewBox="0 0 557 239" fill="none" xmlns="http://www.w3.org/2000/svg">
<g clip-path="url(#clip0_2222_5860)">
<path d="M119.69 77.54V59.87C119.69 56.74 118.76 53.67 117.01 51.07C115.26 48.47 112.78 46.44 109.87 45.25L0 0V9.8L97.87 49.96C98.86 50.39 99.64 51.19 100.05 52.19C100.46 53.19 100.45 54.31 100.05 55.3C99.86 55.79 99.56 56.24 99.19 56.61C98.82 56.98 98.37 57.28 97.88 57.47L0 97.88V137.3L58.98 113L97.75 128.97C98.25 129.17 98.7 129.47 99.08 129.85C99.46 130.23 99.76 130.68 99.96 131.18C100.16 131.68 100.26 132.21 100.26 132.74C100.26 133.28 100.14 133.8 99.93 134.3C99.74 134.79 99.44 135.24 99.07 135.61C98.7 135.98 98.25 136.28 97.76 136.47L0 176.74V239L109.73 193.88C112.63 192.69 115.12 190.67 116.87 188.06C118.62 185.46 119.55 182.39 119.55 179.26V138.75C119.55 135.61 118.62 132.55 116.88 129.94C115.13 127.33 112.65 125.3 109.74 124.11L70.87 108.04L109.74 92.07C112.68 90.94 115.21 88.95 116.99 86.35C118.77 83.75 119.71 80.68 119.7 77.53L119.69 77.54Z" fill="black"/>
<path d="M227.25 59.98L235.46 90.48L243.37 59.98H250.86L238.97 101.24H232.6L223.46 68.02L214.64 101.24H208.29L196.38 59.98H203.89L211.8 90.48L220.04 59.98H227.25Z" fill="black"/>
<path d="M272.8 96.08C275.16 96.3 277.53 95.76 279.56 94.53C281.59 93.31 283.18 91.46 284.08 89.27H291.29C289.38 96.4 282.84 102.21 272.79 102.21C259.74 102.21 252.53 92.92 252.53 80.67C252.53 67.64 261.28 59.27 272.56 59.27C285.15 59.27 292.75 69.86 291.82 82.9H260.15C260.08 84.6 260.36 86.3 260.96 87.89C261.56 89.48 262.48 90.94 263.66 92.17C264.84 93.4 266.26 94.38 267.82 95.05C269.39 95.72 271.07 96.07 272.78 96.07L272.8 96.08ZM284.43 76.91C284.14 73.9 282.73 71.11 280.49 69.07C278.25 67.04 275.33 65.91 272.3 65.91C269.27 65.91 266.35 67.03 264.11 69.06C261.87 71.09 260.46 73.88 260.16 76.89L284.43 76.91Z" fill="black"/>
<path d="M306.04 66.4899C307.4 64.1499 309.39 62.2399 311.77 60.9699C314.16 59.6999 316.85 59.1099 319.55 59.2899C328.99 59.2899 337.21 67.1899 337.21 80.7599C337.21 94.3299 329 102.23 319.55 102.23C316.85 102.4 314.15 101.82 311.77 100.55C309.38 99.2799 307.4 97.3699 306.04 95.0299V101.26H299.06V45.6499H306.04V66.4899ZM329.61 80.7499C329.61 70.9499 324.96 65.2799 317.79 65.2799C311.58 65.2799 305.74 69.9299 305.74 80.7499C305.74 91.5699 311.58 96.2499 317.79 96.2499C324.93 96.2499 329.61 90.5799 329.61 80.7499Z" fill="black"/>
<path d="M358.42 75.0798H357.26V68.7098H358.19C367.87 68.7098 373.01 66.0398 373.01 59.4198C373.01 53.4498 368.1 50.3798 362.17 50.3798C360.66 50.2598 359.13 50.4498 357.7 50.9298C356.26 51.4098 354.94 52.1798 353.8 53.1898C352.67 54.1998 351.75 55.4298 351.11 56.7998C350.47 58.1698 350.11 59.6598 350.06 61.1798H342.85C343.69 51.3798 350.67 44.5498 362.34 44.5498C372.02 44.5498 380.39 48.3798 380.39 58.6498C380.39 61.4698 379.52 64.2198 377.9 66.5298C376.28 68.8398 373.98 70.5898 371.32 71.5398C379.62 74.1398 381.93 79.6498 381.93 85.4798C381.93 96.6798 372.39 102.11 361.81 102.11C348.76 102.11 342.76 93.9998 341.99 84.7098H349.22C349.99 91.5398 354.04 96.3298 361.87 96.3298C369.24 96.3298 374.46 92.4998 374.46 85.5998C374.46 77.6798 367.32 75.0798 358.43 75.0798H358.42Z" fill="black"/>
<path d="M215.61 124.74H219.3V130.51H215.87C212.23 130.51 211.61 131.34 211.61 135.59V138.93H219.3V144.47H211.61V179.79H204.7V144.47H198.99V138.93H204.7V135.96C204.59 127.47 206.34 124.73 215.62 124.73L215.61 124.74Z" fill="black"/>
<path d="M241.25 180.77C231.76 180.77 221.64 174.33 221.64 159.51C221.64 144.69 231.75 138.25 241.25 138.25C250.75 138.25 260.88 144.72 260.88 159.51C260.88 174.3 250.77 180.77 241.25 180.77ZM253.51 159.51C253.51 148.65 247.5 144.32 241.25 144.32C235 144.32 229.01 148.35 229.01 159.51C229.01 170.67 235.02 174.7 241.25 174.7C247.48 174.7 253.51 170.01 253.51 159.51Z" fill="black"/>
<path d="M280.87 180.77C271.38 180.77 267.81 174.4 267.81 165.05V138.93H274.72V163C274.72 169.3 275.78 174.78 283.31 174.78C289.85 174.78 293.72 170.18 293.72 161.41V138.93H300.63V179.8H293.72V173.93C292.43 176.15 290.54 177.97 288.27 179.17C286 180.38 283.44 180.93 280.87 180.76V180.77Z" fill="black"/>
<path d="M330.43 138.25C340.34 138.25 343.91 144.62 343.91 153.97V179.81H337V156.02C337 149.74 335.94 144.26 328.04 144.26C321.33 144.26 317.23 148.86 317.23 157.63V179.81H310.32V138.94H317.23V145.08C318.59 142.84 320.54 141.01 322.87 139.8C325.2 138.59 327.82 138.05 330.44 138.24L330.43 138.25Z" fill="black"/>
<path d="M388.53 124.74V179.8H381.62V173.63C380.27 175.94 378.31 177.84 375.94 179.1C373.58 180.36 370.91 180.94 368.23 180.77C358.88 180.77 350.74 173.04 350.74 159.51C350.74 145.98 358.87 138.25 368.23 138.25C370.9 138.08 373.57 138.66 375.94 139.92C378.3 141.18 380.27 143.07 381.62 145.39V124.68L388.53 124.75V124.74ZM358.28 159.5C358.28 169.23 362.89 174.85 369.98 174.85C376.13 174.85 381.91 170.25 381.91 159.5C381.91 148.75 376.13 144.18 369.98 144.18C362.91 144.18 358.28 149.79 358.28 159.5Z" fill="black"/>
<path d="M423.41 154.66V153.67C423.41 146.24 419.22 143.73 414.19 143.73C408.5 143.73 405.16 146.84 404.84 151.85H397.7C398.39 143.04 406.13 138.04 414.13 138.04C425.4 138.04 430.49 143.42 430.4 154.88V164.31C430.23 169.47 430.58 174.64 431.46 179.73H424.55C424.25 177.86 424.07 175.98 424.02 174.09C421.51 178.28 417.25 180.69 410.01 180.69C402.34 180.69 395.96 176.46 395.96 168.93C395.75 159.36 406.63 156.55 423.42 154.64L423.41 154.66ZM403.41 168.86C403.41 172.75 406.38 175.33 411.31 175.33C417.78 175.33 423.94 172.36 423.94 162.72V160.14C411.41 161.43 403.41 163.25 403.41 168.86Z" fill="black"/>
<path d="M448 128.68V138.94H455.76V144.48H448V168.71C448 172.97 448.32 174.02 452.26 174.02H455.76V179.8H450.74C442.91 179.8 441.09 178.05 441.09 169.54V144.49H434.64V138.95H441.09V128.69H448V128.68Z" fill="black"/>
<path d="M469.28 133.1H462.37V124.75H469.28V133.1ZM469.28 179.8H462.37V138.94H469.28V179.8Z" fill="black"/>
<path d="M496.25 180.77C486.73 180.77 476.62 174.33 476.62 159.51C476.62 144.69 486.73 138.25 496.25 138.25C505.77 138.25 515.86 144.72 515.86 159.51C515.86 174.3 505.74 180.77 496.25 180.77ZM508.48 159.51C508.48 148.65 502.47 144.32 496.25 144.32C490.03 144.32 483.99 148.35 483.99 159.51C483.99 170.67 490 174.7 496.25 174.7C502.5 174.7 508.48 170.01 508.48 159.51Z" fill="black"/>
<path d="M543.37 138.25C553.26 138.25 556.831 144.62 556.831 153.97V179.81H549.92V156.02C549.92 149.74 548.86 144.26 540.93 144.26C534.25 144.26 530.151 148.86 530.151 157.63V179.81H523.23V138.94H530.151V145.08C531.511 142.83 533.46 141 535.79 139.8C538.13 138.59 540.75 138.06 543.37 138.25Z" fill="black"/>
</g>
<defs>
<clipPath id="clip0_2222_5860">
<rect width="556.82" height="239" fill="white"/>
</clipPath>
</defs>
</svg>
