<svg width="180" height="80" viewBox="0 0 180 80" fill="none" xmlns="http://www.w3.org/2000/svg">
<path d="M46 27.6835V22.5089C46 20.6304 44.8641 18.9646 43.1248 18.2203L11 5V7.87089L39.646 19.6734C40.64 20.0633 40.64 21.481 39.646 21.8709L11 33.6734V45.1924L28.2515 38.0684L39.6105 42.7468C40.6045 43.1367 40.6045 44.5544 39.6105 44.9443L11 56.7468V75L43.1248 61.7797C44.8641 61.0709 46 59.3696 46 57.4911V45.6177C46 43.7392 44.8641 42.0734 43.1248 41.3291L31.7302 36.6506L43.1248 31.9721C44.8641 31.2633 46 29.562 46 27.6835Z" fill="black"/>
<path d="M62.8196 30.813L67.8839 50.4242L73.5544 30.813H78.9752L84.3247 50.4242L89.6029 30.813H93.5972L86.7855 54.467H81.7213L76.1221 34.0756L70.309 54.467H65.1734L58.5757 30.813H62.8196Z" fill="black"/>
<path d="M99.6956 43.7925C99.8383 45.743 100.052 46.736 100.694 47.9772C101.871 50.2114 104.546 51.6654 107.221 51.6654C110.466 51.6654 112.57 50.1404 113.462 47.1261H117.884C116.778 52.2328 112.891 55.0699 107.149 55.0699C99.9809 55.0699 95.416 50.1759 95.416 42.5158C95.416 35.0331 99.9809 30.0327 106.793 30.0327C114.032 30.0327 117.955 34.9267 117.955 43.7216H99.6956V43.7925ZM112.463 36.558C111.358 34.6784 109.111 33.5436 106.793 33.5436C102.798 33.5436 100.266 36.0615 99.767 40.6008H113.604C113.39 38.5085 113.105 37.5155 112.463 36.558Z" fill="black"/>
<path d="M121.95 21.8052H126.015V34.3592C127.692 31.5576 130.01 30.2455 133.398 30.2455C139.282 30.2455 143.49 35.3522 143.49 42.6576C143.49 49.9631 139.496 54.928 133.433 54.928C130.117 54.928 127.941 53.6158 125.837 50.5305V54.4315H121.914V21.8052H121.95ZM126.087 42.5513C126.087 47.7289 129.047 51.5589 132.898 51.5589C136.607 51.5589 139.068 48.0835 139.068 42.6931C139.068 37.0544 136.607 33.5435 132.756 33.5435C128.904 33.5435 126.087 37.2317 126.087 42.5513Z" fill="black"/>
<path d="M150.873 44.5016C150.801 48.6862 153.476 51.4169 157.685 51.4169C161.465 51.4169 164.211 49.0409 164.211 45.7782C164.211 42.4447 161.608 40.3878 157.399 40.3878C156.971 40.3878 156.615 40.3878 156.008 40.4587V36.8415C156.508 36.8415 156.793 36.8415 157.078 36.8415C161.429 36.8415 163.961 34.9619 163.961 31.5929C163.961 28.4366 161.501 26.4152 157.792 26.4152C153.797 26.4152 151.479 28.7913 151.336 32.976H146.985C147.271 26.4862 151.265 22.7271 157.863 22.7271C163.961 22.7271 168.241 26.2025 168.241 31.2383C168.241 34.5718 165.851 37.6571 162.642 38.5082C166.565 39.5012 168.669 42.1255 168.669 46.0619C168.669 51.3815 164.104 55.1406 157.649 55.1406C150.908 55.1406 146.344 50.814 146.415 44.537C146.379 44.5016 150.873 44.5016 150.873 44.5016Z" fill="black"/>
</svg>
